<?xml version="1.0" encoding="UTF-8" standalone="no"?><svg xmlns="http://www.w3.org/2000/svg" xmlns:xlink="http://www.w3.org/1999/xlink" clip-rule="evenodd" stroke-miterlimit="4.00" viewBox="0 0 1024 768"><desc>SVG generated by Keynote</desc><defs></defs><g transform="matrix(1.00, 0.00, -0.00, -1.00, 0.0, 768.0)"><g><clipPath id="clip-786"><path d="M 0.0 768.0 L 1024.0 768.0 L 1024.0 0.0 L 0.0 0.0 Z M 0.0 768.0 "></path></clipPath><g clip-path="url(#clip-786)"><image xlink:href="3FBB98853A833B6E3BBFA0AF677D3F24.jpeg" width="1024.00" height="768.00" transform="matrix(1.00, 0.00, -0.00, -1.00, 0.0, 768.0)"></image></g></g><path d="M 0.0 0.0 L 960.0 0.0 " fill="none" stroke="#7995B9" stroke-width="1.00" transform="matrix(1.00, 0.00, 0.00, -1.00, 32.0, 89.0)"></path><path d="M 0.0 0.0 L 960.0 0.0 " fill="none" stroke="#7995B9" stroke-width="1.00" transform="matrix(1.00, 0.00, 0.00, -1.00, 32.0, 85.0)"></path><text xml:space="preserve" font-family="BebasNeue" font-size="91.0" fill="#304863" transform="matrix(1.00, 0.00, -0.00, -1.00, 32.0, 181.0)">M</text><text xml:space="preserve" font-family="BebasNeue" font-size="91.0" fill="#304863" transform="matrix(1.00, 0.00, -0.00, -1.00, 79.4, 181.0)">a</text><text xml:space="preserve" font-family="BebasNeue" font-size="91.0" fill="#304863" transform="matrix(1.00, 0.00, -0.00, -1.00, 114.5, 181.0)">c</text><text xml:space="preserve" font-family="BebasNeue" font-size="91.0" fill="#304863" transform="matrix(1.00, 0.00, -0.00, -1.00, 147.8, 181.0)">h</text><text xml:space="preserve" font-family="BebasNeue" font-size="91.0" fill="#304863" transform="matrix(1.00, 0.00, -0.00, -1.00, 184.9, 181.0)">i</text><text xml:space="preserve" font-family="BebasNeue" font-size="91.0" fill="#304863" transform="matrix(1.00, 0.00, -0.00, -1.00, 200.4, 181.0)">n</text><text xml:space="preserve" font-family="BebasNeue" font-size="91.0" fill="#304863" transform="matrix(1.00, 0.00, -0.00, -1.00, 237.4, 181.0)">e</text><text xml:space="preserve" font-family="BebasNeue" font-size="91.0" fill="#304863" transform="matrix(1.00, 0.00, -0.00, -1.00, 269.1, 181.0)">s</text><text xml:space="preserve" font-family="BebasNeue" font-size="91.0" fill="#304863" transform="matrix(1.00, 0.00, -0.00, -1.00, 301.3, 181.0)"> </text><text xml:space="preserve" font-family="BebasNeue" font-size="91.0" fill="#304863" transform="matrix(1.00, 0.00, -0.00, -1.00, 313.6, 181.0)">W</text><text xml:space="preserve" font-family="BebasNeue" font-size="91.0" fill="#304863" transform="matrix(1.00, 0.00, -0.00, -1.00, 363.0, 181.0)">i</text><text xml:space="preserve" font-family="BebasNeue" font-size="91.0" fill="#304863" transform="matrix(1.00, 0.00, -0.00, -1.00, 378.4, 181.0)">l</text><text xml:space="preserve" font-family="BebasNeue" font-size="91.0" fill="#304863" transform="matrix(1.00, 0.00, -0.00, -1.00, 407.6, 181.0)">l</text><text xml:space="preserve" font-family="BebasNeue" font-size="91.0" fill="#304863" transform="matrix(1.00, 0.00, -0.00, -1.00, 436.9, 181.0)"> </text><text xml:space="preserve" font-family="BebasNeue" font-size="91.0" fill="#304863" transform="matrix(1.00, 0.00, -0.00, -1.00, 449.1, 181.0)">S</text><text xml:space="preserve" font-family="BebasNeue" font-size="91.0" fill="#304863" transform="matrix(1.00, 0.00, -0.00, -1.00, 481.4, 181.0)">a</text><text xml:space="preserve" font-family="BebasNeue" font-size="91.0" fill="#304863" transform="matrix(1.00, 0.00, -0.00, -1.00, 514.3, 181.0)">v</text><text xml:space="preserve" font-family="BebasNeue" font-size="91.0" fill="#304863" transform="matrix(1.00, 0.00, -0.00, -1.00, 549.1, 181.0)">e</text><text xml:space="preserve" font-family="BebasNeue" font-size="91.0" fill="#304863" transform="matrix(1.00, 0.00, -0.00, -1.00, 580.7, 181.0)"> </text><text xml:space="preserve" font-family="BebasNeue" font-size="91.0" fill="#304863" transform="matrix(1.00, 0.00, -0.00, -1.00, 593.0, 181.0)">H</text><text xml:space="preserve" font-family="BebasNeue" font-size="91.0" fill="#304863" transform="matrix(1.00, 0.00, -0.00, -1.00, 630.1, 181.0)">u</text><text xml:space="preserve" font-family="BebasNeue" font-size="91.0" fill="#304863" transform="matrix(1.00, 0.00, -0.00, -1.00, 664.5, 181.0)">m</text><text xml:space="preserve" font-family="BebasNeue" font-size="91.0" fill="#304863" transform="matrix(1.00, 0.00, -0.00, -1.00, 711.9, 181.0)">a</text><text xml:space="preserve" font-family="BebasNeue" font-size="91.0" fill="#304863" transform="matrix(1.00, 0.00, -0.00, -1.00, 747.1, 181.0)">n</text><text xml:space="preserve" font-family="BebasNeue" font-size="91.0" fill="#304863" transform="matrix(1.00, 0.00, -0.00, -1.00, 784.1, 181.0)">i</text><text xml:space="preserve" font-family="BebasNeue" font-size="91.0" fill="#304863" transform="matrix(1.00, 0.00, -0.00, -1.00, 799.6, 181.0)">t</text><text xml:space="preserve" font-family="BebasNeue" font-size="91.0" fill="#304863" transform="matrix(1.00, 0.00, -0.00, -1.00, 830.5, 181.0)">y</text><text xml:space="preserve" font-family="SegoeCondensed-Bold" font-weight="bold" font-size="38.0" fill="#5B86B8" transform="matrix(1.00, 0.00, -0.00, -1.00, 32.0, 125.0)">T</text><text xml:space="preserve" font-family="SegoeCondensed-Bold" font-weight="bold" font-size="38.0" fill="#5B86B8" transform="matrix(1.00, 0.00, -0.00, -1.00, 49.1, 125.0)">h</text><text xml:space="preserve" font-family="SegoeCondensed-Bold" font-weight="bold" font-size="38.0" fill="#5B86B8" transform="matrix(1.00, 0.00, -0.00, -1.00, 67.3, 125.0)">e</text><text xml:space="preserve" font-family="SegoeCondensed-Bold" font-weight="bold" font-size="38.0" fill="#5B86B8" transform="matrix(1.00, 0.00, -0.00, -1.00, 83.7, 125.0)"> </text><text xml:space="preserve" font-family="SegoeCondensed-Bold" font-weight="bold" font-size="38.0" fill="#5B86B8" transform="matrix(1.00, 0.00, -0.00, -1.00, 92.4, 125.0)">w</text><text xml:space="preserve" font-family="SegoeCondensed-Bold" font-weight="bold" font-size="38.0" fill="#5B86B8" transform="matrix(1.00, 0.00, -0.00, -1.00, 117.0, 125.0)">o</text><text xml:space="preserve" font-family="SegoeCondensed-Bold" font-weight="bold" font-size="38.0" fill="#5B86B8" transform="matrix(1.00, 0.00, -0.00, -1.00, 134.8, 125.0)">r</text><text xml:space="preserve" font-family="SegoeCondensed-Bold" font-weight="bold" font-size="38.0" fill="#5B86B8" transform="matrix(1.00, 0.00, -0.00, -1.00, 146.9, 125.0)">l</text><text xml:space="preserve" font-family="SegoeCondensed-Bold" font-weight="bold" font-size="38.0" fill="#5B86B8" transform="matrix(1.00, 0.00, -0.00, -1.00, 155.5, 125.0)">d</text><text xml:space="preserve" font-family="SegoeCondensed-Bold" font-weight="bold" font-size="38.0" fill="#5B86B8" transform="matrix(1.00, 0.00, -0.00, -1.00, 173.7, 125.0)"> </text><text xml:space="preserve" font-family="SegoeCondensed-Bold" font-weight="bold" font-size="38.0" fill="#5B86B8" transform="matrix(1.00, 0.00, -0.00, -1.00, 182.4, 125.0)">i</text><text xml:space="preserve" font-family="SegoeCondensed-Bold" font-weight="bold" font-size="38.0" fill="#5B86B8" transform="matrix(1.00, 0.00, -0.00, -1.00, 191.0, 125.0)">s</text><text xml:space="preserve" font-family="SegoeCondensed-Bold" font-weight="bold" font-size="38.0" fill="#5B86B8" transform="matrix(1.00, 0.00, -0.00, -1.00, 204.5, 125.0)"> </text><text xml:space="preserve" font-family="SegoeCondensed-Bold" font-weight="bold" font-size="38.0" fill="#5B86B8" transform="matrix(1.00, 0.00, -0.00, -1.00, 213.2, 125.0)">c</text><text xml:space="preserve" font-family="SegoeCondensed-Bold" font-weight="bold" font-size="38.0" fill="#5B86B8" transform="matrix(1.00, 0.00, -0.00, -1.00, 226.6, 125.0)">h</text><text xml:space="preserve" font-family="SegoeCondensed-Bold" font-weight="bold" font-size="38.0" fill="#5B86B8" transform="matrix(1.00, 0.00, -0.00, -1.00, 244.8, 125.0)">a</text><text xml:space="preserve" font-family="SegoeCondensed-Bold" font-weight="bold" font-size="38.0" fill="#5B86B8" transform="matrix(1.00, 0.00, -0.00, -1.00, 261.4, 125.0)">n</text><text xml:space="preserve" font-family="SegoeCondensed-Bold" font-weight="bold" font-size="38.0" fill="#5B86B8" transform="matrix(1.00, 0.00, -0.00, -1.00, 279.5, 125.0)">g</text><text xml:space="preserve" font-family="SegoeCondensed-Bold" font-weight="bold" font-size="38.0" fill="#5B86B8" transform="matrix(1.00, 0.00, -0.00, -1.00, 297.7, 125.0)">i</text><text xml:space="preserve" font-family="SegoeCondensed-Bold" font-weight="bold" font-size="38.0" fill="#5B86B8" transform="matrix(1.00, 0.00, -0.00, -1.00, 306.3, 125.0)">n</text><text xml:space="preserve" font-family="SegoeCondensed-Bold" font-weight="bold" font-size="38.0" fill="#5B86B8" transform="matrix(1.00, 0.00, -0.00, -1.00, 324.5, 125.0)">g</text><text xml:space="preserve" font-family="SegoeCondensed-Bold" font-weight="bold" font-size="38.0" fill="#5B86B8" transform="matrix(1.00, 0.00, -0.00, -1.00, 342.6, 125.0)">,</text><text xml:space="preserve" font-family="SegoeCondensed-Bold" font-weight="bold" font-size="38.0" fill="#5B86B8" transform="matrix(1.00, 0.00, -0.00, -1.00, 351.7, 125.0)"> </text><text xml:space="preserve" font-family="SegoeCondensed-Bold" font-weight="bold" font-size="38.0" fill="#5B86B8" transform="matrix(1.00, 0.00, -0.00, -1.00, 360.4, 125.0)">a</text><text xml:space="preserve" font-family="SegoeCondensed-Bold" font-weight="bold" font-size="38.0" fill="#5B86B8" transform="matrix(1.00, 0.00, -0.00, -1.00, 376.9, 125.0)">n</text><text xml:space="preserve" font-family="SegoeCondensed-Bold" font-weight="bold" font-size="38.0" fill="#5B86B8" transform="matrix(1.00, 0.00, -0.00, -1.00, 395.1, 125.0)">d</text><text xml:space="preserve" font-family="SegoeCondensed-Bold" font-weight="bold" font-size="38.0" fill="#5B86B8" transform="matrix(1.00, 0.00, -0.00, -1.00, 413.2, 125.0)"> </text><text xml:space="preserve" font-family="SegoeCondensed-Bold" font-weight="bold" font-size="38.0" fill="#5B86B8" transform="matrix(1.00, 0.00, -0.00, -1.00, 421.9, 125.0)">i</text><text xml:space="preserve" font-family="SegoeCondensed-Bold" font-weight="bold" font-size="38.0" fill="#5B86B8" transform="matrix(1.00, 0.00, -0.00, -1.00, 430.6, 125.0)">t</text><text xml:space="preserve" font-family="SegoeCondensed-Bold" font-weight="bold" font-size="38.0" fill="#5B86B8" transform="matrix(1.00, 0.00, -0.00, -1.00, 441.8, 125.0)"> </text><text xml:space="preserve" font-family="SegoeCondensed-Bold" font-weight="bold" font-size="38.0" fill="#5B86B8" transform="matrix(1.00, 0.00, -0.00, -1.00, 450.5, 125.0)">c</text><text xml:space="preserve" font-family="SegoeCondensed-Bold" font-weight="bold" font-size="38.0" fill="#5B86B8" transform="matrix(1.00, 0.00, -0.00, -1.00, 463.7, 125.0)">a</text><text xml:space="preserve" font-family="SegoeCondensed-Bold" font-weight="bold" font-size="38.0" fill="#5B86B8" transform="matrix(1.00, 0.00, -0.00, -1.00, 480.3, 125.0)">n</text><text xml:space="preserve" font-family="SegoeCondensed-Bold" font-weight="bold" font-size="38.0" fill="#5B86B8" transform="matrix(1.00, 0.00, -0.00, -1.00, 498.4, 125.0)">’</text><text xml:space="preserve" font-family="SegoeCondensed-Bold" font-weight="bold" font-size="38.0" fill="#5B86B8" transform="matrix(1.00, 0.00, -0.00, -1.00, 507.6, 125.0)">t</text><text xml:space="preserve" font-family="SegoeCondensed-Bold" font-weight="bold" font-size="38.0" fill="#5B86B8" transform="matrix(1.00, 0.00, -0.00, -1.00, 518.9, 125.0)"> </text><text xml:space="preserve" font-family="SegoeCondensed-Bold" font-weight="bold" font-size="38.0" fill="#5B86B8" transform="matrix(1.00, 0.00, -0.00, -1.00, 527.6, 125.0)">b</text><text xml:space="preserve" font-family="SegoeCondensed-Bold" font-weight="bold" font-size="38.0" fill="#5B86B8" transform="matrix(1.00, 0.00, -0.00, -1.00, 545.7, 125.0)">e</text><text xml:space="preserve" font-family="SegoeCondensed-Bold" font-weight="bold" font-size="38.0" fill="#5B86B8" transform="matrix(1.00, 0.00, -0.00, -1.00, 562.2, 125.0)"> </text><text xml:space="preserve" font-family="SegoeCondensed-Bold" font-weight="bold" font-size="38.0" fill="#5B86B8" transform="matrix(1.00, 0.00, -0.00, -1.00, 570.9, 125.0)">s</text><text xml:space="preserve" font-family="SegoeCondensed-Bold" font-weight="bold" font-size="38.0" fill="#5B86B8" transform="matrix(1.00, 0.00, -0.00, -1.00, 584.3, 125.0)">t</text><text xml:space="preserve" font-family="SegoeCondensed-Bold" font-weight="bold" font-size="38.0" fill="#5B86B8" transform="matrix(1.00, 0.00, -0.00, -1.00, 595.1, 125.0)">o</text><text xml:space="preserve" font-family="SegoeCondensed-Bold" font-weight="bold" font-size="38.0" fill="#5B86B8" transform="matrix(1.00, 0.00, -0.00, -1.00, 612.9, 125.0)">p</text><text xml:space="preserve" font-family="SegoeCondensed-Bold" font-weight="bold" font-size="38.0" fill="#5B86B8" transform="matrix(1.00, 0.00, -0.00, -1.00, 631.0, 125.0)">p</text><text xml:space="preserve" font-family="SegoeCondensed-Bold" font-weight="bold" font-size="38.0" fill="#5B86B8" transform="matrix(1.00, 0.00, -0.00, -1.00, 649.1, 125.0)">e</text><text xml:space="preserve" font-family="SegoeCondensed-Bold" font-weight="bold" font-size="38.0" fill="#5B86B8" transform="matrix(1.00, 0.00, -0.00, -1.00, 665.6, 125.0)">d</text><image xlink:href="5355B2966C7BE6E27CDB382A63C3B1DE.png" width="620.00" height="300.00" transform="matrix(1.30, 0.00, -0.00, -1.30, 109.0, 712.0)"></image></g></svg>