<?xml version="1.0" encoding="UTF-8" standalone="no"?><svg xmlns="http://www.w3.org/2000/svg" xmlns:xlink="http://www.w3.org/1999/xlink" clip-rule="evenodd" stroke-miterlimit="4.00" viewBox="0 0 1024 768"><desc>SVG generated by Keynote</desc><defs></defs><g transform="matrix(1.00, 0.00, -0.00, -1.00, 0.0, 768.0)"><path d="M 0.0 768.0 L 1024.0 768.0 L 1024.0 0.0 L 0.0 0.0 Z M 0.0 768.0 " fill="#FEFFFF"></path><g><clipPath id="clip-504"><path d="M 637.9 407.4 L 824.1 407.4 L 824.1 531.3 L 637.9 531.3 Z M 637.9 407.4 "></path></clipPath><g clip-path="url(#clip-504)"><path d="M 0.0 0.0 L 182.1 0.0 L 182.1 119.9 L 0.0 119.9 Z M 0.0 0.0 " fill="none" stroke="#85878C" stroke-width="2.00" transform="matrix(1.00, 0.00, 0.00, -1.00, 639.9, 529.3)"></path></g></g><g><clipPath id="clip-505"><path d="M 659.8 521.7 L 802.2 521.7 L 802.2 582.9 L 659.8 582.9 Z M 659.8 521.7 "></path></clipPath><g clip-path="url(#clip-505)"><text xml:space="preserve" font-family="AmericanTypewriter" font-size="35.0" fill="#000000" transform="matrix(1.00, 0.00, -0.00, -1.00, 670.0, 541.0)">P</text><text xml:space="preserve" font-family="AmericanTypewriter" font-size="35.0" fill="#000000" transform="matrix(1.00, 0.00, -0.00, -1.00, 691.9, 541.0)">a</text><text xml:space="preserve" font-family="AmericanTypewriter" font-size="35.0" fill="#000000" transform="matrix(1.00, 0.00, -0.00, -1.00, 711.6, 541.0)">t</text><text xml:space="preserve" font-family="AmericanTypewriter" font-size="35.0" fill="#000000" transform="matrix(1.00, 0.00, -0.00, -1.00, 725.6, 541.0)">i</text><text xml:space="preserve" font-family="AmericanTypewriter" font-size="35.0" fill="#000000" transform="matrix(1.00, 0.00, -0.00, -1.00, 736.5, 541.0)">e</text><text xml:space="preserve" font-family="AmericanTypewriter" font-size="35.0" fill="#000000" transform="matrix(1.00, 0.00, -0.00, -1.00, 754.9, 541.0)">n</text><text xml:space="preserve" font-family="AmericanTypewriter" font-size="35.0" fill="#000000" transform="matrix(1.00, 0.00, -0.00, -1.00, 777.2, 541.0)">t</text></g></g><g><clipPath id="clip-506"><path d="M 650.5 486.3 L 719.5 486.3 L 719.5 522.4 L 650.5 522.4 Z M 650.5 486.3 "></path></clipPath><g clip-path="url(#clip-506)"><text xml:space="preserve" font-family="AmericanTypewriter" font-size="21.0" fill="#000000" transform="matrix(1.00, 0.00, -0.00, -1.00, 657.0, 498.0)">n</text><text xml:space="preserve" font-family="AmericanTypewriter" font-size="21.0" fill="#000000" transform="matrix(1.00, 0.00, -0.00, -1.00, 670.4, 498.0)">a</text><text xml:space="preserve" font-family="AmericanTypewriter" font-size="21.0" fill="#000000" transform="matrix(1.00, 0.00, -0.00, -1.00, 682.2, 498.0)">m</text><text xml:space="preserve" font-family="AmericanTypewriter" font-size="21.0" fill="#000000" transform="matrix(1.00, 0.00, -0.00, -1.00, 701.7, 498.0)">e</text></g></g><g><clipPath id="clip-507"><path d="M 650.0 458.3 L 728.0 458.3 L 728.0 494.4 L 650.0 494.4 Z M 650.0 458.3 "></path></clipPath><g clip-path="url(#clip-507)"><text xml:space="preserve" font-family="AmericanTypewriter" font-size="21.0" fill="#000000" transform="matrix(1.00, 0.00, -0.00, -1.00, 657.0, 470.0)">d</text><text xml:space="preserve" font-family="AmericanTypewriter" font-size="21.0" fill="#000000" transform="matrix(1.00, 0.00, -0.00, -1.00, 669.6, 470.0)">o</text><text xml:space="preserve" font-family="AmericanTypewriter" font-size="21.0" fill="#000000" transform="matrix(1.00, 0.00, -0.00, -1.00, 681.1, 470.0)">c</text><text xml:space="preserve" font-family="AmericanTypewriter" font-size="21.0" fill="#000000" transform="matrix(1.00, 0.00, -0.00, -1.00, 691.8, 470.0)">t</text><text xml:space="preserve" font-family="AmericanTypewriter" font-size="21.0" fill="#000000" transform="matrix(1.00, 0.00, -0.00, -1.00, 700.2, 470.0)">o</text><text xml:space="preserve" font-family="AmericanTypewriter" font-size="21.0" fill="#000000" transform="matrix(1.00, 0.00, -0.00, -1.00, 711.6, 470.0)">r</text></g></g><g><clipPath id="clip-508"><path d="M 649.4 420.2 L 812.6 420.2 L 812.6 456.3 L 649.4 456.3 Z M 649.4 420.2 "></path></clipPath><g clip-path="url(#clip-508)"><text xml:space="preserve" font-family="AmericanTypewriter" font-size="21.0" fill="#000000" transform="matrix(1.00, 0.00, -0.00, -1.00, 656.0, 432.0)">t</text><text xml:space="preserve" font-family="AmericanTypewriter" font-size="21.0" fill="#000000" transform="matrix(1.00, 0.00, -0.00, -1.00, 664.4, 432.0)">r</text><text xml:space="preserve" font-family="AmericanTypewriter" font-size="21.0" fill="#000000" transform="matrix(1.00, 0.00, -0.00, -1.00, 674.7, 432.0)">e</text><text xml:space="preserve" font-family="AmericanTypewriter" font-size="21.0" fill="#000000" transform="matrix(1.00, 0.00, -0.00, -1.00, 685.8, 432.0)">a</text><text xml:space="preserve" font-family="AmericanTypewriter" font-size="21.0" fill="#000000" transform="matrix(1.00, 0.00, -0.00, -1.00, 697.6, 432.0)">t</text><text xml:space="preserve" font-family="AmericanTypewriter" font-size="21.0" fill="#000000" transform="matrix(1.00, 0.00, -0.00, -1.00, 706.0, 432.0)">A</text><text xml:space="preserve" font-family="AmericanTypewriter" font-size="21.0" fill="#000000" transform="matrix(1.00, 0.00, -0.00, -1.00, 721.7, 432.0)">i</text><text xml:space="preserve" font-family="AmericanTypewriter" font-size="21.0" fill="#000000" transform="matrix(1.00, 0.00, -0.00, -1.00, 728.2, 432.0)">l</text><text xml:space="preserve" font-family="AmericanTypewriter" font-size="21.0" fill="#000000" transform="matrix(1.00, 0.00, -0.00, -1.00, 734.7, 432.0)">m</text><text xml:space="preserve" font-family="AmericanTypewriter" font-size="21.0" fill="#000000" transform="matrix(1.00, 0.00, -0.00, -1.00, 754.2, 432.0)">e</text><text xml:space="preserve" font-family="AmericanTypewriter" font-size="21.0" fill="#000000" transform="matrix(1.00, 0.00, -0.00, -1.00, 765.3, 432.0)">n</text><text xml:space="preserve" font-family="AmericanTypewriter" font-size="21.0" fill="#000000" transform="matrix(1.00, 0.00, -0.00, -1.00, 778.7, 432.0)">t</text><text xml:space="preserve" font-family="AmericanTypewriter" font-size="21.0" fill="#000000" transform="matrix(1.00, 0.00, -0.00, -1.00, 787.1, 432.0)">(</text><text xml:space="preserve" font-family="AmericanTypewriter" font-size="21.0" fill="#000000" transform="matrix(1.00, 0.00, -0.00, -1.00, 796.6, 432.0)">)</text></g></g><g><clipPath id="clip-509"><path d="M 709.9 180.3 L 896.1 180.3 L 896.1 304.2 L 709.9 304.2 Z M 709.9 180.3 "></path></clipPath><g clip-path="url(#clip-509)"><path d="M 0.0 0.0 L 182.1 0.0 L 182.1 119.9 L 0.0 119.9 Z M 0.0 0.0 " fill="none" stroke="#85878C" stroke-width="2.00" transform="matrix(1.00, 0.00, 0.00, -1.00, 711.9, 302.2)"></path></g></g><g><clipPath id="clip-510"><path d="M 755.5 294.6 L 850.5 294.6 L 850.5 355.8 L 755.5 355.8 Z M 755.5 294.6 "></path></clipPath><g clip-path="url(#clip-510)"><text xml:space="preserve" font-family="AmericanTypewriter" font-size="35.0" fill="#000000" transform="matrix(1.00, 0.00, -0.00, -1.00, 766.0, 313.0)">j</text><text xml:space="preserve" font-family="AmericanTypewriter" font-size="35.0" fill="#000000" transform="matrix(1.00, 0.00, -0.00, -1.00, 776.2, 313.0)">o</text><text xml:space="preserve" font-family="AmericanTypewriter" font-size="35.0" fill="#000000" transform="matrix(1.00, 0.00, -0.00, -1.00, 795.3, 313.0)">h</text><text xml:space="preserve" font-family="AmericanTypewriter" font-size="35.0" fill="#000000" transform="matrix(1.00, 0.00, -0.00, -1.00, 817.6, 313.0)">n</text></g></g><g><clipPath id="clip-511"><path d="M 391.9 564.1 L 578.1 564.1 L 578.1 688.0 L 391.9 688.0 Z M 391.9 564.1 "></path></clipPath><g clip-path="url(#clip-511)"><path d="M 0.0 0.0 L 182.1 0.0 L 182.1 119.9 L 0.0 119.9 Z M 0.0 0.0 " fill="none" stroke="#85878C" stroke-width="2.00" transform="matrix(1.00, 0.00, 0.00, -1.00, 393.9, 686.0)"></path></g></g><g><clipPath id="clip-512"><path d="M 422.8 678.4 L 547.2 678.4 L 547.2 739.6 L 422.8 739.6 Z M 422.8 678.4 "></path></clipPath><g clip-path="url(#clip-512)"><text xml:space="preserve" font-family="AmericanTypewriter" font-size="35.0" fill="#000000" transform="matrix(1.00, 0.00, -0.00, -1.00, 433.0, 697.0)">O</text><text xml:space="preserve" font-family="AmericanTypewriter" font-size="35.0" fill="#000000" transform="matrix(1.00, 0.00, -0.00, -1.00, 455.9, 697.0)">b</text><text xml:space="preserve" font-family="AmericanTypewriter" font-size="35.0" fill="#000000" transform="matrix(1.00, 0.00, -0.00, -1.00, 475.7, 697.0)">j</text><text xml:space="preserve" font-family="AmericanTypewriter" font-size="35.0" fill="#000000" transform="matrix(1.00, 0.00, -0.00, -1.00, 485.9, 697.0)">e</text><text xml:space="preserve" font-family="AmericanTypewriter" font-size="35.0" fill="#000000" transform="matrix(1.00, 0.00, -0.00, -1.00, 504.3, 697.0)">c</text><text xml:space="preserve" font-family="AmericanTypewriter" font-size="35.0" fill="#000000" transform="matrix(1.00, 0.00, -0.00, -1.00, 522.2, 697.0)">t</text></g></g><g><clipPath id="clip-513"><path d="M 403.0 645.9 L 517.9 645.9 L 517.9 682.1 L 403.0 682.1 Z M 403.0 645.9 "></path></clipPath><g clip-path="url(#clip-513)"><text xml:space="preserve" font-family="AmericanTypewriter" font-size="21.0" fill="#000000" transform="matrix(1.00, 0.00, -0.00, -1.00, 409.0, 657.0)">t</text><text xml:space="preserve" font-family="AmericanTypewriter" font-size="21.0" fill="#000000" transform="matrix(1.00, 0.00, -0.00, -1.00, 417.4, 657.0)">o</text><text xml:space="preserve" font-family="AmericanTypewriter" font-size="21.0" fill="#000000" transform="matrix(1.00, 0.00, -0.00, -1.00, 428.9, 657.0)">S</text><text xml:space="preserve" font-family="AmericanTypewriter" font-size="21.0" fill="#000000" transform="matrix(1.00, 0.00, -0.00, -1.00, 441.6, 657.0)">t</text><text xml:space="preserve" font-family="AmericanTypewriter" font-size="21.0" fill="#000000" transform="matrix(1.00, 0.00, -0.00, -1.00, 450.0, 657.0)">r</text><text xml:space="preserve" font-family="AmericanTypewriter" font-size="21.0" fill="#000000" transform="matrix(1.00, 0.00, -0.00, -1.00, 460.3, 657.0)">i</text><text xml:space="preserve" font-family="AmericanTypewriter" font-size="21.0" fill="#000000" transform="matrix(1.00, 0.00, -0.00, -1.00, 466.8, 657.0)">n</text><text xml:space="preserve" font-family="AmericanTypewriter" font-size="21.0" fill="#000000" transform="matrix(1.00, 0.00, -0.00, -1.00, 480.2, 657.0)">g</text><text xml:space="preserve" font-family="AmericanTypewriter" font-size="21.0" fill="#000000" transform="matrix(1.00, 0.00, -0.00, -1.00, 491.7, 657.0)">(</text><text xml:space="preserve" font-family="AmericanTypewriter" font-size="21.0" fill="#000000" transform="matrix(1.00, 0.00, -0.00, -1.00, 501.2, 657.0)">)</text></g></g><g><clipPath id="clip-514"><path d="M 403.0 611.6 L 498.7 611.6 L 498.7 647.7 L 403.0 647.7 Z M 403.0 611.6 "></path></clipPath><g clip-path="url(#clip-514)"><text xml:space="preserve" font-family="AmericanTypewriter" font-size="21.0" fill="#000000" transform="matrix(1.00, 0.00, -0.00, -1.00, 409.0, 623.0)">c</text><text xml:space="preserve" font-family="AmericanTypewriter" font-size="21.0" fill="#000000" transform="matrix(1.00, 0.00, -0.00, -1.00, 419.7, 623.0)">r</text><text xml:space="preserve" font-family="AmericanTypewriter" font-size="21.0" fill="#000000" transform="matrix(1.00, 0.00, -0.00, -1.00, 430.0, 623.0)">e</text><text xml:space="preserve" font-family="AmericanTypewriter" font-size="21.0" fill="#000000" transform="matrix(1.00, 0.00, -0.00, -1.00, 441.1, 623.0)">a</text><text xml:space="preserve" font-family="AmericanTypewriter" font-size="21.0" fill="#000000" transform="matrix(1.00, 0.00, -0.00, -1.00, 453.0, 623.0)">t</text><text xml:space="preserve" font-family="AmericanTypewriter" font-size="21.0" fill="#000000" transform="matrix(1.00, 0.00, -0.00, -1.00, 461.4, 623.0)">e</text><text xml:space="preserve" font-family="AmericanTypewriter" font-size="21.0" fill="#000000" transform="matrix(1.00, 0.00, -0.00, -1.00, 472.4, 623.0)">(</text><text xml:space="preserve" font-family="AmericanTypewriter" font-size="21.0" fill="#000000" transform="matrix(1.00, 0.00, -0.00, -1.00, 482.0, 623.0)">)</text></g></g><g><clipPath id="clip-515"><path d="M 403.0 577.3 L 499.1 577.3 L 499.1 613.4 L 403.0 613.4 Z M 403.0 577.3 "></path></clipPath><g clip-path="url(#clip-515)"><text xml:space="preserve" font-family="AmericanTypewriter" font-size="21.0" fill="#000000" transform="matrix(1.00, 0.00, -0.00, -1.00, 409.0, 589.0)">a</text><text xml:space="preserve" font-family="AmericanTypewriter" font-size="21.0" fill="#000000" transform="matrix(1.00, 0.00, -0.00, -1.00, 420.8, 589.0)">s</text><text xml:space="preserve" font-family="AmericanTypewriter" font-size="21.0" fill="#000000" transform="matrix(1.00, 0.00, -0.00, -1.00, 431.2, 589.0)">s</text><text xml:space="preserve" font-family="AmericanTypewriter" font-size="21.0" fill="#000000" transform="matrix(1.00, 0.00, -0.00, -1.00, 441.5, 589.0)">i</text><text xml:space="preserve" font-family="AmericanTypewriter" font-size="21.0" fill="#000000" transform="matrix(1.00, 0.00, -0.00, -1.00, 448.0, 589.0)">g</text><text xml:space="preserve" font-family="AmericanTypewriter" font-size="21.0" fill="#000000" transform="matrix(1.00, 0.00, -0.00, -1.00, 459.5, 589.0)">n</text><text xml:space="preserve" font-family="AmericanTypewriter" font-size="21.0" fill="#000000" transform="matrix(1.00, 0.00, -0.00, -1.00, 472.9, 589.0)">(</text><text xml:space="preserve" font-family="AmericanTypewriter" font-size="21.0" fill="#000000" transform="matrix(1.00, 0.00, -0.00, -1.00, 482.4, 589.0)">)</text></g></g><path d="M 8.1 3.0 L 9.0 3.3 C 40.4 15.5 68.2 33.2 92.5 56.3 " fill="none" stroke="#000000" stroke-width="2.00" transform="matrix(1.00, 0.00, 0.00, -1.00, 577.1, 633.2)"></path><path d="M 587.7 634.4 L 577.1 633.2 L 584.4 625.3 Z M 587.7 634.4 " fill="#000000"></path><path d="M 3.2 8.0 L 3.6 8.9 C 9.4 24.8 12.8 41.4 13.7 58.8 " fill="none" stroke="#000000" stroke-width="2.00" transform="matrix(1.00, 0.00, 0.00, -1.00, 801.4, 408.4)"></path><path d="M 809.5 401.3 L 801.4 408.4 L 800.5 397.7 Z M 809.5 401.3 " fill="#000000"></path><text xml:space="preserve" font-family="AmericanTypewriter" font-size="39.0" fill="#000000" transform="matrix(1.00, 0.00, -0.00, -1.00, 371.0, 92.0)">j</text><text xml:space="preserve" font-family="AmericanTypewriter" font-size="39.0" fill="#000000" transform="matrix(1.00, 0.00, -0.00, -1.00, 382.3, 92.0)">o</text><text xml:space="preserve" font-family="AmericanTypewriter" font-size="39.0" fill="#000000" transform="matrix(1.00, 0.00, -0.00, -1.00, 403.6, 92.0)">h</text><text xml:space="preserve" font-family="AmericanTypewriter" font-size="39.0" fill="#000000" transform="matrix(1.00, 0.00, -0.00, -1.00, 428.5, 92.0)">n</text><text xml:space="preserve" font-family="AmericanTypewriter" font-size="39.0" fill="#000000" transform="matrix(1.00, 0.00, -0.00, -1.00, 453.3, 92.0)">.</text><text xml:space="preserve" font-family="AmericanTypewriter" font-size="39.0" fill="#000000" transform="matrix(1.00, 0.00, -0.00, -1.00, 464.0, 92.0)">t</text><text xml:space="preserve" font-family="AmericanTypewriter" font-size="39.0" fill="#000000" transform="matrix(1.00, 0.00, -0.00, -1.00, 479.6, 92.0)">o</text><text xml:space="preserve" font-family="AmericanTypewriter" font-size="39.0" fill="#000000" transform="matrix(1.00, 0.00, -0.00, -1.00, 500.9, 92.0)">S</text><text xml:space="preserve" font-family="AmericanTypewriter" font-size="39.0" fill="#000000" transform="matrix(1.00, 0.00, -0.00, -1.00, 524.5, 92.0)">t</text><text xml:space="preserve" font-family="AmericanTypewriter" font-size="39.0" fill="#000000" transform="matrix(1.00, 0.00, -0.00, -1.00, 540.1, 92.0)">r</text><text xml:space="preserve" font-family="AmericanTypewriter" font-size="39.0" fill="#000000" transform="matrix(1.00, 0.00, -0.00, -1.00, 559.3, 92.0)">i</text><text xml:space="preserve" font-family="AmericanTypewriter" font-size="39.0" fill="#000000" transform="matrix(1.00, 0.00, -0.00, -1.00, 571.4, 92.0)">n</text><text xml:space="preserve" font-family="AmericanTypewriter" font-size="39.0" fill="#000000" transform="matrix(1.00, 0.00, -0.00, -1.00, 596.2, 92.0)">g</text><text xml:space="preserve" font-family="AmericanTypewriter" font-size="39.0" fill="#000000" transform="matrix(1.00, 0.00, -0.00, -1.00, 617.5, 92.0)">(</text><text xml:space="preserve" font-family="AmericanTypewriter" font-size="39.0" fill="#000000" transform="matrix(1.00, 0.00, -0.00, -1.00, 635.3, 92.0)">)</text><g><clipPath id="clip-516"><path d="M 45.7 596.0 L 299.0 596.0 L 299.0 655.0 L 45.7 655.0 Z M 45.7 596.0 "></path></clipPath><g clip-path="url(#clip-516)"><image xlink:href="../../6361D4CF-BE7B-4414-9B4D-2F3AE9122786/assets/4D5796FC10301980E2F4F510B8BAB17D.png" width="251.00" height="57.00" transform="matrix(1.00, 0.00, -0.00, -1.00, 46.7, 654.0)" opacity="0.50"></image><path d="M 49.7 650.0 L 293.0 650.0 L 293.0 601.0 L 49.7 601.0 Z M 49.7 650.0 " fill="#6FBF40"></path></g></g><g><clipPath id="clip-517"><path d="M 47.9 649.9 L 234.1 649.9 L 234.1 684.4 L 47.9 684.4 Z M 47.9 649.9 "></path></clipPath><g clip-path="url(#clip-517)"><text xml:space="preserve" font-family="AmericanTypewriter" font-size="20.0" fill="#000000" transform="matrix(1.00, 0.00, -0.00, -1.00, 54.0, 661.0)">J</text><text xml:space="preserve" font-family="AmericanTypewriter" font-size="20.0" fill="#000000" transform="matrix(1.00, 0.00, -0.00, -1.00, 66.4, 661.0)">a</text><text xml:space="preserve" font-family="AmericanTypewriter" font-size="20.0" fill="#000000" transform="matrix(1.00, 0.00, -0.00, -1.00, 76.9, 661.0)">v</text><text xml:space="preserve" font-family="AmericanTypewriter" font-size="20.0" fill="#000000" transform="matrix(1.00, 0.00, -0.00, -1.00, 89.0, 661.0)">a</text><text xml:space="preserve" font-family="AmericanTypewriter" font-size="20.0" fill="#000000" transform="matrix(1.00, 0.00, -0.00, -1.00, 100.2, 661.0)">S</text><text xml:space="preserve" font-family="AmericanTypewriter" font-size="20.0" fill="#000000" transform="matrix(1.00, 0.00, -0.00, -1.00, 112.6, 661.0)">c</text><text xml:space="preserve" font-family="AmericanTypewriter" font-size="20.0" fill="#000000" transform="matrix(1.00, 0.00, -0.00, -1.00, 122.8, 661.0)">r</text><text xml:space="preserve" font-family="AmericanTypewriter" font-size="20.0" fill="#000000" transform="matrix(1.00, 0.00, -0.00, -1.00, 132.6, 661.0)">i</text><text xml:space="preserve" font-family="AmericanTypewriter" font-size="20.0" fill="#000000" transform="matrix(1.00, 0.00, -0.00, -1.00, 138.8, 661.0)">p</text><text xml:space="preserve" font-family="AmericanTypewriter" font-size="20.0" fill="#000000" transform="matrix(1.00, 0.00, -0.00, -1.00, 150.8, 661.0)">t</text><text xml:space="preserve" font-family="AmericanTypewriter" font-size="20.0" fill="#000000" transform="matrix(1.00, 0.00, -0.00, -1.00, 158.8, 661.0)"> </text><text xml:space="preserve" font-family="AmericanTypewriter" font-size="20.0" fill="#000000" transform="matrix(1.00, 0.00, -0.00, -1.00, 163.8, 661.0)">e</text><text xml:space="preserve" font-family="AmericanTypewriter" font-size="20.0" fill="#000000" transform="matrix(1.00, 0.00, -0.00, -1.00, 174.4, 661.0)">n</text><text xml:space="preserve" font-family="AmericanTypewriter" font-size="20.0" fill="#000000" transform="matrix(1.00, 0.00, -0.00, -1.00, 187.1, 661.0)">g</text><text xml:space="preserve" font-family="AmericanTypewriter" font-size="20.0" fill="#000000" transform="matrix(1.00, 0.00, -0.00, -1.00, 198.1, 661.0)">i</text><text xml:space="preserve" font-family="AmericanTypewriter" font-size="20.0" fill="#000000" transform="matrix(1.00, 0.00, -0.00, -1.00, 204.3, 661.0)">n</text><text xml:space="preserve" font-family="AmericanTypewriter" font-size="20.0" fill="#000000" transform="matrix(1.00, 0.00, -0.00, -1.00, 217.0, 661.0)">e</text></g></g><g><clipPath id="clip-518"><path d="M 49.6 608.2 L 274.4 608.2 L 274.4 642.8 L 49.6 642.8 Z M 49.6 608.2 "></path></clipPath><g clip-path="url(#clip-518)"><text xml:space="preserve" font-family="AmericanTypewriter" font-size="20.0" fill="#000000" transform="matrix(1.00, 0.00, -0.00, -1.00, 56.0, 619.0)">D</text><text xml:space="preserve" font-family="AmericanTypewriter" font-size="20.0" fill="#000000" transform="matrix(1.00, 0.00, -0.00, -1.00, 70.6, 619.0)">o</text><text xml:space="preserve" font-family="AmericanTypewriter" font-size="20.0" fill="#000000" transform="matrix(1.00, 0.00, -0.00, -1.00, 81.5, 619.0)">e</text><text xml:space="preserve" font-family="AmericanTypewriter" font-size="20.0" fill="#000000" transform="matrix(1.00, 0.00, -0.00, -1.00, 92.0, 619.0)">s</text><text xml:space="preserve" font-family="AmericanTypewriter" font-size="20.0" fill="#000000" transform="matrix(1.00, 0.00, -0.00, -1.00, 101.9, 619.0)"> </text><text xml:space="preserve" font-family="AmericanTypewriter" font-size="20.0" fill="#000000" transform="matrix(1.00, 0.00, -0.00, -1.00, 106.9, 619.0)">t</text><text xml:space="preserve" font-family="AmericanTypewriter" font-size="20.0" fill="#000000" transform="matrix(1.00, 0.00, -0.00, -1.00, 114.9, 619.0)">o</text><text xml:space="preserve" font-family="AmericanTypewriter" font-size="20.0" fill="#000000" transform="matrix(1.00, 0.00, -0.00, -1.00, 125.8, 619.0)">S</text><text xml:space="preserve" font-family="AmericanTypewriter" font-size="20.0" fill="#000000" transform="matrix(1.00, 0.00, -0.00, -1.00, 137.9, 619.0)">t</text><text xml:space="preserve" font-family="AmericanTypewriter" font-size="20.0" fill="#000000" transform="matrix(1.00, 0.00, -0.00, -1.00, 145.9, 619.0)">r</text><text xml:space="preserve" font-family="AmericanTypewriter" font-size="20.0" fill="#000000" transform="matrix(1.00, 0.00, -0.00, -1.00, 155.8, 619.0)">i</text><text xml:space="preserve" font-family="AmericanTypewriter" font-size="20.0" fill="#000000" transform="matrix(1.00, 0.00, -0.00, -1.00, 162.0, 619.0)">n</text><text xml:space="preserve" font-family="AmericanTypewriter" font-size="20.0" fill="#000000" transform="matrix(1.00, 0.00, -0.00, -1.00, 174.7, 619.0)">g</text><text xml:space="preserve" font-family="AmericanTypewriter" font-size="20.0" fill="#000000" transform="matrix(1.00, 0.00, -0.00, -1.00, 185.6, 619.0)">(</text><text xml:space="preserve" font-family="AmericanTypewriter" font-size="20.0" fill="#000000" transform="matrix(1.00, 0.00, -0.00, -1.00, 194.7, 619.0)">)</text><text xml:space="preserve" font-family="AmericanTypewriter" font-size="20.0" fill="#000000" transform="matrix(1.00, 0.00, -0.00, -1.00, 203.8, 619.0)"> </text><text xml:space="preserve" font-family="AmericanTypewriter" font-size="20.0" fill="#000000" transform="matrix(1.00, 0.00, -0.00, -1.00, 208.8, 619.0)">e</text><text xml:space="preserve" font-family="AmericanTypewriter" font-size="20.0" fill="#000000" transform="matrix(1.00, 0.00, -0.00, -1.00, 219.4, 619.0)">x</text><text xml:space="preserve" font-family="AmericanTypewriter" font-size="20.0" fill="#000000" transform="matrix(1.00, 0.00, -0.00, -1.00, 232.1, 619.0)">i</text><text xml:space="preserve" font-family="AmericanTypewriter" font-size="20.0" fill="#000000" transform="matrix(1.00, 0.00, -0.00, -1.00, 238.3, 619.0)">s</text><text xml:space="preserve" font-family="AmericanTypewriter" font-size="20.0" fill="#000000" transform="matrix(1.00, 0.00, -0.00, -1.00, 248.2, 619.0)">t</text><text xml:space="preserve" font-family="AmericanTypewriter" font-size="20.0" fill="#000000" transform="matrix(1.00, 0.00, -0.00, -1.00, 256.2, 619.0)">?</text></g></g><g><clipPath id="clip-519"><path d="M 289.0 596.0 L 381.5 596.0 L 381.5 655.0 L 289.0 655.0 Z M 289.0 596.0 "></path></clipPath><g clip-path="url(#clip-519)"><image xlink:href="../../6361D4CF-BE7B-4414-9B4D-2F3AE9122786/assets/D69B0C9790180A3D379E73EF02E77AE4.png" width="90.00" height="57.00" transform="matrix(1.01, 0.00, -0.00, -1.00, 290.0, 654.0)" opacity="0.50"></image><path d="M 322.7 617.7 L 322.7 601.0 L 375.5 625.5 L 322.7 650.0 L 322.7 633.3 L 293.0 633.3 L 293.0 617.7 Z M 322.7 617.7 " fill="#6FBF40"></path></g></g></g></svg>