<?xml version="1.0" encoding="UTF-8" standalone="no"?><svg xmlns="http://www.w3.org/2000/svg" xmlns:xlink="http://www.w3.org/1999/xlink" clip-rule="evenodd" stroke-miterlimit="4.00" viewBox="0 0 1024 768"><desc>SVG generated by Keynote</desc><defs></defs><g transform="matrix(1.00, 0.00, -0.00, -1.00, 0.0, 768.0)"><g><clipPath id="clip-866"><path d="M 0.0 768.0 L 1024.0 768.0 L 1024.0 0.0 L 0.0 0.0 Z M 0.0 768.0 "></path></clipPath><g clip-path="url(#clip-866)"><image xlink:href="../../2DDB5E14-E941-4539-BC0B-5168CEFF0FD6/assets/3FBB98853A833B6E3BBFA0AF677D3F24.jpeg" width="1024.00" height="768.00" transform="matrix(1.00, 0.00, -0.00, -1.00, 0.0, 768.0)"></image></g></g><text xml:space="preserve" font-family="Palatino-Roman" font-size="49.0" fill="#000000" transform="matrix(1.00, 0.00, -0.00, -1.00, 128.0, 386.0)">R</text><text xml:space="preserve" font-family="Palatino-Roman" font-size="49.0" fill="#000000" transform="matrix(1.00, 0.00, -0.00, -1.00, 160.7, 386.0)">e</text><text xml:space="preserve" font-family="Palatino-Roman" font-size="49.0" fill="#000000" transform="matrix(1.00, 0.00, -0.00, -1.00, 184.2, 386.0)">a</text><text xml:space="preserve" font-family="Palatino-Roman" font-size="49.0" fill="#000000" transform="matrix(1.00, 0.00, -0.00, -1.00, 208.7, 386.0)">l</text><text xml:space="preserve" font-family="Palatino-Roman" font-size="49.0" fill="#000000" transform="matrix(1.00, 0.00, -0.00, -1.00, 223.0, 386.0)">i</text><text xml:space="preserve" font-family="Palatino-Roman" font-size="49.0" fill="#000000" transform="matrix(1.00, 0.00, -0.00, -1.00, 237.2, 386.0)">z</text><text xml:space="preserve" font-family="Palatino-Roman" font-size="49.0" fill="#000000" transform="matrix(1.00, 0.00, -0.00, -1.00, 261.7, 386.0)">a</text><text xml:space="preserve" font-family="Palatino-Roman" font-size="49.0" fill="#000000" transform="matrix(1.00, 0.00, -0.00, -1.00, 286.2, 386.0)">t</text><text xml:space="preserve" font-family="Palatino-Roman" font-size="49.0" fill="#000000" transform="matrix(1.00, 0.00, -0.00, -1.00, 302.2, 386.0)">i</text><text xml:space="preserve" font-family="Palatino-Roman" font-size="49.0" fill="#000000" transform="matrix(1.00, 0.00, -0.00, -1.00, 316.5, 386.0)">o</text><text xml:space="preserve" font-family="Palatino-Roman" font-size="49.0" fill="#000000" transform="matrix(1.00, 0.00, -0.00, -1.00, 343.2, 386.0)">n</text><text xml:space="preserve" font-family="Palatino-Roman" font-size="49.0" fill="#000000" transform="matrix(1.00, 0.00, -0.00, -1.00, 371.7, 386.0)"> </text><text xml:space="preserve" font-family="Palatino-Roman" font-size="49.0" fill="#000000" transform="matrix(1.00, 0.00, -0.00, -1.00, 384.0, 386.0)">t</text><text xml:space="preserve" font-family="Palatino-Roman" font-size="49.0" fill="#000000" transform="matrix(1.00, 0.00, -0.00, -1.00, 400.0, 386.0)">h</text><text xml:space="preserve" font-family="Palatino-Roman" font-size="49.0" fill="#000000" transform="matrix(1.00, 0.00, -0.00, -1.00, 428.5, 386.0)">a</text><text xml:space="preserve" font-family="Palatino-Roman" font-size="49.0" fill="#000000" transform="matrix(1.00, 0.00, -0.00, -1.00, 453.0, 386.0)">t</text><text xml:space="preserve" font-family="Palatino-Roman" font-size="49.0" fill="#000000" transform="matrix(1.00, 0.00, -0.00, -1.00, 469.0, 386.0)"> </text><text xml:space="preserve" font-family="Palatino-Roman" font-size="49.0" fill="#000000" transform="matrix(1.00, 0.00, -0.00, -1.00, 481.2, 386.0)">I</text><text xml:space="preserve" font-family="Palatino-Roman" font-size="49.0" fill="#000000" transform="matrix(1.00, 0.00, -0.00, -1.00, 497.7, 386.0)">’</text><text xml:space="preserve" font-family="Palatino-Roman" font-size="49.0" fill="#000000" transform="matrix(1.00, 0.00, -0.00, -1.00, 511.3, 386.0)">m</text><text xml:space="preserve" font-family="Palatino-Roman" font-size="49.0" fill="#000000" transform="matrix(1.00, 0.00, -0.00, -1.00, 554.6, 386.0)"> </text><text xml:space="preserve" font-family="Palatino-Roman" font-size="49.0" fill="#000000" transform="matrix(1.00, 0.00, -0.00, -1.00, 566.8, 386.0)">n</text><text xml:space="preserve" font-family="Palatino-Roman" font-size="49.0" fill="#000000" transform="matrix(1.00, 0.00, -0.00, -1.00, 595.4, 386.0)">o</text><text xml:space="preserve" font-family="Palatino-Roman" font-size="49.0" fill="#000000" transform="matrix(1.00, 0.00, -0.00, -1.00, 622.1, 386.0)">t</text><text xml:space="preserve" font-family="Palatino-Roman" font-size="49.0" fill="#000000" transform="matrix(1.00, 0.00, -0.00, -1.00, 638.1, 386.0)"> </text><text xml:space="preserve" font-family="Palatino-Roman" font-size="49.0" fill="#000000" transform="matrix(1.00, 0.00, -0.00, -1.00, 650.4, 386.0)">t</text><text xml:space="preserve" font-family="Palatino-Roman" font-size="49.0" fill="#000000" transform="matrix(1.00, 0.00, -0.00, -1.00, 666.3, 386.0)">h</text><text xml:space="preserve" font-family="Palatino-Roman" font-size="49.0" fill="#000000" transform="matrix(1.00, 0.00, -0.00, -1.00, 694.9, 386.0)">a</text><text xml:space="preserve" font-family="Palatino-Roman" font-size="49.0" fill="#000000" transform="matrix(1.00, 0.00, -0.00, -1.00, 719.4, 386.0)">t</text><text xml:space="preserve" font-family="Palatino-Roman" font-size="49.0" fill="#000000" transform="matrix(1.00, 0.00, -0.00, -1.00, 735.4, 386.0)"> </text><text xml:space="preserve" font-family="Palatino-Roman" font-size="49.0" fill="#000000" transform="matrix(1.00, 0.00, -0.00, -1.00, 747.6, 386.0)">s</text><text xml:space="preserve" font-family="Palatino-Roman" font-size="49.0" fill="#000000" transform="matrix(1.00, 0.00, -0.00, -1.00, 768.4, 386.0)">p</text><text xml:space="preserve" font-family="Palatino-Roman" font-size="49.0" fill="#000000" transform="matrix(1.00, 0.00, -0.00, -1.00, 797.8, 386.0)">e</text><text xml:space="preserve" font-family="Palatino-Roman" font-size="49.0" fill="#000000" transform="matrix(1.00, 0.00, -0.00, -1.00, 821.3, 386.0)">c</text><text xml:space="preserve" font-family="Palatino-Roman" font-size="49.0" fill="#000000" transform="matrix(1.00, 0.00, -0.00, -1.00, 843.0, 386.0)">i</text><text xml:space="preserve" font-family="Palatino-Roman" font-size="49.0" fill="#000000" transform="matrix(1.00, 0.00, -0.00, -1.00, 857.3, 386.0)">a</text><text xml:space="preserve" font-family="Palatino-Roman" font-size="49.0" fill="#000000" transform="matrix(1.00, 0.00, -0.00, -1.00, 881.8, 386.0)">l</text></g></svg>