<?xml version="1.0" encoding="UTF-8" standalone="no"?><svg xmlns="http://www.w3.org/2000/svg" xmlns:xlink="http://www.w3.org/1999/xlink" clip-rule="evenodd" stroke-miterlimit="4.00" viewBox="0 0 1024 768"><desc>SVG generated by Keynote</desc><defs></defs><g transform="matrix(1.00, 0.00, -0.00, -1.00, 0.0, 768.0)"><g><clipPath id="clip-955"><path d="M 0.0 768.0 L 1024.0 768.0 L 1024.0 0.0 L 0.0 0.0 Z M 0.0 768.0 "></path></clipPath><g clip-path="url(#clip-955)"><image xlink:href="../../2DDB5E14-E941-4539-BC0B-5168CEFF0FD6/assets/3FBB98853A833B6E3BBFA0AF677D3F24.jpeg" width="1024.00" height="768.00" transform="matrix(1.00, 0.00, -0.00, -1.00, 0.0, 768.0)"></image></g></g><text xml:space="preserve" font-family="Palatino-Roman" font-size="49.0" fill="#000000" transform="matrix(1.00, 0.00, -0.00, -1.00, 382.0, 386.0)">M</text><text xml:space="preserve" font-family="Palatino-Roman" font-size="49.0" fill="#000000" transform="matrix(1.00, 0.00, -0.00, -1.00, 428.3, 386.0)">e</text><text xml:space="preserve" font-family="Palatino-Roman" font-size="49.0" fill="#000000" transform="matrix(1.00, 0.00, -0.00, -1.00, 451.8, 386.0)">r</text><text xml:space="preserve" font-family="Palatino-Roman" font-size="49.0" fill="#000000" transform="matrix(1.00, 0.00, -0.00, -1.00, 471.2, 386.0)">i</text><text xml:space="preserve" font-family="Palatino-Roman" font-size="49.0" fill="#000000" transform="matrix(1.00, 0.00, -0.00, -1.00, 485.4, 386.0)">t</text><text xml:space="preserve" font-family="Palatino-Roman" font-size="49.0" fill="#000000" transform="matrix(1.00, 0.00, -0.00, -1.00, 501.4, 386.0)">o</text><text xml:space="preserve" font-family="Palatino-Roman" font-size="49.0" fill="#000000" transform="matrix(1.00, 0.00, -0.00, -1.00, 528.2, 386.0)">c</text><text xml:space="preserve" font-family="Palatino-Roman" font-size="49.0" fill="#000000" transform="matrix(1.00, 0.00, -0.00, -1.00, 549.9, 386.0)">r</text><text xml:space="preserve" font-family="Palatino-Roman" font-size="49.0" fill="#000000" transform="matrix(1.00, 0.00, -0.00, -1.00, 569.3, 386.0)">a</text><text xml:space="preserve" font-family="Palatino-Roman" font-size="49.0" fill="#000000" transform="matrix(1.00, 0.00, -0.00, -1.00, 593.8, 386.0)">c</text><text xml:space="preserve" font-family="Palatino-Roman" font-size="49.0" fill="#000000" transform="matrix(1.00, 0.00, -0.00, -1.00, 615.5, 386.0)">y</text></g></svg>