<?xml version="1.0" encoding="UTF-8" standalone="no"?><svg xmlns="http://www.w3.org/2000/svg" xmlns:xlink="http://www.w3.org/1999/xlink" clip-rule="evenodd" stroke-miterlimit="4.00" viewBox="0 0 1024 768"><desc>SVG generated by Keynote</desc><defs></defs><g transform="matrix(1.00, 0.00, -0.00, -1.00, 0.0, 768.0)"><g><clipPath id="clip-950"><path d="M 0.0 768.0 L 1024.0 768.0 L 1024.0 0.0 L 0.0 0.0 Z M 0.0 768.0 "></path></clipPath><g clip-path="url(#clip-950)"><image xlink:href="../../2DDB5E14-E941-4539-BC0B-5168CEFF0FD6/assets/3FBB98853A833B6E3BBFA0AF677D3F24.jpeg" width="1024.00" height="768.00" transform="matrix(1.00, 0.00, -0.00, -1.00, 0.0, 768.0)"></image></g></g><text xml:space="preserve" font-family="Palatino-Roman" font-size="100.0" fill="#000000" transform="matrix(1.00, 0.00, -0.00, -1.00, 261.0, 367.0)">C</text><text xml:space="preserve" font-family="Palatino-Roman" font-size="100.0" fill="#000000" transform="matrix(1.00, 0.00, -0.00, -1.00, 331.9, 367.0)">o</text><text xml:space="preserve" font-family="Palatino-Roman" font-size="100.0" fill="#000000" transform="matrix(1.00, 0.00, -0.00, -1.00, 386.5, 367.0)">n</text><text xml:space="preserve" font-family="Palatino-Roman" font-size="100.0" fill="#000000" transform="matrix(1.00, 0.00, -0.00, -1.00, 444.7, 367.0)">c</text><text xml:space="preserve" font-family="Palatino-Roman" font-size="100.0" fill="#000000" transform="matrix(1.00, 0.00, -0.00, -1.00, 489.0, 367.0)">l</text><text xml:space="preserve" font-family="Palatino-Roman" font-size="100.0" fill="#000000" transform="matrix(1.00, 0.00, -0.00, -1.00, 518.1, 367.0)">u</text><text xml:space="preserve" font-family="Palatino-Roman" font-size="100.0" fill="#000000" transform="matrix(1.00, 0.00, -0.00, -1.00, 578.5, 367.0)">s</text><text xml:space="preserve" font-family="Palatino-Roman" font-size="100.0" fill="#000000" transform="matrix(1.00, 0.00, -0.00, -1.00, 620.8, 367.0)">i</text><text xml:space="preserve" font-family="Palatino-Roman" font-size="100.0" fill="#000000" transform="matrix(1.00, 0.00, -0.00, -1.00, 649.9, 367.0)">o</text><text xml:space="preserve" font-family="Palatino-Roman" font-size="100.0" fill="#000000" transform="matrix(1.00, 0.00, -0.00, -1.00, 704.5, 367.0)">n</text></g></svg>