<?xml version="1.0" encoding="UTF-8" standalone="no"?><svg xmlns="http://www.w3.org/2000/svg" xmlns:xlink="http://www.w3.org/1999/xlink" clip-rule="evenodd" stroke-miterlimit="4.00" viewBox="0 0 495 40"><desc>SVG generated by Keynote</desc><defs></defs><g transform="matrix(1.00, 0.00, -0.00, -1.00, 0.0, 40.0)"><text xml:space="preserve" font-family="AmericanTypewriter" font-size="39.0" fill="#000000" transform="matrix(1.00, 0.00, -0.00, -1.00, 6.0, 10.0)">j</text><text xml:space="preserve" font-family="AmericanTypewriter" font-size="39.0" fill="#000000" transform="matrix(1.00, 0.00, -0.00, -1.00, 17.3, 10.0)">o</text><text xml:space="preserve" font-family="AmericanTypewriter" font-size="39.0" fill="#000000" transform="matrix(1.00, 0.00, -0.00, -1.00, 38.6, 10.0)">h</text><text xml:space="preserve" font-family="AmericanTypewriter" font-size="39.0" fill="#000000" transform="matrix(1.00, 0.00, -0.00, -1.00, 63.5, 10.0)">n</text><text xml:space="preserve" font-family="AmericanTypewriter" font-size="39.0" fill="#000000" transform="matrix(1.00, 0.00, -0.00, -1.00, 88.3, 10.0)">.</text><text xml:space="preserve" font-family="AmericanTypewriter" font-size="39.0" fill="#000000" transform="matrix(1.00, 0.00, -0.00, -1.00, 99.0, 10.0)">d</text><text xml:space="preserve" font-family="AmericanTypewriter" font-size="39.0" fill="#000000" transform="matrix(1.00, 0.00, -0.00, -1.00, 122.4, 10.0)">o</text><text xml:space="preserve" font-family="AmericanTypewriter" font-size="39.0" fill="#000000" transform="matrix(1.00, 0.00, -0.00, -1.00, 143.7, 10.0)">c</text><text xml:space="preserve" font-family="AmericanTypewriter" font-size="39.0" fill="#000000" transform="matrix(1.00, 0.00, -0.00, -1.00, 163.6, 10.0)">t</text><text xml:space="preserve" font-family="AmericanTypewriter" font-size="39.0" fill="#000000" transform="matrix(1.00, 0.00, -0.00, -1.00, 179.2, 10.0)">o</text><text xml:space="preserve" font-family="AmericanTypewriter" font-size="39.0" fill="#000000" transform="matrix(1.00, 0.00, -0.00, -1.00, 200.5, 10.0)">r</text><text xml:space="preserve" font-family="AmericanTypewriter" font-size="39.0" fill="#000000" transform="matrix(1.00, 0.00, -0.00, -1.00, 219.6, 10.0)"> </text><text xml:space="preserve" font-family="AmericanTypewriter" font-size="39.0" fill="#000000" transform="matrix(1.00, 0.00, -0.00, -1.00, 229.4, 10.0)">=</text><text xml:space="preserve" font-family="AmericanTypewriter" font-size="39.0" fill="#000000" transform="matrix(1.00, 0.00, -0.00, -1.00, 248.9, 10.0)">=</text><text xml:space="preserve" font-family="AmericanTypewriter" font-size="39.0" fill="#000000" transform="matrix(1.00, 0.00, -0.00, -1.00, 268.4, 10.0)">=</text><text xml:space="preserve" font-family="AmericanTypewriter" font-size="39.0" fill="#000000" transform="matrix(1.00, 0.00, -0.00, -1.00, 287.9, 10.0)"> </text><text xml:space="preserve" font-family="AmericanTypewriter" font-size="39.0" fill="#000000" transform="matrix(1.00, 0.00, -0.00, -1.00, 297.6, 10.0)">“</text><text xml:space="preserve" font-family="AmericanTypewriter" font-size="39.0" fill="#000000" transform="matrix(1.00, 0.00, -0.00, -1.00, 314.6, 10.0)">F</text><text xml:space="preserve" font-family="AmericanTypewriter" font-size="39.0" fill="#000000" transform="matrix(1.00, 0.00, -0.00, -1.00, 338.1, 10.0)">e</text><text xml:space="preserve" font-family="AmericanTypewriter" font-size="39.0" fill="#000000" transform="matrix(1.00, 0.00, -0.00, -1.00, 358.7, 10.0)">e</text><text xml:space="preserve" font-family="AmericanTypewriter" font-size="39.0" fill="#000000" transform="matrix(1.00, 0.00, -0.00, -1.00, 379.3, 10.0)">l</text><text xml:space="preserve" font-family="AmericanTypewriter" font-size="39.0" fill="#000000" transform="matrix(1.00, 0.00, -0.00, -1.00, 391.4, 10.0)">g</text><text xml:space="preserve" font-family="AmericanTypewriter" font-size="39.0" fill="#000000" transform="matrix(1.00, 0.00, -0.00, -1.00, 412.7, 10.0)">o</text><text xml:space="preserve" font-family="AmericanTypewriter" font-size="39.0" fill="#000000" transform="matrix(1.00, 0.00, -0.00, -1.00, 433.9, 10.0)">o</text><text xml:space="preserve" font-family="AmericanTypewriter" font-size="39.0" fill="#000000" transform="matrix(1.00, 0.00, -0.00, -1.00, 455.2, 10.0)">d</text><text xml:space="preserve" font-family="AmericanTypewriter" font-size="39.0" fill="#000000" transform="matrix(1.00, 0.00, -0.00, -1.00, 478.6, 10.0)">”</text></g></svg>