<?xml version="1.0" encoding="UTF-8" standalone="no"?><svg xmlns="http://www.w3.org/2000/svg" xmlns:xlink="http://www.w3.org/1999/xlink" clip-rule="evenodd" stroke-miterlimit="4.00" viewBox="0 0 188 125"><desc>SVG generated by Keynote</desc><defs></defs><g transform="matrix(1.00, 0.00, -0.00, -1.00, 0.0, 125.0)"><g><clipPath id="clip-404"><path d="M 0.9 0.3 L 187.1 0.3 L 187.1 124.2 L 0.9 124.2 Z M 0.9 0.3 "></path></clipPath><g clip-path="url(#clip-404)"><path d="M 0.0 0.0 L 182.1 0.0 L 182.1 119.9 L 0.0 119.9 Z M 0.0 0.0 " fill="none" stroke="#85878C" stroke-width="2.00" transform="matrix(1.00, 0.00, 0.00, -1.00, 2.9, 122.2)"></path></g></g><g><clipPath id="clip-405"><path d="M 5.5 77.2 L 74.5 77.2 L 74.5 113.3 L 5.5 113.3 Z M 5.5 77.2 "></path></clipPath><g clip-path="url(#clip-405)"><text xml:space="preserve" font-family="AmericanTypewriter" font-size="21.0" fill="#000000" transform="matrix(1.00, 0.00, -0.00, -1.00, 12.0, 88.0)">n</text><text xml:space="preserve" font-family="AmericanTypewriter" font-size="21.0" fill="#000000" transform="matrix(1.00, 0.00, -0.00, -1.00, 25.4, 88.0)">a</text><text xml:space="preserve" font-family="AmericanTypewriter" font-size="21.0" fill="#000000" transform="matrix(1.00, 0.00, -0.00, -1.00, 37.2, 88.0)">m</text><text xml:space="preserve" font-family="AmericanTypewriter" font-size="21.0" fill="#000000" transform="matrix(1.00, 0.00, -0.00, -1.00, 56.7, 88.0)">e</text></g></g><g><clipPath id="clip-406"><path d="M 5.0 49.2 L 83.0 49.2 L 83.0 85.3 L 5.0 85.3 Z M 5.0 49.2 "></path></clipPath><g clip-path="url(#clip-406)"><text xml:space="preserve" font-family="AmericanTypewriter" font-size="21.0" fill="#000000" transform="matrix(1.00, 0.00, -0.00, -1.00, 12.0, 60.0)">d</text><text xml:space="preserve" font-family="AmericanTypewriter" font-size="21.0" fill="#000000" transform="matrix(1.00, 0.00, -0.00, -1.00, 24.6, 60.0)">o</text><text xml:space="preserve" font-family="AmericanTypewriter" font-size="21.0" fill="#000000" transform="matrix(1.00, 0.00, -0.00, -1.00, 36.1, 60.0)">c</text><text xml:space="preserve" font-family="AmericanTypewriter" font-size="21.0" fill="#000000" transform="matrix(1.00, 0.00, -0.00, -1.00, 46.8, 60.0)">t</text><text xml:space="preserve" font-family="AmericanTypewriter" font-size="21.0" fill="#000000" transform="matrix(1.00, 0.00, -0.00, -1.00, 55.2, 60.0)">o</text><text xml:space="preserve" font-family="AmericanTypewriter" font-size="21.0" fill="#000000" transform="matrix(1.00, 0.00, -0.00, -1.00, 66.6, 60.0)">r</text></g></g><g><clipPath id="clip-407"><path d="M 4.4 11.1 L 167.6 11.1 L 167.6 47.2 L 4.4 47.2 Z M 4.4 11.1 "></path></clipPath><g clip-path="url(#clip-407)"><text xml:space="preserve" font-family="AmericanTypewriter" font-size="21.0" fill="#000000" transform="matrix(1.00, 0.00, -0.00, -1.00, 11.0, 22.0)">t</text><text xml:space="preserve" font-family="AmericanTypewriter" font-size="21.0" fill="#000000" transform="matrix(1.00, 0.00, -0.00, -1.00, 19.4, 22.0)">r</text><text xml:space="preserve" font-family="AmericanTypewriter" font-size="21.0" fill="#000000" transform="matrix(1.00, 0.00, -0.00, -1.00, 29.7, 22.0)">e</text><text xml:space="preserve" font-family="AmericanTypewriter" font-size="21.0" fill="#000000" transform="matrix(1.00, 0.00, -0.00, -1.00, 40.8, 22.0)">a</text><text xml:space="preserve" font-family="AmericanTypewriter" font-size="21.0" fill="#000000" transform="matrix(1.00, 0.00, -0.00, -1.00, 52.6, 22.0)">t</text><text xml:space="preserve" font-family="AmericanTypewriter" font-size="21.0" fill="#000000" transform="matrix(1.00, 0.00, -0.00, -1.00, 61.0, 22.0)">A</text><text xml:space="preserve" font-family="AmericanTypewriter" font-size="21.0" fill="#000000" transform="matrix(1.00, 0.00, -0.00, -1.00, 76.7, 22.0)">i</text><text xml:space="preserve" font-family="AmericanTypewriter" font-size="21.0" fill="#000000" transform="matrix(1.00, 0.00, -0.00, -1.00, 83.2, 22.0)">l</text><text xml:space="preserve" font-family="AmericanTypewriter" font-size="21.0" fill="#000000" transform="matrix(1.00, 0.00, -0.00, -1.00, 89.7, 22.0)">m</text><text xml:space="preserve" font-family="AmericanTypewriter" font-size="21.0" fill="#000000" transform="matrix(1.00, 0.00, -0.00, -1.00, 109.2, 22.0)">e</text><text xml:space="preserve" font-family="AmericanTypewriter" font-size="21.0" fill="#000000" transform="matrix(1.00, 0.00, -0.00, -1.00, 120.3, 22.0)">n</text><text xml:space="preserve" font-family="AmericanTypewriter" font-size="21.0" fill="#000000" transform="matrix(1.00, 0.00, -0.00, -1.00, 133.7, 22.0)">t</text><text xml:space="preserve" font-family="AmericanTypewriter" font-size="21.0" fill="#000000" transform="matrix(1.00, 0.00, -0.00, -1.00, 142.1, 22.0)">(</text><text xml:space="preserve" font-family="AmericanTypewriter" font-size="21.0" fill="#000000" transform="matrix(1.00, 0.00, -0.00, -1.00, 151.6, 22.0)">)</text></g></g></g></svg>