<?xml version="1.0" encoding="UTF-8" standalone="no"?><svg xmlns="http://www.w3.org/2000/svg" xmlns:xlink="http://www.w3.org/1999/xlink" clip-rule="evenodd" stroke-miterlimit="4.00" viewBox="0 0 105 23"><desc>SVG generated by Keynote</desc><defs></defs><g transform="matrix(1.00, 0.00, -0.00, -1.00, 0.0, 23.0)"><text xml:space="preserve" font-family="AmericanTypewriter" font-size="21.0" fill="#000000" transform="matrix(1.00, 0.00, -0.00, -1.00, 1.0, 7.0)">t</text><text xml:space="preserve" font-family="AmericanTypewriter" font-size="21.0" fill="#000000" transform="matrix(1.00, 0.00, -0.00, -1.00, 9.4, 7.0)">o</text><text xml:space="preserve" font-family="AmericanTypewriter" font-size="21.0" fill="#000000" transform="matrix(1.00, 0.00, -0.00, -1.00, 20.9, 7.0)">S</text><text xml:space="preserve" font-family="AmericanTypewriter" font-size="21.0" fill="#000000" transform="matrix(1.00, 0.00, -0.00, -1.00, 33.6, 7.0)">t</text><text xml:space="preserve" font-family="AmericanTypewriter" font-size="21.0" fill="#000000" transform="matrix(1.00, 0.00, -0.00, -1.00, 42.0, 7.0)">r</text><text xml:space="preserve" font-family="AmericanTypewriter" font-size="21.0" fill="#000000" transform="matrix(1.00, 0.00, -0.00, -1.00, 52.3, 7.0)">i</text><text xml:space="preserve" font-family="AmericanTypewriter" font-size="21.0" fill="#000000" transform="matrix(1.00, 0.00, -0.00, -1.00, 58.8, 7.0)">n</text><text xml:space="preserve" font-family="AmericanTypewriter" font-size="21.0" fill="#000000" transform="matrix(1.00, 0.00, -0.00, -1.00, 72.2, 7.0)">g</text><text xml:space="preserve" font-family="AmericanTypewriter" font-size="21.0" fill="#000000" transform="matrix(1.00, 0.00, -0.00, -1.00, 83.7, 7.0)">(</text><text xml:space="preserve" font-family="AmericanTypewriter" font-size="21.0" fill="#000000" transform="matrix(1.00, 0.00, -0.00, -1.00, 93.2, 7.0)">)</text></g></svg>