<?xml version="1.0" encoding="UTF-8" standalone="no"?><svg xmlns="http://www.w3.org/2000/svg" xmlns:xlink="http://www.w3.org/1999/xlink" clip-rule="evenodd" stroke-miterlimit="4.00" viewBox="0 0 335 39"><desc>SVG generated by Keynote</desc><defs></defs><g transform="matrix(1.00, 0.00, -0.00, -1.00, 0.0, 39.0)"><text xml:space="preserve" font-family="AmericanTypewriter" font-size="39.0" fill="#000000" transform="matrix(1.00, 0.00, -0.00, -1.00, 1.0, 10.0)">P</text><text xml:space="preserve" font-family="AmericanTypewriter" font-size="39.0" fill="#000000" transform="matrix(1.00, 0.00, -0.00, -1.00, 25.4, 10.0)">a</text><text xml:space="preserve" font-family="AmericanTypewriter" font-size="39.0" fill="#000000" transform="matrix(1.00, 0.00, -0.00, -1.00, 47.4, 10.0)">t</text><text xml:space="preserve" font-family="AmericanTypewriter" font-size="39.0" fill="#000000" transform="matrix(1.00, 0.00, -0.00, -1.00, 63.0, 10.0)">i</text><text xml:space="preserve" font-family="AmericanTypewriter" font-size="39.0" fill="#000000" transform="matrix(1.00, 0.00, -0.00, -1.00, 75.1, 10.0)">e</text><text xml:space="preserve" font-family="AmericanTypewriter" font-size="39.0" fill="#000000" transform="matrix(1.00, 0.00, -0.00, -1.00, 95.7, 10.0)">n</text><text xml:space="preserve" font-family="AmericanTypewriter" font-size="39.0" fill="#000000" transform="matrix(1.00, 0.00, -0.00, -1.00, 120.5, 10.0)">t</text><text xml:space="preserve" font-family="AmericanTypewriter" font-size="39.0" fill="#000000" transform="matrix(1.00, 0.00, -0.00, -1.00, 136.1, 10.0)">.</text><text xml:space="preserve" font-family="AmericanTypewriter" font-size="39.0" fill="#000000" transform="matrix(1.00, 0.00, -0.00, -1.00, 146.7, 10.0)">t</text><text xml:space="preserve" font-family="AmericanTypewriter" font-size="39.0" fill="#000000" transform="matrix(1.00, 0.00, -0.00, -1.00, 162.3, 10.0)">o</text><text xml:space="preserve" font-family="AmericanTypewriter" font-size="39.0" fill="#000000" transform="matrix(1.00, 0.00, -0.00, -1.00, 183.6, 10.0)">S</text><text xml:space="preserve" font-family="AmericanTypewriter" font-size="39.0" fill="#000000" transform="matrix(1.00, 0.00, -0.00, -1.00, 207.3, 10.0)">t</text><text xml:space="preserve" font-family="AmericanTypewriter" font-size="39.0" fill="#000000" transform="matrix(1.00, 0.00, -0.00, -1.00, 222.9, 10.0)">r</text><text xml:space="preserve" font-family="AmericanTypewriter" font-size="39.0" fill="#000000" transform="matrix(1.00, 0.00, -0.00, -1.00, 242.1, 10.0)">i</text><text xml:space="preserve" font-family="AmericanTypewriter" font-size="39.0" fill="#000000" transform="matrix(1.00, 0.00, -0.00, -1.00, 254.1, 10.0)">n</text><text xml:space="preserve" font-family="AmericanTypewriter" font-size="39.0" fill="#000000" transform="matrix(1.00, 0.00, -0.00, -1.00, 279.0, 10.0)">g</text><text xml:space="preserve" font-family="AmericanTypewriter" font-size="39.0" fill="#000000" transform="matrix(1.00, 0.00, -0.00, -1.00, 300.3, 10.0)">(</text><text xml:space="preserve" font-family="AmericanTypewriter" font-size="39.0" fill="#000000" transform="matrix(1.00, 0.00, -0.00, -1.00, 318.0, 10.0)">)</text></g></svg>