<?xml version="1.0" encoding="UTF-8" standalone="no"?><svg xmlns="http://www.w3.org/2000/svg" xmlns:xlink="http://www.w3.org/1999/xlink" clip-rule="evenodd" stroke-miterlimit="4.00" viewBox="0 0 1024 768"><desc>SVG generated by Keynote</desc><defs></defs><g transform="matrix(1.00, 0.00, -0.00, -1.00, 0.0, 768.0)"><g><clipPath id="clip-845"><path d="M 0.0 768.0 L 1024.0 768.0 L 1024.0 0.0 L 0.0 0.0 Z M 0.0 768.0 "></path></clipPath><g clip-path="url(#clip-845)"><image xlink:href="../../2DDB5E14-E941-4539-BC0B-5168CEFF0FD6/assets/3FBB98853A833B6E3BBFA0AF677D3F24.jpeg" width="1024.00" height="768.00" transform="matrix(1.00, 0.00, -0.00, -1.00, 0.0, 768.0)"></image></g></g><text xml:space="preserve" font-family="Palatino-Roman" font-size="18.0" fill="#324763" transform="matrix(1.00, 0.00, -0.00, -1.00, 275.0, 18.0)">N</text><text xml:space="preserve" font-family="Palatino-Roman" font-size="18.0" fill="#324763" transform="matrix(1.00, 0.00, -0.00, -1.00, 290.0, 18.0)">u</text><text xml:space="preserve" font-family="Palatino-Roman" font-size="18.0" fill="#324763" transform="matrix(1.00, 0.00, -0.00, -1.00, 300.8, 18.0)">m</text><text xml:space="preserve" font-family="Palatino-Roman" font-size="18.0" fill="#324763" transform="matrix(1.00, 0.00, -0.00, -1.00, 316.7, 18.0)">b</text><text xml:space="preserve" font-family="Palatino-Roman" font-size="18.0" fill="#324763" transform="matrix(1.00, 0.00, -0.00, -1.00, 326.7, 18.0)">e</text><text xml:space="preserve" font-family="Palatino-Roman" font-size="18.0" fill="#324763" transform="matrix(1.00, 0.00, -0.00, -1.00, 335.3, 18.0)">r</text><text xml:space="preserve" font-family="Palatino-Roman" font-size="18.0" fill="#324763" transform="matrix(1.00, 0.00, -0.00, -1.00, 342.4, 18.0)"> </text><text xml:space="preserve" font-family="Palatino-Roman" font-size="18.0" fill="#324763" transform="matrix(1.00, 0.00, -0.00, -1.00, 346.9, 18.0)">o</text><text xml:space="preserve" font-family="Palatino-Roman" font-size="18.0" fill="#324763" transform="matrix(1.00, 0.00, -0.00, -1.00, 356.7, 18.0)">f</text><text xml:space="preserve" font-family="Palatino-Roman" font-size="18.0" fill="#324763" transform="matrix(1.00, 0.00, -0.00, -1.00, 362.7, 18.0)"> </text><text xml:space="preserve" font-family="Palatino-Roman" font-size="18.0" fill="#324763" transform="matrix(1.00, 0.00, -0.00, -1.00, 367.2, 18.0)">g</text><text xml:space="preserve" font-family="Palatino-Roman" font-size="18.0" fill="#324763" transform="matrix(1.00, 0.00, -0.00, -1.00, 377.2, 18.0)">r</text><text xml:space="preserve" font-family="Palatino-Roman" font-size="18.0" fill="#324763" transform="matrix(1.00, 0.00, -0.00, -1.00, 384.3, 18.0)">a</text><text xml:space="preserve" font-family="Palatino-Roman" font-size="18.0" fill="#324763" transform="matrix(1.00, 0.00, -0.00, -1.00, 393.3, 18.0)">d</text><text xml:space="preserve" font-family="Palatino-Roman" font-size="18.0" fill="#324763" transform="matrix(1.00, 0.00, -0.00, -1.00, 404.3, 18.0)">u</text><text xml:space="preserve" font-family="Palatino-Roman" font-size="18.0" fill="#324763" transform="matrix(1.00, 0.00, -0.00, -1.00, 415.2, 18.0)">a</text><text xml:space="preserve" font-family="Palatino-Roman" font-size="18.0" fill="#324763" transform="matrix(1.00, 0.00, -0.00, -1.00, 424.2, 18.0)">t</text><text xml:space="preserve" font-family="Palatino-Roman" font-size="18.0" fill="#324763" transform="matrix(1.00, 0.00, -0.00, -1.00, 430.1, 18.0)">i</text><text xml:space="preserve" font-family="Palatino-Roman" font-size="18.0" fill="#324763" transform="matrix(1.00, 0.00, -0.00, -1.00, 435.3, 18.0)">n</text><text xml:space="preserve" font-family="Palatino-Roman" font-size="18.0" fill="#324763" transform="matrix(1.00, 0.00, -0.00, -1.00, 445.8, 18.0)">g</text><text xml:space="preserve" font-family="Palatino-Roman" font-size="18.0" fill="#324763" transform="matrix(1.00, 0.00, -0.00, -1.00, 455.8, 18.0)"> </text><text xml:space="preserve" font-family="Palatino-Roman" font-size="18.0" fill="#324763" transform="matrix(1.00, 0.00, -0.00, -1.00, 460.3, 18.0)">s</text><text xml:space="preserve" font-family="Palatino-Roman" font-size="18.0" fill="#324763" transform="matrix(1.00, 0.00, -0.00, -1.00, 467.9, 18.0)">t</text><text xml:space="preserve" font-family="Palatino-Roman" font-size="18.0" fill="#324763" transform="matrix(1.00, 0.00, -0.00, -1.00, 473.8, 18.0)">u</text><text xml:space="preserve" font-family="Palatino-Roman" font-size="18.0" fill="#324763" transform="matrix(1.00, 0.00, -0.00, -1.00, 484.6, 18.0)">d</text><text xml:space="preserve" font-family="Palatino-Roman" font-size="18.0" fill="#324763" transform="matrix(1.00, 0.00, -0.00, -1.00, 495.6, 18.0)">e</text><text xml:space="preserve" font-family="Palatino-Roman" font-size="18.0" fill="#324763" transform="matrix(1.00, 0.00, -0.00, -1.00, 504.3, 18.0)">n</text><text xml:space="preserve" font-family="Palatino-Roman" font-size="18.0" fill="#324763" transform="matrix(1.00, 0.00, -0.00, -1.00, 514.7, 18.0)">t</text><text xml:space="preserve" font-family="Palatino-Roman" font-size="18.0" fill="#324763" transform="matrix(1.00, 0.00, -0.00, -1.00, 520.6, 18.0)">s</text><text xml:space="preserve" font-family="Palatino-Roman" font-size="18.0" fill="#324763" transform="matrix(1.00, 0.00, -0.00, -1.00, 528.2, 18.0)"> </text><text xml:space="preserve" font-family="Palatino-Roman" font-size="18.0" fill="#324763" transform="matrix(1.00, 0.00, -0.00, -1.00, 532.7, 18.0)">f</text><text xml:space="preserve" font-family="Palatino-Roman" font-size="18.0" fill="#324763" transform="matrix(1.00, 0.00, -0.00, -1.00, 538.7, 18.0)">r</text><text xml:space="preserve" font-family="Palatino-Roman" font-size="18.0" fill="#324763" transform="matrix(1.00, 0.00, -0.00, -1.00, 545.5, 18.0)">o</text><text xml:space="preserve" font-family="Palatino-Roman" font-size="18.0" fill="#324763" transform="matrix(1.00, 0.00, -0.00, -1.00, 555.3, 18.0)">m</text><text xml:space="preserve" font-family="Palatino-Roman" font-size="18.0" fill="#324763" transform="matrix(1.00, 0.00, -0.00, -1.00, 571.2, 18.0)"> </text><text xml:space="preserve" font-family="Palatino-Roman" font-size="18.0" fill="#324763" transform="matrix(1.00, 0.00, -0.00, -1.00, 575.7, 18.0)">c</text><text xml:space="preserve" font-family="Palatino-Roman" font-size="18.0" fill="#324763" transform="matrix(1.00, 0.00, -0.00, -1.00, 583.7, 18.0)">o</text><text xml:space="preserve" font-family="Palatino-Roman" font-size="18.0" fill="#324763" transform="matrix(1.00, 0.00, -0.00, -1.00, 593.5, 18.0)">d</text><text xml:space="preserve" font-family="Palatino-Roman" font-size="18.0" fill="#324763" transform="matrix(1.00, 0.00, -0.00, -1.00, 604.5, 18.0)">i</text><text xml:space="preserve" font-family="Palatino-Roman" font-size="18.0" fill="#324763" transform="matrix(1.00, 0.00, -0.00, -1.00, 609.8, 18.0)">n</text><text xml:space="preserve" font-family="Palatino-Roman" font-size="18.0" fill="#324763" transform="matrix(1.00, 0.00, -0.00, -1.00, 620.2, 18.0)">g</text><text xml:space="preserve" font-family="Palatino-Roman" font-size="18.0" fill="#324763" transform="matrix(1.00, 0.00, -0.00, -1.00, 630.3, 18.0)"> </text><text xml:space="preserve" font-family="Palatino-Roman" font-size="18.0" fill="#324763" transform="matrix(1.00, 0.00, -0.00, -1.00, 634.8, 18.0)">b</text><text xml:space="preserve" font-family="Palatino-Roman" font-size="18.0" fill="#324763" transform="matrix(1.00, 0.00, -0.00, -1.00, 644.7, 18.0)">o</text><text xml:space="preserve" font-family="Palatino-Roman" font-size="18.0" fill="#324763" transform="matrix(1.00, 0.00, -0.00, -1.00, 654.5, 18.0)">o</text><text xml:space="preserve" font-family="Palatino-Roman" font-size="18.0" fill="#324763" transform="matrix(1.00, 0.00, -0.00, -1.00, 664.4, 18.0)">t</text><text xml:space="preserve" font-family="Palatino-Roman" font-size="18.0" fill="#324763" transform="matrix(1.00, 0.00, -0.00, -1.00, 670.2, 18.0)">c</text><text xml:space="preserve" font-family="Palatino-Roman" font-size="18.0" fill="#324763" transform="matrix(1.00, 0.00, -0.00, -1.00, 678.2, 18.0)">a</text><text xml:space="preserve" font-family="Palatino-Roman" font-size="18.0" fill="#324763" transform="matrix(1.00, 0.00, -0.00, -1.00, 687.2, 18.0)">m</text><text xml:space="preserve" font-family="Palatino-Roman" font-size="18.0" fill="#324763" transform="matrix(1.00, 0.00, -0.00, -1.00, 703.1, 18.0)">p</text><text xml:space="preserve" font-family="Palatino-Roman" font-size="18.0" fill="#324763" transform="matrix(1.00, 0.00, -0.00, -1.00, 713.9, 18.0)">s</text><text xml:space="preserve" font-family="Palatino-Roman" font-size="18.0" fill="#324763" transform="matrix(1.00, 0.00, -0.00, -1.00, 721.6, 18.0)"> </text><text xml:space="preserve" font-family="Palatino-Roman" font-size="18.0" fill="#324763" transform="matrix(1.00, 0.00, -0.00, -1.00, 726.1, 18.0)">i</text><text xml:space="preserve" font-family="Palatino-Roman" font-size="18.0" fill="#324763" transform="matrix(1.00, 0.00, -0.00, -1.00, 731.3, 18.0)">n</text><text xml:space="preserve" font-family="Palatino-Roman" font-size="18.0" fill="#324763" transform="matrix(1.00, 0.00, -0.00, -1.00, 741.8, 18.0)"> </text><text xml:space="preserve" font-family="Palatino-Roman" font-size="18.0" fill="#324763" transform="matrix(1.00, 0.00, -0.00, -1.00, 746.3, 18.0)">N</text><text xml:space="preserve" font-family="Palatino-Roman" font-size="18.0" fill="#324763" transform="matrix(1.00, 0.00, -0.00, -1.00, 761.2, 18.0)">o</text><text xml:space="preserve" font-family="Palatino-Roman" font-size="18.0" fill="#324763" transform="matrix(1.00, 0.00, -0.00, -1.00, 771.1, 18.0)">r</text><text xml:space="preserve" font-family="Palatino-Roman" font-size="18.0" fill="#324763" transform="matrix(1.00, 0.00, -0.00, -1.00, 778.2, 18.0)">t</text><text xml:space="preserve" font-family="Palatino-Roman" font-size="18.0" fill="#324763" transform="matrix(1.00, 0.00, -0.00, -1.00, 784.1, 18.0)">h</text><text xml:space="preserve" font-family="Palatino-Roman" font-size="18.0" fill="#324763" transform="matrix(1.00, 0.00, -0.00, -1.00, 794.5, 18.0)"> </text><text xml:space="preserve" font-family="Palatino-Roman" font-size="18.0" fill="#324763" transform="matrix(1.00, 0.00, -0.00, -1.00, 798.4, 18.0)">A</text><text xml:space="preserve" font-family="Palatino-Roman" font-size="18.0" fill="#324763" transform="matrix(1.00, 0.00, -0.00, -1.00, 812.4, 18.0)">m</text><text xml:space="preserve" font-family="Palatino-Roman" font-size="18.0" fill="#324763" transform="matrix(1.00, 0.00, -0.00, -1.00, 828.3, 18.0)">e</text><text xml:space="preserve" font-family="Palatino-Roman" font-size="18.0" fill="#324763" transform="matrix(1.00, 0.00, -0.00, -1.00, 836.9, 18.0)">r</text><text xml:space="preserve" font-family="Palatino-Roman" font-size="18.0" fill="#324763" transform="matrix(1.00, 0.00, -0.00, -1.00, 844.0, 18.0)">i</text><text xml:space="preserve" font-family="Palatino-Roman" font-size="18.0" fill="#324763" transform="matrix(1.00, 0.00, -0.00, -1.00, 849.2, 18.0)">c</text><text xml:space="preserve" font-family="Palatino-Roman" font-size="18.0" fill="#324763" transform="matrix(1.00, 0.00, -0.00, -1.00, 857.2, 18.0)">a</text><text xml:space="preserve" font-family="Palatino-Roman" font-size="18.0" fill="#324763" transform="matrix(1.00, 0.00, -0.00, -1.00, 866.2, 18.0)"> </text><text xml:space="preserve" font-family="Palatino-Roman" font-size="18.0" fill="#324763" transform="matrix(1.00, 0.00, -0.00, -1.00, 870.7, 18.0)">f</text><text xml:space="preserve" font-family="Palatino-Roman" font-size="18.0" fill="#324763" transform="matrix(1.00, 0.00, -0.00, -1.00, 876.7, 18.0)">r</text><text xml:space="preserve" font-family="Palatino-Roman" font-size="18.0" fill="#324763" transform="matrix(1.00, 0.00, -0.00, -1.00, 883.5, 18.0)">o</text><text xml:space="preserve" font-family="Palatino-Roman" font-size="18.0" fill="#324763" transform="matrix(1.00, 0.00, -0.00, -1.00, 893.3, 18.0)">m</text><text xml:space="preserve" font-family="Palatino-Roman" font-size="18.0" fill="#324763" transform="matrix(1.00, 0.00, -0.00, -1.00, 909.2, 18.0)"> </text><text xml:space="preserve" font-family="Palatino-Roman" font-size="18.0" fill="#324763" transform="matrix(1.00, 0.00, -0.00, -1.00, 913.7, 18.0)">2</text><text xml:space="preserve" font-family="Palatino-Roman" font-size="18.0" fill="#324763" transform="matrix(1.00, 0.00, -0.00, -1.00, 922.7, 18.0)">0</text><text xml:space="preserve" font-family="Palatino-Roman" font-size="18.0" fill="#324763" transform="matrix(1.00, 0.00, -0.00, -1.00, 931.7, 18.0)">1</text><text xml:space="preserve" font-family="Palatino-Roman" font-size="18.0" fill="#324763" transform="matrix(1.00, 0.00, -0.00, -1.00, 940.7, 18.0)">3</text><text xml:space="preserve" font-family="Palatino-Roman" font-size="18.0" fill="#324763" transform="matrix(1.00, 0.00, -0.00, -1.00, 949.7, 18.0)"> </text><text xml:space="preserve" font-family="Palatino-Roman" font-size="18.0" fill="#324763" transform="matrix(1.00, 0.00, -0.00, -1.00, 954.2, 18.0)">t</text><text xml:space="preserve" font-family="Palatino-Roman" font-size="18.0" fill="#324763" transform="matrix(1.00, 0.00, -0.00, -1.00, 960.1, 18.0)">o</text><text xml:space="preserve" font-family="Palatino-Roman" font-size="18.0" fill="#324763" transform="matrix(1.00, 0.00, -0.00, -1.00, 969.9, 18.0)"> </text><text xml:space="preserve" font-family="Palatino-Roman" font-size="18.0" fill="#324763" transform="matrix(1.00, 0.00, -0.00, -1.00, 974.4, 18.0)">2</text><text xml:space="preserve" font-family="Palatino-Roman" font-size="18.0" fill="#324763" transform="matrix(1.00, 0.00, -0.00, -1.00, 983.4, 18.0)">0</text><text xml:space="preserve" font-family="Palatino-Roman" font-size="18.0" fill="#324763" transform="matrix(1.00, 0.00, -0.00, -1.00, 992.4, 18.0)">1</text><text xml:space="preserve" font-family="Palatino-Roman" font-size="18.0" fill="#324763" transform="matrix(1.00, 0.00, -0.00, -1.00, 1001.4, 18.0)">6</text><g><clipPath id="clip-846"><path d="M 274.3 14.6 L 1010.7 14.6 L 1010.7 17.7 L 274.3 17.7 Z M 274.3 14.6 "></path></clipPath><g clip-path="url(#clip-846)"><path d="M 4.5 24.8 L 739.9 24.8 " fill="none" stroke="#324763" stroke-width="1.05" stroke-miterlimit="0.00" transform="matrix(1.00, 0.00, 0.00, -1.00, 270.8, 41.0)"></path></g></g><image xlink:href="../../50313CBA-BD01-4BFE-ADEB-02576C2D2886/assets/E5C8479A2774ABEB42C401745EEF0578.png" width="742.00" height="540.00" transform="matrix(1.18, 0.00, -0.00, -1.18, 74.0, 712.0)"></image></g></svg>