<?xml version="1.0" encoding="UTF-8" standalone="no"?><svg xmlns="http://www.w3.org/2000/svg" xmlns:xlink="http://www.w3.org/1999/xlink" clip-rule="evenodd" stroke-miterlimit="4.00" viewBox="0 0 1024 768"><desc>SVG generated by Keynote</desc><defs></defs><g transform="matrix(1.00, 0.00, -0.00, -1.00, 0.0, 768.0)"><g><clipPath id="clip-902"><path d="M 0.0 768.0 L 1024.0 768.0 L 1024.0 0.0 L 0.0 0.0 Z M 0.0 768.0 "></path></clipPath><g clip-path="url(#clip-902)"><image xlink:href="../../2DDB5E14-E941-4539-BC0B-5168CEFF0FD6/assets/3FBB98853A833B6E3BBFA0AF677D3F24.jpeg" width="1024.00" height="768.00" transform="matrix(1.00, 0.00, -0.00, -1.00, 0.0, 768.0)"></image></g></g><text xml:space="preserve" font-family="Palatino-Roman" font-size="100.0" fill="#000000" transform="matrix(1.00, 0.00, -0.00, -1.00, 307.0, 367.0)">D</text><text xml:space="preserve" font-family="Palatino-Roman" font-size="100.0" fill="#000000" transform="matrix(1.00, 0.00, -0.00, -1.00, 384.4, 367.0)">i</text><text xml:space="preserve" font-family="Palatino-Roman" font-size="100.0" fill="#000000" transform="matrix(1.00, 0.00, -0.00, -1.00, 413.5, 367.0)">v</text><text xml:space="preserve" font-family="Palatino-Roman" font-size="100.0" fill="#000000" transform="matrix(1.00, 0.00, -0.00, -1.00, 470.0, 367.0)">e</text><text xml:space="preserve" font-family="Palatino-Roman" font-size="100.0" fill="#000000" transform="matrix(1.00, 0.00, -0.00, -1.00, 517.9, 367.0)">r</text><text xml:space="preserve" font-family="Palatino-Roman" font-size="100.0" fill="#000000" transform="matrix(1.00, 0.00, -0.00, -1.00, 557.4, 367.0)">s</text><text xml:space="preserve" font-family="Palatino-Roman" font-size="100.0" fill="#000000" transform="matrix(1.00, 0.00, -0.00, -1.00, 599.7, 367.0)">i</text><text xml:space="preserve" font-family="Palatino-Roman" font-size="100.0" fill="#000000" transform="matrix(1.00, 0.00, -0.00, -1.00, 628.8, 367.0)">t</text><text xml:space="preserve" font-family="Palatino-Roman" font-size="100.0" fill="#000000" transform="matrix(1.00, 0.00, -0.00, -1.00, 661.5, 367.0)">y</text></g></svg>