<?xml version="1.0" encoding="UTF-8" standalone="no"?><svg xmlns="http://www.w3.org/2000/svg" xmlns:xlink="http://www.w3.org/1999/xlink" clip-rule="evenodd" stroke-miterlimit="4.00" viewBox="0 0 188 171"><desc>SVG generated by Keynote</desc><defs></defs><g transform="matrix(1.00, 0.00, -0.00, -1.00, 0.0, 171.0)"><g><clipPath id="clip-469"><path d="M 0.9 0.3 L 187.1 0.3 L 187.1 124.2 L 0.9 124.2 Z M 0.9 0.3 "></path></clipPath><g clip-path="url(#clip-469)"><path d="M 0.0 0.0 L 182.1 0.0 L 182.1 119.9 L 0.0 119.9 Z M 0.0 0.0 " fill="none" stroke="#85878C" stroke-width="2.00" transform="matrix(1.00, 0.00, 0.00, -1.00, 2.9, 122.2)"></path></g></g><g><clipPath id="clip-470"><path d="M 46.5 114.6 L 141.5 114.6 L 141.5 175.8 L 46.5 175.8 Z M 46.5 114.6 "></path></clipPath><g clip-path="url(#clip-470)"><text xml:space="preserve" font-family="AmericanTypewriter" font-size="35.0" fill="#000000" transform="matrix(1.00, 0.00, -0.00, -1.00, 57.0, 133.0)">j</text><text xml:space="preserve" font-family="AmericanTypewriter" font-size="35.0" fill="#000000" transform="matrix(1.00, 0.00, -0.00, -1.00, 67.2, 133.0)">o</text><text xml:space="preserve" font-family="AmericanTypewriter" font-size="35.0" fill="#000000" transform="matrix(1.00, 0.00, -0.00, -1.00, 86.3, 133.0)">h</text><text xml:space="preserve" font-family="AmericanTypewriter" font-size="35.0" fill="#000000" transform="matrix(1.00, 0.00, -0.00, -1.00, 108.6, 133.0)">n</text></g></g></g></svg>