<?xml version="1.0" encoding="UTF-8" standalone="no"?><svg xmlns="http://www.w3.org/2000/svg" xmlns:xlink="http://www.w3.org/1999/xlink" clip-rule="evenodd" stroke-miterlimit="4.00" viewBox="0 0 1024 768"><desc>SVG generated by Keynote</desc><defs></defs><g transform="matrix(1.00, 0.00, -0.00, -1.00, 0.0, 768.0)"><g><clipPath id="clip-930"><path d="M 0.0 768.0 L 1024.0 768.0 L 1024.0 0.0 L 0.0 0.0 Z M 0.0 768.0 "></path></clipPath><g clip-path="url(#clip-930)"><image xlink:href="../../2DDB5E14-E941-4539-BC0B-5168CEFF0FD6/assets/3FBB98853A833B6E3BBFA0AF677D3F24.jpeg" width="1024.00" height="768.00" transform="matrix(1.00, 0.00, -0.00, -1.00, 0.0, 768.0)"></image></g></g><text xml:space="preserve" font-family="Palatino-Roman" font-size="49.0" fill="#000000" transform="matrix(1.00, 0.00, -0.00, -1.00, 101.0, 419.0)">A</text><text xml:space="preserve" font-family="Palatino-Roman" font-size="49.0" fill="#000000" transform="matrix(1.00, 0.00, -0.00, -1.00, 139.1, 419.0)">r</text><text xml:space="preserve" font-family="Palatino-Roman" font-size="49.0" fill="#000000" transform="matrix(1.00, 0.00, -0.00, -1.00, 157.6, 419.0)">e</text><text xml:space="preserve" font-family="Palatino-Roman" font-size="49.0" fill="#000000" transform="matrix(1.00, 0.00, -0.00, -1.00, 181.1, 419.0)"> </text><text xml:space="preserve" font-family="Palatino-Roman" font-size="49.0" fill="#000000" transform="matrix(1.00, 0.00, -0.00, -1.00, 193.3, 419.0)">m</text><text xml:space="preserve" font-family="Palatino-Roman" font-size="49.0" fill="#000000" transform="matrix(1.00, 0.00, -0.00, -1.00, 236.6, 419.0)">y</text><text xml:space="preserve" font-family="Palatino-Roman" font-size="49.0" fill="#000000" transform="matrix(1.00, 0.00, -0.00, -1.00, 263.8, 419.0)"> </text><text xml:space="preserve" font-family="Palatino-Roman" font-size="49.0" fill="#000000" transform="matrix(1.00, 0.00, -0.00, -1.00, 276.1, 419.0)">c</text><text xml:space="preserve" font-family="Palatino-Roman" font-size="49.0" fill="#000000" transform="matrix(1.00, 0.00, -0.00, -1.00, 297.8, 419.0)">o</text><text xml:space="preserve" font-family="Palatino-Roman" font-size="49.0" fill="#000000" transform="matrix(1.00, 0.00, -0.00, -1.00, 324.6, 419.0)">n</text><text xml:space="preserve" font-family="Palatino-Roman" font-size="49.0" fill="#000000" transform="matrix(1.00, 0.00, -0.00, -1.00, 353.1, 419.0)">t</text><text xml:space="preserve" font-family="Palatino-Roman" font-size="49.0" fill="#000000" transform="matrix(1.00, 0.00, -0.00, -1.00, 369.1, 419.0)">r</text><text xml:space="preserve" font-family="Palatino-Roman" font-size="49.0" fill="#000000" transform="matrix(1.00, 0.00, -0.00, -1.00, 388.4, 419.0)">i</text><text xml:space="preserve" font-family="Palatino-Roman" font-size="49.0" fill="#000000" transform="matrix(1.00, 0.00, -0.00, -1.00, 402.7, 419.0)">b</text><text xml:space="preserve" font-family="Palatino-Roman" font-size="49.0" fill="#000000" transform="matrix(1.00, 0.00, -0.00, -1.00, 429.8, 419.0)">u</text><text xml:space="preserve" font-family="Palatino-Roman" font-size="49.0" fill="#000000" transform="matrix(1.00, 0.00, -0.00, -1.00, 459.4, 419.0)">t</text><text xml:space="preserve" font-family="Palatino-Roman" font-size="49.0" fill="#000000" transform="matrix(1.00, 0.00, -0.00, -1.00, 475.3, 419.0)">i</text><text xml:space="preserve" font-family="Palatino-Roman" font-size="49.0" fill="#000000" transform="matrix(1.00, 0.00, -0.00, -1.00, 489.6, 419.0)">o</text><text xml:space="preserve" font-family="Palatino-Roman" font-size="49.0" fill="#000000" transform="matrix(1.00, 0.00, -0.00, -1.00, 516.4, 419.0)">n</text><text xml:space="preserve" font-family="Palatino-Roman" font-size="49.0" fill="#000000" transform="matrix(1.00, 0.00, -0.00, -1.00, 544.9, 419.0)">s</text><text xml:space="preserve" font-family="Palatino-Roman" font-size="49.0" fill="#000000" transform="matrix(1.00, 0.00, -0.00, -1.00, 565.6, 419.0)"> </text><text xml:space="preserve" font-family="Palatino-Roman" font-size="49.0" fill="#000000" transform="matrix(1.00, 0.00, -0.00, -1.00, 577.9, 419.0)">t</text><text xml:space="preserve" font-family="Palatino-Roman" font-size="49.0" fill="#000000" transform="matrix(1.00, 0.00, -0.00, -1.00, 593.9, 419.0)">o</text><text xml:space="preserve" font-family="Palatino-Roman" font-size="49.0" fill="#000000" transform="matrix(1.00, 0.00, -0.00, -1.00, 620.6, 419.0)"> </text><text xml:space="preserve" font-family="Palatino-Roman" font-size="49.0" fill="#000000" transform="matrix(1.00, 0.00, -0.00, -1.00, 632.9, 419.0)">t</text><text xml:space="preserve" font-family="Palatino-Roman" font-size="49.0" fill="#000000" transform="matrix(1.00, 0.00, -0.00, -1.00, 648.9, 419.0)">h</text><text xml:space="preserve" font-family="Palatino-Roman" font-size="49.0" fill="#000000" transform="matrix(1.00, 0.00, -0.00, -1.00, 677.4, 419.0)">e</text><text xml:space="preserve" font-family="Palatino-Roman" font-size="49.0" fill="#000000" transform="matrix(1.00, 0.00, -0.00, -1.00, 700.8, 419.0)"> </text><text xml:space="preserve" font-family="Palatino-Roman" font-size="49.0" fill="#000000" transform="matrix(1.00, 0.00, -0.00, -1.00, 713.1, 419.0)">c</text><text xml:space="preserve" font-family="Palatino-Roman" font-size="49.0" fill="#000000" transform="matrix(1.00, 0.00, -0.00, -1.00, 734.8, 419.0)">o</text><text xml:space="preserve" font-family="Palatino-Roman" font-size="49.0" fill="#000000" transform="matrix(1.00, 0.00, -0.00, -1.00, 761.6, 419.0)">d</text><text xml:space="preserve" font-family="Palatino-Roman" font-size="49.0" fill="#000000" transform="matrix(1.00, 0.00, -0.00, -1.00, 791.5, 419.0)">e</text><text xml:space="preserve" font-family="Palatino-Roman" font-size="49.0" fill="#000000" transform="matrix(1.00, 0.00, -0.00, -1.00, 815.0, 419.0)"> </text><text xml:space="preserve" font-family="Palatino-Roman" font-size="49.0" fill="#000000" transform="matrix(1.00, 0.00, -0.00, -1.00, 827.2, 419.0)">b</text><text xml:space="preserve" font-family="Palatino-Roman" font-size="49.0" fill="#000000" transform="matrix(1.00, 0.00, -0.00, -1.00, 854.3, 419.0)">a</text><text xml:space="preserve" font-family="Palatino-Roman" font-size="49.0" fill="#000000" transform="matrix(1.00, 0.00, -0.00, -1.00, 878.8, 419.0)">s</text><text xml:space="preserve" font-family="Palatino-Roman" font-size="49.0" fill="#000000" transform="matrix(1.00, 0.00, -0.00, -1.00, 899.6, 419.0)">e</text><text xml:space="preserve" font-family="Palatino-Roman" font-size="49.0" fill="#000000" transform="matrix(1.00, 0.00, -0.00, -1.00, 923.1, 419.0)"> </text><text xml:space="preserve" font-family="Palatino-Roman" font-size="49.0" fill="#000000" transform="matrix(1.00, 0.00, -0.00, -1.00, 92.0, 354.0)">p</text><text xml:space="preserve" font-family="Palatino-Roman" font-size="49.0" fill="#000000" transform="matrix(1.00, 0.00, -0.00, -1.00, 121.5, 354.0)">r</text><text xml:space="preserve" font-family="Palatino-Roman" font-size="49.0" fill="#000000" transform="matrix(1.00, 0.00, -0.00, -1.00, 140.0, 354.0)">o</text><text xml:space="preserve" font-family="Palatino-Roman" font-size="49.0" fill="#000000" transform="matrix(1.00, 0.00, -0.00, -1.00, 166.7, 354.0)">v</text><text xml:space="preserve" font-family="Palatino-Roman" font-size="49.0" fill="#000000" transform="matrix(1.00, 0.00, -0.00, -1.00, 194.4, 354.0)">i</text><text xml:space="preserve" font-family="Palatino-Roman" font-size="49.0" fill="#000000" transform="matrix(1.00, 0.00, -0.00, -1.00, 208.6, 354.0)">d</text><text xml:space="preserve" font-family="Palatino-Roman" font-size="49.0" fill="#000000" transform="matrix(1.00, 0.00, -0.00, -1.00, 238.6, 354.0)">i</text><text xml:space="preserve" font-family="Palatino-Roman" font-size="49.0" fill="#000000" transform="matrix(1.00, 0.00, -0.00, -1.00, 252.8, 354.0)">n</text><text xml:space="preserve" font-family="Palatino-Roman" font-size="49.0" fill="#000000" transform="matrix(1.00, 0.00, -0.00, -1.00, 281.3, 354.0)">g</text><text xml:space="preserve" font-family="Palatino-Roman" font-size="49.0" fill="#000000" transform="matrix(1.00, 0.00, -0.00, -1.00, 308.6, 354.0)"> </text><text xml:space="preserve" font-family="Palatino-Roman" font-size="49.0" fill="#000000" transform="matrix(1.00, 0.00, -0.00, -1.00, 320.8, 354.0)">r</text><text xml:space="preserve" font-family="Palatino-Roman" font-size="49.0" fill="#000000" transform="matrix(1.00, 0.00, -0.00, -1.00, 339.3, 354.0)">e</text><text xml:space="preserve" font-family="Palatino-Roman" font-size="49.0" fill="#000000" transform="matrix(1.00, 0.00, -0.00, -1.00, 362.8, 354.0)">a</text><text xml:space="preserve" font-family="Palatino-Roman" font-size="49.0" fill="#000000" transform="matrix(1.00, 0.00, -0.00, -1.00, 387.3, 354.0)">l</text><text xml:space="preserve" font-family="Palatino-Roman" font-size="49.0" fill="#000000" transform="matrix(1.00, 0.00, -0.00, -1.00, 401.6, 354.0)"> </text><text xml:space="preserve" font-family="Palatino-Roman" font-size="49.0" fill="#000000" transform="matrix(1.00, 0.00, -0.00, -1.00, 413.8, 354.0)">v</text><text xml:space="preserve" font-family="Palatino-Roman" font-size="49.0" fill="#000000" transform="matrix(1.00, 0.00, -0.00, -1.00, 441.5, 354.0)">a</text><text xml:space="preserve" font-family="Palatino-Roman" font-size="49.0" fill="#000000" transform="matrix(1.00, 0.00, -0.00, -1.00, 466.0, 354.0)">l</text><text xml:space="preserve" font-family="Palatino-Roman" font-size="49.0" fill="#000000" transform="matrix(1.00, 0.00, -0.00, -1.00, 480.3, 354.0)">u</text><text xml:space="preserve" font-family="Palatino-Roman" font-size="49.0" fill="#000000" transform="matrix(1.00, 0.00, -0.00, -1.00, 509.8, 354.0)">e</text><text xml:space="preserve" font-family="Palatino-Roman" font-size="49.0" fill="#000000" transform="matrix(1.00, 0.00, -0.00, -1.00, 533.3, 354.0)"> </text><text xml:space="preserve" font-family="Palatino-Roman" font-size="49.0" fill="#000000" transform="matrix(1.00, 0.00, -0.00, -1.00, 545.5, 354.0)">t</text><text xml:space="preserve" font-family="Palatino-Roman" font-size="49.0" fill="#000000" transform="matrix(1.00, 0.00, -0.00, -1.00, 561.5, 354.0)">o</text><text xml:space="preserve" font-family="Palatino-Roman" font-size="49.0" fill="#000000" transform="matrix(1.00, 0.00, -0.00, -1.00, 588.3, 354.0)"> </text><text xml:space="preserve" font-family="Palatino-Roman" font-size="49.0" fill="#000000" transform="matrix(1.00, 0.00, -0.00, -1.00, 600.5, 354.0)">o</text><text xml:space="preserve" font-family="Palatino-Roman" font-size="49.0" fill="#000000" transform="matrix(1.00, 0.00, -0.00, -1.00, 627.3, 354.0)">u</text><text xml:space="preserve" font-family="Palatino-Roman" font-size="49.0" fill="#000000" transform="matrix(1.00, 0.00, -0.00, -1.00, 656.8, 354.0)">r</text><text xml:space="preserve" font-family="Palatino-Roman" font-size="49.0" fill="#000000" transform="matrix(1.00, 0.00, -0.00, -1.00, 676.2, 354.0)"> </text><text xml:space="preserve" font-family="Palatino-Roman" font-size="49.0" fill="#000000" transform="matrix(1.00, 0.00, -0.00, -1.00, 688.4, 354.0)">c</text><text xml:space="preserve" font-family="Palatino-Roman" font-size="49.0" fill="#000000" transform="matrix(1.00, 0.00, -0.00, -1.00, 710.1, 354.0)">u</text><text xml:space="preserve" font-family="Palatino-Roman" font-size="49.0" fill="#000000" transform="matrix(1.00, 0.00, -0.00, -1.00, 739.7, 354.0)">s</text><text xml:space="preserve" font-family="Palatino-Roman" font-size="49.0" fill="#000000" transform="matrix(1.00, 0.00, -0.00, -1.00, 760.5, 354.0)">t</text><text xml:space="preserve" font-family="Palatino-Roman" font-size="49.0" fill="#000000" transform="matrix(1.00, 0.00, -0.00, -1.00, 776.4, 354.0)">o</text><text xml:space="preserve" font-family="Palatino-Roman" font-size="49.0" fill="#000000" transform="matrix(1.00, 0.00, -0.00, -1.00, 803.2, 354.0)">m</text><text xml:space="preserve" font-family="Palatino-Roman" font-size="49.0" fill="#000000" transform="matrix(1.00, 0.00, -0.00, -1.00, 846.4, 354.0)">e</text><text xml:space="preserve" font-family="Palatino-Roman" font-size="49.0" fill="#000000" transform="matrix(1.00, 0.00, -0.00, -1.00, 869.9, 354.0)">r</text><text xml:space="preserve" font-family="Palatino-Roman" font-size="49.0" fill="#000000" transform="matrix(1.00, 0.00, -0.00, -1.00, 889.3, 354.0)">s</text><text xml:space="preserve" font-family="Palatino-Roman" font-size="49.0" fill="#000000" transform="matrix(1.00, 0.00, -0.00, -1.00, 910.0, 354.0)">?</text></g></svg>