<?xml version="1.0" encoding="UTF-8" standalone="no"?><svg xmlns="http://www.w3.org/2000/svg" xmlns:xlink="http://www.w3.org/1999/xlink" clip-rule="evenodd" stroke-miterlimit="4.00" viewBox="0 0 793 25"><desc>SVG generated by Keynote</desc><defs></defs><g transform="matrix(1.00, 0.00, -0.00, -1.00, 0.0, 25.0)"><text xml:space="preserve" font-family="Palatino-Roman" font-size="17.0" fill="#324763" transform="matrix(1.00, 0.00, -0.00, -1.00, 2.0, 6.0)">W</text><text xml:space="preserve" font-family="Palatino-Roman" font-size="17.0" fill="#324763" transform="matrix(1.00, 0.00, -0.00, -1.00, 17.4, 6.0)">e</text><text xml:space="preserve" font-family="Palatino-Roman" font-size="17.0" fill="#324763" transform="matrix(1.00, 0.00, -0.00, -1.00, 25.6, 6.0)"> </text><text xml:space="preserve" font-family="Palatino-Roman" font-size="17.0" fill="#324763" transform="matrix(1.00, 0.00, -0.00, -1.00, 29.8, 6.0)">R</text><text xml:space="preserve" font-family="Palatino-Roman" font-size="17.0" fill="#324763" transform="matrix(1.00, 0.00, -0.00, -1.00, 41.2, 6.0)">e</text><text xml:space="preserve" font-family="Palatino-Roman" font-size="17.0" fill="#324763" transform="matrix(1.00, 0.00, -0.00, -1.00, 49.3, 6.0)">c</text><text xml:space="preserve" font-family="Palatino-Roman" font-size="17.0" fill="#324763" transform="matrix(1.00, 0.00, -0.00, -1.00, 56.9, 6.0)">o</text><text xml:space="preserve" font-family="Palatino-Roman" font-size="17.0" fill="#324763" transform="matrix(1.00, 0.00, -0.00, -1.00, 66.2, 6.0)">r</text><text xml:space="preserve" font-family="Palatino-Roman" font-size="17.0" fill="#324763" transform="matrix(1.00, 0.00, -0.00, -1.00, 72.6, 6.0)">d</text><text xml:space="preserve" font-family="Palatino-Roman" font-size="17.0" fill="#324763" transform="matrix(1.00, 0.00, -0.00, -1.00, 82.9, 6.0)">e</text><text xml:space="preserve" font-family="Palatino-Roman" font-size="17.0" fill="#324763" transform="matrix(1.00, 0.00, -0.00, -1.00, 91.1, 6.0)">d</text><text xml:space="preserve" font-family="Palatino-Roman" font-size="17.0" fill="#324763" transform="matrix(1.00, 0.00, -0.00, -1.00, 101.5, 6.0)"> </text><text xml:space="preserve" font-family="Palatino-Roman" font-size="17.0" fill="#324763" transform="matrix(1.00, 0.00, -0.00, -1.00, 105.7, 6.0)">V</text><text xml:space="preserve" font-family="Palatino-Roman" font-size="17.0" fill="#324763" transform="matrix(1.00, 0.00, -0.00, -1.00, 118.0, 6.0)">C</text><text xml:space="preserve" font-family="Palatino-Roman" font-size="17.0" fill="#324763" transform="matrix(1.00, 0.00, -0.00, -1.00, 130.1, 6.0)">s</text><text xml:space="preserve" font-family="Palatino-Roman" font-size="17.0" fill="#324763" transform="matrix(1.00, 0.00, -0.00, -1.00, 137.3, 6.0)">’</text><text xml:space="preserve" font-family="Palatino-Roman" font-size="17.0" fill="#324763" transform="matrix(1.00, 0.00, -0.00, -1.00, 142.0, 6.0)"> </text><text xml:space="preserve" font-family="Palatino-Roman" font-size="17.0" fill="#324763" transform="matrix(1.00, 0.00, -0.00, -1.00, 146.2, 6.0)">C</text><text xml:space="preserve" font-family="Palatino-Roman" font-size="17.0" fill="#324763" transform="matrix(1.00, 0.00, -0.00, -1.00, 158.3, 6.0)">o</text><text xml:space="preserve" font-family="Palatino-Roman" font-size="17.0" fill="#324763" transform="matrix(1.00, 0.00, -0.00, -1.00, 167.6, 6.0)">n</text><text xml:space="preserve" font-family="Palatino-Roman" font-size="17.0" fill="#324763" transform="matrix(1.00, 0.00, -0.00, -1.00, 177.5, 6.0)">v</text><text xml:space="preserve" font-family="Palatino-Roman" font-size="17.0" fill="#324763" transform="matrix(1.00, 0.00, -0.00, -1.00, 187.1, 6.0)">e</text><text xml:space="preserve" font-family="Palatino-Roman" font-size="17.0" fill="#324763" transform="matrix(1.00, 0.00, -0.00, -1.00, 195.2, 6.0)">r</text><text xml:space="preserve" font-family="Palatino-Roman" font-size="17.0" fill="#324763" transform="matrix(1.00, 0.00, -0.00, -1.00, 201.9, 6.0)">s</text><text xml:space="preserve" font-family="Palatino-Roman" font-size="17.0" fill="#324763" transform="matrix(1.00, 0.00, -0.00, -1.00, 209.1, 6.0)">a</text><text xml:space="preserve" font-family="Palatino-Roman" font-size="17.0" fill="#324763" transform="matrix(1.00, 0.00, -0.00, -1.00, 217.6, 6.0)">t</text><text xml:space="preserve" font-family="Palatino-Roman" font-size="17.0" fill="#324763" transform="matrix(1.00, 0.00, -0.00, -1.00, 223.2, 6.0)">i</text><text xml:space="preserve" font-family="Palatino-Roman" font-size="17.0" fill="#324763" transform="matrix(1.00, 0.00, -0.00, -1.00, 228.1, 6.0)">o</text><text xml:space="preserve" font-family="Palatino-Roman" font-size="17.0" fill="#324763" transform="matrix(1.00, 0.00, -0.00, -1.00, 237.4, 6.0)">n</text><text xml:space="preserve" font-family="Palatino-Roman" font-size="17.0" fill="#324763" transform="matrix(1.00, 0.00, -0.00, -1.00, 247.3, 6.0)">s</text><text xml:space="preserve" font-family="Palatino-Roman" font-size="17.0" fill="#324763" transform="matrix(1.00, 0.00, -0.00, -1.00, 254.5, 6.0)"> </text><text xml:space="preserve" font-family="Palatino-Roman" font-size="17.0" fill="#324763" transform="matrix(1.00, 0.00, -0.00, -1.00, 258.7, 6.0)">a</text><text xml:space="preserve" font-family="Palatino-Roman" font-size="17.0" fill="#324763" transform="matrix(1.00, 0.00, -0.00, -1.00, 267.2, 6.0)">n</text><text xml:space="preserve" font-family="Palatino-Roman" font-size="17.0" fill="#324763" transform="matrix(1.00, 0.00, -0.00, -1.00, 277.1, 6.0)">d</text><text xml:space="preserve" font-family="Palatino-Roman" font-size="17.0" fill="#324763" transform="matrix(1.00, 0.00, -0.00, -1.00, 287.5, 6.0)"> </text><text xml:space="preserve" font-family="Palatino-Roman" font-size="17.0" fill="#324763" transform="matrix(1.00, 0.00, -0.00, -1.00, 291.1, 6.0)">A</text><text xml:space="preserve" font-family="Palatino-Roman" font-size="17.0" fill="#324763" transform="matrix(1.00, 0.00, -0.00, -1.00, 304.4, 6.0)">n</text><text xml:space="preserve" font-family="Palatino-Roman" font-size="17.0" fill="#324763" transform="matrix(1.00, 0.00, -0.00, -1.00, 314.3, 6.0)">a</text><text xml:space="preserve" font-family="Palatino-Roman" font-size="17.0" fill="#324763" transform="matrix(1.00, 0.00, -0.00, -1.00, 322.8, 6.0)">l</text><text xml:space="preserve" font-family="Palatino-Roman" font-size="17.0" fill="#324763" transform="matrix(1.00, 0.00, -0.00, -1.00, 327.7, 6.0)">y</text><text xml:space="preserve" font-family="Palatino-Roman" font-size="17.0" fill="#324763" transform="matrix(1.00, 0.00, -0.00, -1.00, 337.2, 6.0)">z</text><text xml:space="preserve" font-family="Palatino-Roman" font-size="17.0" fill="#324763" transform="matrix(1.00, 0.00, -0.00, -1.00, 345.7, 6.0)">e</text><text xml:space="preserve" font-family="Palatino-Roman" font-size="17.0" fill="#324763" transform="matrix(1.00, 0.00, -0.00, -1.00, 353.8, 6.0)">d</text><text xml:space="preserve" font-family="Palatino-Roman" font-size="17.0" fill="#324763" transform="matrix(1.00, 0.00, -0.00, -1.00, 364.2, 6.0)"> </text><text xml:space="preserve" font-family="Palatino-Roman" font-size="17.0" fill="#324763" transform="matrix(1.00, 0.00, -0.00, -1.00, 368.4, 6.0)">H</text><text xml:space="preserve" font-family="Palatino-Roman" font-size="17.0" fill="#324763" transform="matrix(1.00, 0.00, -0.00, -1.00, 382.6, 6.0)">o</text><text xml:space="preserve" font-family="Palatino-Roman" font-size="17.0" fill="#324763" transform="matrix(1.00, 0.00, -0.00, -1.00, 391.9, 6.0)">w</text><text xml:space="preserve" font-family="Palatino-Roman" font-size="17.0" fill="#324763" transform="matrix(1.00, 0.00, -0.00, -1.00, 406.0, 6.0)"> </text><text xml:space="preserve" font-family="Palatino-Roman" font-size="17.0" fill="#324763" transform="matrix(1.00, 0.00, -0.00, -1.00, 410.3, 6.0)">D</text><text xml:space="preserve" font-family="Palatino-Roman" font-size="17.0" fill="#324763" transform="matrix(1.00, 0.00, -0.00, -1.00, 423.4, 6.0)">i</text><text xml:space="preserve" font-family="Palatino-Roman" font-size="17.0" fill="#324763" transform="matrix(1.00, 0.00, -0.00, -1.00, 428.4, 6.0)">f</text><text xml:space="preserve" font-family="Palatino-Roman" font-size="17.0" fill="#324763" transform="matrix(1.00, 0.00, -0.00, -1.00, 433.7, 6.0)">f</text><text xml:space="preserve" font-family="Palatino-Roman" font-size="17.0" fill="#324763" transform="matrix(1.00, 0.00, -0.00, -1.00, 439.4, 6.0)">e</text><text xml:space="preserve" font-family="Palatino-Roman" font-size="17.0" fill="#324763" transform="matrix(1.00, 0.00, -0.00, -1.00, 447.6, 6.0)">r</text><text xml:space="preserve" font-family="Palatino-Roman" font-size="17.0" fill="#324763" transform="matrix(1.00, 0.00, -0.00, -1.00, 454.0, 6.0)">e</text><text xml:space="preserve" font-family="Palatino-Roman" font-size="17.0" fill="#324763" transform="matrix(1.00, 0.00, -0.00, -1.00, 462.1, 6.0)">n</text><text xml:space="preserve" font-family="Palatino-Roman" font-size="17.0" fill="#324763" transform="matrix(1.00, 0.00, -0.00, -1.00, 472.0, 6.0)">t</text><text xml:space="preserve" font-family="Palatino-Roman" font-size="17.0" fill="#324763" transform="matrix(1.00, 0.00, -0.00, -1.00, 477.6, 6.0)">l</text><text xml:space="preserve" font-family="Palatino-Roman" font-size="17.0" fill="#324763" transform="matrix(1.00, 0.00, -0.00, -1.00, 482.5, 6.0)">y</text><text xml:space="preserve" font-family="Palatino-Roman" font-size="17.0" fill="#324763" transform="matrix(1.00, 0.00, -0.00, -1.00, 492.0, 6.0)"> </text><text xml:space="preserve" font-family="Palatino-Roman" font-size="17.0" fill="#324763" transform="matrix(1.00, 0.00, -0.00, -1.00, 496.2, 6.0)">T</text><text xml:space="preserve" font-family="Palatino-Roman" font-size="17.0" fill="#324763" transform="matrix(1.00, 0.00, -0.00, -1.00, 506.6, 6.0)">h</text><text xml:space="preserve" font-family="Palatino-Roman" font-size="17.0" fill="#324763" transform="matrix(1.00, 0.00, -0.00, -1.00, 516.5, 6.0)">e</text><text xml:space="preserve" font-family="Palatino-Roman" font-size="17.0" fill="#324763" transform="matrix(1.00, 0.00, -0.00, -1.00, 524.7, 6.0)">y</text><text xml:space="preserve" font-family="Palatino-Roman" font-size="17.0" fill="#324763" transform="matrix(1.00, 0.00, -0.00, -1.00, 534.1, 6.0)"> </text><text xml:space="preserve" font-family="Palatino-Roman" font-size="17.0" fill="#324763" transform="matrix(1.00, 0.00, -0.00, -1.00, 538.4, 6.0)">T</text><text xml:space="preserve" font-family="Palatino-Roman" font-size="17.0" fill="#324763" transform="matrix(1.00, 0.00, -0.00, -1.00, 547.2, 6.0)">a</text><text xml:space="preserve" font-family="Palatino-Roman" font-size="17.0" fill="#324763" transform="matrix(1.00, 0.00, -0.00, -1.00, 555.7, 6.0)">l</text><text xml:space="preserve" font-family="Palatino-Roman" font-size="17.0" fill="#324763" transform="matrix(1.00, 0.00, -0.00, -1.00, 560.7, 6.0)">k</text><text xml:space="preserve" font-family="Palatino-Roman" font-size="17.0" fill="#324763" transform="matrix(1.00, 0.00, -0.00, -1.00, 570.1, 6.0)"> </text><text xml:space="preserve" font-family="Palatino-Roman" font-size="17.0" fill="#324763" transform="matrix(1.00, 0.00, -0.00, -1.00, 573.8, 6.0)">A</text><text xml:space="preserve" font-family="Palatino-Roman" font-size="17.0" fill="#324763" transform="matrix(1.00, 0.00, -0.00, -1.00, 587.0, 6.0)">b</text><text xml:space="preserve" font-family="Palatino-Roman" font-size="17.0" fill="#324763" transform="matrix(1.00, 0.00, -0.00, -1.00, 596.4, 6.0)">o</text><text xml:space="preserve" font-family="Palatino-Roman" font-size="17.0" fill="#324763" transform="matrix(1.00, 0.00, -0.00, -1.00, 605.7, 6.0)">u</text><text xml:space="preserve" font-family="Palatino-Roman" font-size="17.0" fill="#324763" transform="matrix(1.00, 0.00, -0.00, -1.00, 615.9, 6.0)">t</text><text xml:space="preserve" font-family="Palatino-Roman" font-size="17.0" fill="#324763" transform="matrix(1.00, 0.00, -0.00, -1.00, 621.5, 6.0)"> </text><text xml:space="preserve" font-family="Palatino-Roman" font-size="17.0" fill="#324763" transform="matrix(1.00, 0.00, -0.00, -1.00, 625.7, 6.0)">F</text><text xml:space="preserve" font-family="Palatino-Roman" font-size="17.0" fill="#324763" transform="matrix(1.00, 0.00, -0.00, -1.00, 635.2, 6.0)">e</text><text xml:space="preserve" font-family="Palatino-Roman" font-size="17.0" fill="#324763" transform="matrix(1.00, 0.00, -0.00, -1.00, 643.3, 6.0)">m</text><text xml:space="preserve" font-family="Palatino-Roman" font-size="17.0" fill="#324763" transform="matrix(1.00, 0.00, -0.00, -1.00, 658.3, 6.0)">a</text><text xml:space="preserve" font-family="Palatino-Roman" font-size="17.0" fill="#324763" transform="matrix(1.00, 0.00, -0.00, -1.00, 666.8, 6.0)">l</text><text xml:space="preserve" font-family="Palatino-Roman" font-size="17.0" fill="#324763" transform="matrix(1.00, 0.00, -0.00, -1.00, 671.8, 6.0)">e</text><text xml:space="preserve" font-family="Palatino-Roman" font-size="17.0" fill="#324763" transform="matrix(1.00, 0.00, -0.00, -1.00, 679.9, 6.0)"> </text><text xml:space="preserve" font-family="Palatino-Roman" font-size="17.0" fill="#324763" transform="matrix(1.00, 0.00, -0.00, -1.00, 684.2, 6.0)">E</text><text xml:space="preserve" font-family="Palatino-Roman" font-size="17.0" fill="#324763" transform="matrix(1.00, 0.00, -0.00, -1.00, 694.5, 6.0)">n</text><text xml:space="preserve" font-family="Palatino-Roman" font-size="17.0" fill="#324763" transform="matrix(1.00, 0.00, -0.00, -1.00, 704.4, 6.0)">t</text><text xml:space="preserve" font-family="Palatino-Roman" font-size="17.0" fill="#324763" transform="matrix(1.00, 0.00, -0.00, -1.00, 710.0, 6.0)">r</text><text xml:space="preserve" font-family="Palatino-Roman" font-size="17.0" fill="#324763" transform="matrix(1.00, 0.00, -0.00, -1.00, 716.4, 6.0)">e</text><text xml:space="preserve" font-family="Palatino-Roman" font-size="17.0" fill="#324763" transform="matrix(1.00, 0.00, -0.00, -1.00, 724.5, 6.0)">p</text><text xml:space="preserve" font-family="Palatino-Roman" font-size="17.0" fill="#324763" transform="matrix(1.00, 0.00, -0.00, -1.00, 734.8, 6.0)">r</text><text xml:space="preserve" font-family="Palatino-Roman" font-size="17.0" fill="#324763" transform="matrix(1.00, 0.00, -0.00, -1.00, 741.2, 6.0)">e</text><text xml:space="preserve" font-family="Palatino-Roman" font-size="17.0" fill="#324763" transform="matrix(1.00, 0.00, -0.00, -1.00, 749.3, 6.0)">n</text><text xml:space="preserve" font-family="Palatino-Roman" font-size="17.0" fill="#324763" transform="matrix(1.00, 0.00, -0.00, -1.00, 759.2, 6.0)">e</text><text xml:space="preserve" font-family="Palatino-Roman" font-size="17.0" fill="#324763" transform="matrix(1.00, 0.00, -0.00, -1.00, 767.4, 6.0)">u</text><text xml:space="preserve" font-family="Palatino-Roman" font-size="17.0" fill="#324763" transform="matrix(1.00, 0.00, -0.00, -1.00, 777.6, 6.0)">r</text><text xml:space="preserve" font-family="Palatino-Roman" font-size="17.0" fill="#324763" transform="matrix(1.00, 0.00, -0.00, -1.00, 784.3, 6.0)">s</text><g><clipPath id="clip-880"><path d="M 1.2 3.0 L 791.7 3.0 L 791.7 6.0 L 1.2 6.0 Z M 1.2 3.0 "></path></clipPath><g clip-path="url(#clip-880)"><path d="M 4.5 24.0 L 794.1 24.0 " fill="none" stroke="#324763" stroke-width="1.00" stroke-miterlimit="0.00" transform="matrix(1.00, 0.00, 0.00, -1.00, -2.3, 28.5)"></path></g></g></g></svg>