<?xml version="1.0" encoding="UTF-8" standalone="no"?><svg xmlns="http://www.w3.org/2000/svg" xmlns:xlink="http://www.w3.org/1999/xlink" clip-rule="evenodd" stroke-miterlimit="4.00" viewBox="0 0 1024 768"><desc>SVG generated by Keynote</desc><defs></defs><g transform="matrix(1.00, 0.00, -0.00, -1.00, 0.0, 768.0)"><g><clipPath id="clip-895"><path d="M 0.0 768.0 L 1024.0 768.0 L 1024.0 0.0 L 0.0 0.0 Z M 0.0 768.0 "></path></clipPath><g clip-path="url(#clip-895)"><image xlink:href="../../2DDB5E14-E941-4539-BC0B-5168CEFF0FD6/assets/3FBB98853A833B6E3BBFA0AF677D3F24.jpeg" width="1024.00" height="768.00" transform="matrix(1.00, 0.00, -0.00, -1.00, 0.0, 768.0)"></image></g></g><text xml:space="preserve" font-family="Palatino-Roman" font-size="49.0" fill="#000000" transform="matrix(1.00, 0.00, -0.00, -1.00, 100.0, 419.0)">I</text><text xml:space="preserve" font-family="Palatino-Roman" font-size="49.0" fill="#000000" transform="matrix(1.00, 0.00, -0.00, -1.00, 116.5, 419.0)">f</text><text xml:space="preserve" font-family="Palatino-Roman" font-size="49.0" fill="#000000" transform="matrix(1.00, 0.00, -0.00, -1.00, 132.8, 419.0)"> </text><text xml:space="preserve" font-family="Palatino-Roman" font-size="49.0" fill="#000000" transform="matrix(1.00, 0.00, -0.00, -1.00, 145.1, 419.0)">y</text><text xml:space="preserve" font-family="Palatino-Roman" font-size="49.0" fill="#000000" transform="matrix(1.00, 0.00, -0.00, -1.00, 172.3, 419.0)">o</text><text xml:space="preserve" font-family="Palatino-Roman" font-size="49.0" fill="#000000" transform="matrix(1.00, 0.00, -0.00, -1.00, 199.1, 419.0)">u</text><text xml:space="preserve" font-family="Palatino-Roman" font-size="49.0" fill="#000000" transform="matrix(1.00, 0.00, -0.00, -1.00, 228.6, 419.0)"> </text><text xml:space="preserve" font-family="Palatino-Roman" font-size="49.0" fill="#000000" transform="matrix(1.00, 0.00, -0.00, -1.00, 240.9, 419.0)">a</text><text xml:space="preserve" font-family="Palatino-Roman" font-size="49.0" fill="#000000" transform="matrix(1.00, 0.00, -0.00, -1.00, 265.4, 419.0)">r</text><text xml:space="preserve" font-family="Palatino-Roman" font-size="49.0" fill="#000000" transform="matrix(1.00, 0.00, -0.00, -1.00, 283.9, 419.0)">e</text><text xml:space="preserve" font-family="Palatino-Roman" font-size="49.0" fill="#000000" transform="matrix(1.00, 0.00, -0.00, -1.00, 307.3, 419.0)"> </text><text xml:space="preserve" font-family="Palatino-Roman" font-size="49.0" fill="#000000" transform="matrix(1.00, 0.00, -0.00, -1.00, 319.6, 419.0)">d</text><text xml:space="preserve" font-family="Palatino-Roman" font-size="49.0" fill="#000000" transform="matrix(1.00, 0.00, -0.00, -1.00, 349.5, 419.0)">o</text><text xml:space="preserve" font-family="Palatino-Roman" font-size="49.0" fill="#000000" transform="matrix(1.00, 0.00, -0.00, -1.00, 376.3, 419.0)">i</text><text xml:space="preserve" font-family="Palatino-Roman" font-size="49.0" fill="#000000" transform="matrix(1.00, 0.00, -0.00, -1.00, 390.5, 419.0)">n</text><text xml:space="preserve" font-family="Palatino-Roman" font-size="49.0" fill="#000000" transform="matrix(1.00, 0.00, -0.00, -1.00, 419.0, 419.0)">g</text><text xml:space="preserve" font-family="Palatino-Roman" font-size="49.0" fill="#000000" transform="matrix(1.00, 0.00, -0.00, -1.00, 446.3, 419.0)"> </text><text xml:space="preserve" font-family="Palatino-Roman" font-size="49.0" fill="#000000" transform="matrix(1.00, 0.00, -0.00, -1.00, 458.5, 419.0)">i</text><text xml:space="preserve" font-family="Palatino-Roman" font-size="49.0" fill="#000000" transform="matrix(1.00, 0.00, -0.00, -1.00, 472.8, 419.0)">t</text><text xml:space="preserve" font-family="Palatino-Roman" font-size="49.0" fill="#000000" transform="matrix(1.00, 0.00, -0.00, -1.00, 488.8, 419.0)"> </text><text xml:space="preserve" font-family="Palatino-Roman" font-size="49.0" fill="#000000" transform="matrix(1.00, 0.00, -0.00, -1.00, 501.0, 419.0)">s</text><text xml:space="preserve" font-family="Palatino-Roman" font-size="49.0" fill="#000000" transform="matrix(1.00, 0.00, -0.00, -1.00, 521.8, 419.0)">o</text><text xml:space="preserve" font-family="Palatino-Roman" font-size="49.0" fill="#000000" transform="matrix(1.00, 0.00, -0.00, -1.00, 548.5, 419.0)">l</text><text xml:space="preserve" font-family="Palatino-Roman" font-size="49.0" fill="#000000" transform="matrix(1.00, 0.00, -0.00, -1.00, 562.8, 419.0)">e</text><text xml:space="preserve" font-family="Palatino-Roman" font-size="49.0" fill="#000000" transform="matrix(1.00, 0.00, -0.00, -1.00, 586.3, 419.0)">l</text><text xml:space="preserve" font-family="Palatino-Roman" font-size="49.0" fill="#000000" transform="matrix(1.00, 0.00, -0.00, -1.00, 600.5, 419.0)">y</text><text xml:space="preserve" font-family="Palatino-Roman" font-size="49.0" fill="#000000" transform="matrix(1.00, 0.00, -0.00, -1.00, 627.8, 419.0)"> </text><text xml:space="preserve" font-family="Palatino-Roman" font-size="49.0" fill="#000000" transform="matrix(1.00, 0.00, -0.00, -1.00, 640.1, 419.0)">b</text><text xml:space="preserve" font-family="Palatino-Roman" font-size="49.0" fill="#000000" transform="matrix(1.00, 0.00, -0.00, -1.00, 667.2, 419.0)">e</text><text xml:space="preserve" font-family="Palatino-Roman" font-size="49.0" fill="#000000" transform="matrix(1.00, 0.00, -0.00, -1.00, 690.6, 419.0)">c</text><text xml:space="preserve" font-family="Palatino-Roman" font-size="49.0" fill="#000000" transform="matrix(1.00, 0.00, -0.00, -1.00, 712.4, 419.0)">a</text><text xml:space="preserve" font-family="Palatino-Roman" font-size="49.0" fill="#000000" transform="matrix(1.00, 0.00, -0.00, -1.00, 736.9, 419.0)">u</text><text xml:space="preserve" font-family="Palatino-Roman" font-size="49.0" fill="#000000" transform="matrix(1.00, 0.00, -0.00, -1.00, 766.4, 419.0)">s</text><text xml:space="preserve" font-family="Palatino-Roman" font-size="49.0" fill="#000000" transform="matrix(1.00, 0.00, -0.00, -1.00, 787.2, 419.0)">e</text><text xml:space="preserve" font-family="Palatino-Roman" font-size="49.0" fill="#000000" transform="matrix(1.00, 0.00, -0.00, -1.00, 810.7, 419.0)"> </text><text xml:space="preserve" font-family="Palatino-Roman" font-size="49.0" fill="#000000" transform="matrix(1.00, 0.00, -0.00, -1.00, 822.9, 419.0)">i</text><text xml:space="preserve" font-family="Palatino-Roman" font-size="49.0" fill="#000000" transform="matrix(1.00, 0.00, -0.00, -1.00, 837.2, 419.0)">t</text><text xml:space="preserve" font-family="Palatino-Roman" font-size="49.0" fill="#000000" transform="matrix(1.00, 0.00, -0.00, -1.00, 853.2, 419.0)">’</text><text xml:space="preserve" font-family="Palatino-Roman" font-size="49.0" fill="#000000" transform="matrix(1.00, 0.00, -0.00, -1.00, 866.8, 419.0)">s</text><text xml:space="preserve" font-family="Palatino-Roman" font-size="49.0" fill="#000000" transform="matrix(1.00, 0.00, -0.00, -1.00, 887.5, 419.0)"> </text><text xml:space="preserve" font-family="Palatino-Roman" font-size="49.0" fill="#000000" transform="matrix(1.00, 0.00, -0.00, -1.00, 899.8, 419.0)">a</text><text xml:space="preserve" font-family="Palatino-Roman" font-size="49.0" fill="#000000" transform="matrix(1.00, 0.00, -0.00, -1.00, 924.3, 419.0)"> </text><text xml:space="preserve" font-family="Palatino-Roman" font-size="49.0" fill="#000000" transform="matrix(1.00, 0.00, -0.00, -1.00, 144.0, 354.0)">g</text><text xml:space="preserve" font-family="Palatino-Roman" font-size="49.0" fill="#000000" transform="matrix(1.00, 0.00, -0.00, -1.00, 171.3, 354.0)">o</text><text xml:space="preserve" font-family="Palatino-Roman" font-size="49.0" fill="#000000" transform="matrix(1.00, 0.00, -0.00, -1.00, 198.0, 354.0)">o</text><text xml:space="preserve" font-family="Palatino-Roman" font-size="49.0" fill="#000000" transform="matrix(1.00, 0.00, -0.00, -1.00, 224.7, 354.0)">d</text><text xml:space="preserve" font-family="Palatino-Roman" font-size="49.0" fill="#000000" transform="matrix(1.00, 0.00, -0.00, -1.00, 254.7, 354.0)"> </text><text xml:space="preserve" font-family="Palatino-Roman" font-size="49.0" fill="#000000" transform="matrix(1.00, 0.00, -0.00, -1.00, 266.9, 354.0)">j</text><text xml:space="preserve" font-family="Palatino-Roman" font-size="49.0" fill="#000000" transform="matrix(1.00, 0.00, -0.00, -1.00, 278.4, 354.0)">o</text><text xml:space="preserve" font-family="Palatino-Roman" font-size="49.0" fill="#000000" transform="matrix(1.00, 0.00, -0.00, -1.00, 305.1, 354.0)">b</text><text xml:space="preserve" font-family="Palatino-Roman" font-size="49.0" fill="#000000" transform="matrix(1.00, 0.00, -0.00, -1.00, 332.2, 354.0)">,</text><text xml:space="preserve" font-family="Palatino-Roman" font-size="49.0" fill="#000000" transform="matrix(1.00, 0.00, -0.00, -1.00, 344.5, 354.0)"> </text><text xml:space="preserve" font-family="Palatino-Roman" font-size="49.0" fill="#000000" transform="matrix(1.00, 0.00, -0.00, -1.00, 356.7, 354.0)">t</text><text xml:space="preserve" font-family="Palatino-Roman" font-size="49.0" fill="#000000" transform="matrix(1.00, 0.00, -0.00, -1.00, 372.7, 354.0)">h</text><text xml:space="preserve" font-family="Palatino-Roman" font-size="49.0" fill="#000000" transform="matrix(1.00, 0.00, -0.00, -1.00, 401.2, 354.0)">e</text><text xml:space="preserve" font-family="Palatino-Roman" font-size="49.0" fill="#000000" transform="matrix(1.00, 0.00, -0.00, -1.00, 424.7, 354.0)">n</text><text xml:space="preserve" font-family="Palatino-Roman" font-size="49.0" fill="#000000" transform="matrix(1.00, 0.00, -0.00, -1.00, 453.2, 354.0)"> </text><text xml:space="preserve" font-family="Palatino-Roman" font-size="49.0" fill="#000000" transform="matrix(1.00, 0.00, -0.00, -1.00, 465.5, 354.0)">y</text><text xml:space="preserve" font-family="Palatino-Roman" font-size="49.0" fill="#000000" transform="matrix(1.00, 0.00, -0.00, -1.00, 492.8, 354.0)">o</text><text xml:space="preserve" font-family="Palatino-Roman" font-size="49.0" fill="#000000" transform="matrix(1.00, 0.00, -0.00, -1.00, 519.5, 354.0)">u</text><text xml:space="preserve" font-family="Palatino-Roman" font-size="49.0" fill="#000000" transform="matrix(1.00, 0.00, -0.00, -1.00, 549.0, 354.0)"> </text><text xml:space="preserve" font-family="Palatino-Roman" font-size="49.0" fill="#000000" transform="matrix(1.00, 0.00, -0.00, -1.00, 561.3, 354.0)">s</text><text xml:space="preserve" font-family="Palatino-Roman" font-size="49.0" fill="#000000" transform="matrix(1.00, 0.00, -0.00, -1.00, 582.1, 354.0)">h</text><text xml:space="preserve" font-family="Palatino-Roman" font-size="49.0" fill="#000000" transform="matrix(1.00, 0.00, -0.00, -1.00, 610.6, 354.0)">o</text><text xml:space="preserve" font-family="Palatino-Roman" font-size="49.0" fill="#000000" transform="matrix(1.00, 0.00, -0.00, -1.00, 637.3, 354.0)">u</text><text xml:space="preserve" font-family="Palatino-Roman" font-size="49.0" fill="#000000" transform="matrix(1.00, 0.00, -0.00, -1.00, 666.9, 354.0)">l</text><text xml:space="preserve" font-family="Palatino-Roman" font-size="49.0" fill="#000000" transform="matrix(1.00, 0.00, -0.00, -1.00, 681.1, 354.0)">d</text><text xml:space="preserve" font-family="Palatino-Roman" font-size="49.0" fill="#000000" transform="matrix(1.00, 0.00, -0.00, -1.00, 711.0, 354.0)">n</text><text xml:space="preserve" font-family="Palatino-Roman" font-size="49.0" fill="#000000" transform="matrix(1.00, 0.00, -0.00, -1.00, 739.6, 354.0)">’</text><text xml:space="preserve" font-family="Palatino-Roman" font-size="49.0" fill="#000000" transform="matrix(1.00, 0.00, -0.00, -1.00, 753.2, 354.0)">t</text><text xml:space="preserve" font-family="Palatino-Roman" font-size="49.0" fill="#000000" transform="matrix(1.00, 0.00, -0.00, -1.00, 769.2, 354.0)"> </text><text xml:space="preserve" font-family="Palatino-Roman" font-size="49.0" fill="#000000" transform="matrix(1.00, 0.00, -0.00, -1.00, 781.4, 354.0)">d</text><text xml:space="preserve" font-family="Palatino-Roman" font-size="49.0" fill="#000000" transform="matrix(1.00, 0.00, -0.00, -1.00, 811.3, 354.0)">o</text><text xml:space="preserve" font-family="Palatino-Roman" font-size="49.0" fill="#000000" transform="matrix(1.00, 0.00, -0.00, -1.00, 838.1, 354.0)"> </text><text xml:space="preserve" font-family="Palatino-Roman" font-size="49.0" fill="#000000" transform="matrix(1.00, 0.00, -0.00, -1.00, 850.3, 354.0)">i</text><text xml:space="preserve" font-family="Palatino-Roman" font-size="49.0" fill="#000000" transform="matrix(1.00, 0.00, -0.00, -1.00, 864.6, 354.0)">t</text><text xml:space="preserve" font-family="Palatino-Roman" font-size="17.0" fill="#324763" transform="matrix(1.00, 0.00, -0.00, -1.00, 646.0, 24.0)">C</text><text xml:space="preserve" font-family="Palatino-Roman" font-size="17.0" fill="#324763" transform="matrix(1.00, 0.00, -0.00, -1.00, 658.1, 24.0)">o</text><text xml:space="preserve" font-family="Palatino-Roman" font-size="17.0" fill="#324763" transform="matrix(1.00, 0.00, -0.00, -1.00, 667.3, 24.0)">d</text><text xml:space="preserve" font-family="Palatino-Roman" font-size="17.0" fill="#324763" transform="matrix(1.00, 0.00, -0.00, -1.00, 677.7, 24.0)">i</text><text xml:space="preserve" font-family="Palatino-Roman" font-size="17.0" fill="#324763" transform="matrix(1.00, 0.00, -0.00, -1.00, 682.7, 24.0)">n</text><text xml:space="preserve" font-family="Palatino-Roman" font-size="17.0" fill="#324763" transform="matrix(1.00, 0.00, -0.00, -1.00, 692.6, 24.0)">g</text><text xml:space="preserve" font-family="Palatino-Roman" font-size="17.0" fill="#324763" transform="matrix(1.00, 0.00, -0.00, -1.00, 702.0, 24.0)">:</text><text xml:space="preserve" font-family="Palatino-Roman" font-size="17.0" fill="#324763" transform="matrix(1.00, 0.00, -0.00, -1.00, 706.3, 24.0)"> </text><text xml:space="preserve" font-family="Palatino-Roman" font-size="17.0" fill="#324763" transform="matrix(1.00, 0.00, -0.00, -1.00, 710.5, 24.0)">T</text><text xml:space="preserve" font-family="Palatino-Roman" font-size="17.0" fill="#324763" transform="matrix(1.00, 0.00, -0.00, -1.00, 720.9, 24.0)">h</text><text xml:space="preserve" font-family="Palatino-Roman" font-size="17.0" fill="#324763" transform="matrix(1.00, 0.00, -0.00, -1.00, 730.8, 24.0)">e</text><text xml:space="preserve" font-family="Palatino-Roman" font-size="17.0" fill="#324763" transform="matrix(1.00, 0.00, -0.00, -1.00, 739.0, 24.0)"> </text><text xml:space="preserve" font-family="Palatino-Roman" font-size="17.0" fill="#324763" transform="matrix(1.00, 0.00, -0.00, -1.00, 743.2, 24.0)">n</text><text xml:space="preserve" font-family="Palatino-Roman" font-size="17.0" fill="#324763" transform="matrix(1.00, 0.00, -0.00, -1.00, 753.1, 24.0)">e</text><text xml:space="preserve" font-family="Palatino-Roman" font-size="17.0" fill="#324763" transform="matrix(1.00, 0.00, -0.00, -1.00, 761.3, 24.0)">x</text><text xml:space="preserve" font-family="Palatino-Roman" font-size="17.0" fill="#324763" transform="matrix(1.00, 0.00, -0.00, -1.00, 770.0, 24.0)">t</text><text xml:space="preserve" font-family="Palatino-Roman" font-size="17.0" fill="#324763" transform="matrix(1.00, 0.00, -0.00, -1.00, 775.6, 24.0)"> </text><text xml:space="preserve" font-family="Palatino-Roman" font-size="17.0" fill="#324763" transform="matrix(1.00, 0.00, -0.00, -1.00, 779.8, 24.0)">b</text><text xml:space="preserve" font-family="Palatino-Roman" font-size="17.0" fill="#324763" transform="matrix(1.00, 0.00, -0.00, -1.00, 789.2, 24.0)">l</text><text xml:space="preserve" font-family="Palatino-Roman" font-size="17.0" fill="#324763" transform="matrix(1.00, 0.00, -0.00, -1.00, 794.2, 24.0)">u</text><text xml:space="preserve" font-family="Palatino-Roman" font-size="17.0" fill="#324763" transform="matrix(1.00, 0.00, -0.00, -1.00, 804.4, 24.0)">e</text><text xml:space="preserve" font-family="Palatino-Roman" font-size="17.0" fill="#324763" transform="matrix(1.00, 0.00, -0.00, -1.00, 812.6, 24.0)"> </text><text xml:space="preserve" font-family="Palatino-Roman" font-size="17.0" fill="#324763" transform="matrix(1.00, 0.00, -0.00, -1.00, 816.8, 24.0)">c</text><text xml:space="preserve" font-family="Palatino-Roman" font-size="17.0" fill="#324763" transform="matrix(1.00, 0.00, -0.00, -1.00, 824.4, 24.0)">o</text><text xml:space="preserve" font-family="Palatino-Roman" font-size="17.0" fill="#324763" transform="matrix(1.00, 0.00, -0.00, -1.00, 833.6, 24.0)">l</text><text xml:space="preserve" font-family="Palatino-Roman" font-size="17.0" fill="#324763" transform="matrix(1.00, 0.00, -0.00, -1.00, 838.6, 24.0)">l</text><text xml:space="preserve" font-family="Palatino-Roman" font-size="17.0" fill="#324763" transform="matrix(1.00, 0.00, -0.00, -1.00, 843.5, 24.0)">a</text><text xml:space="preserve" font-family="Palatino-Roman" font-size="17.0" fill="#324763" transform="matrix(1.00, 0.00, -0.00, -1.00, 852.0, 24.0)">r</text><text xml:space="preserve" font-family="Palatino-Roman" font-size="17.0" fill="#324763" transform="matrix(1.00, 0.00, -0.00, -1.00, 858.8, 24.0)"> </text><text xml:space="preserve" font-family="Palatino-Roman" font-size="17.0" fill="#324763" transform="matrix(1.00, 0.00, -0.00, -1.00, 863.0, 24.0)">j</text><text xml:space="preserve" font-family="Palatino-Roman" font-size="17.0" fill="#324763" transform="matrix(1.00, 0.00, -0.00, -1.00, 867.0, 24.0)">o</text><text xml:space="preserve" font-family="Palatino-Roman" font-size="17.0" fill="#324763" transform="matrix(1.00, 0.00, -0.00, -1.00, 876.3, 24.0)">b</text><text xml:space="preserve" font-family="Palatino-Roman" font-size="17.0" fill="#324763" transform="matrix(1.00, 0.00, -0.00, -1.00, 885.7, 24.0)">?</text><text xml:space="preserve" font-family="Palatino-Roman" font-size="17.0" fill="#324763" transform="matrix(1.00, 0.00, -0.00, -1.00, 893.2, 24.0)"> </text><text xml:space="preserve" font-family="Palatino-Roman" font-size="17.0" fill="#324763" transform="matrix(1.00, 0.00, -0.00, -1.00, 897.5, 24.0)">S</text><text xml:space="preserve" font-family="Palatino-Roman" font-size="17.0" fill="#324763" transform="matrix(1.00, 0.00, -0.00, -1.00, 906.4, 24.0)">u</text><text xml:space="preserve" font-family="Palatino-Roman" font-size="17.0" fill="#324763" transform="matrix(1.00, 0.00, -0.00, -1.00, 916.6, 24.0)">r</text><text xml:space="preserve" font-family="Palatino-Roman" font-size="17.0" fill="#324763" transform="matrix(1.00, 0.00, -0.00, -1.00, 923.0, 24.0)">e</text><text xml:space="preserve" font-family="Palatino-Roman" font-size="17.0" fill="#324763" transform="matrix(1.00, 0.00, -0.00, -1.00, 931.2, 24.0)"> </text><text xml:space="preserve" font-family="Palatino-Roman" font-size="17.0" fill="#324763" transform="matrix(1.00, 0.00, -0.00, -1.00, 935.4, 24.0)">h</text><text xml:space="preserve" font-family="Palatino-Roman" font-size="17.0" fill="#324763" transform="matrix(1.00, 0.00, -0.00, -1.00, 945.3, 24.0)">o</text><text xml:space="preserve" font-family="Palatino-Roman" font-size="17.0" fill="#324763" transform="matrix(1.00, 0.00, -0.00, -1.00, 954.6, 24.0)">p</text><text xml:space="preserve" font-family="Palatino-Roman" font-size="17.0" fill="#324763" transform="matrix(1.00, 0.00, -0.00, -1.00, 964.8, 24.0)">e</text><text xml:space="preserve" font-family="Palatino-Roman" font-size="17.0" fill="#324763" transform="matrix(1.00, 0.00, -0.00, -1.00, 973.0, 24.0)"> </text><text xml:space="preserve" font-family="Palatino-Roman" font-size="17.0" fill="#324763" transform="matrix(1.00, 0.00, -0.00, -1.00, 977.2, 24.0)">n</text><text xml:space="preserve" font-family="Palatino-Roman" font-size="17.0" fill="#324763" transform="matrix(1.00, 0.00, -0.00, -1.00, 987.1, 24.0)">o</text><text xml:space="preserve" font-family="Palatino-Roman" font-size="17.0" fill="#324763" transform="matrix(1.00, 0.00, -0.00, -1.00, 996.4, 24.0)">t</text><g><clipPath id="clip-896"><path d="M 645.0 21.0 L 1001.9 21.0 L 1001.9 24.0 L 645.0 24.0 Z M 645.0 21.0 "></path></clipPath><g clip-path="url(#clip-896)"><path d="M 4.5 24.0 L 360.5 24.0 " fill="none" stroke="#324763" stroke-width="1.00" stroke-miterlimit="0.00" transform="matrix(1.00, 0.00, 0.00, -1.00, 641.5, 46.5)"></path></g></g></g></svg>