<?xml version="1.0" encoding="UTF-8" standalone="no"?><svg xmlns="http://www.w3.org/2000/svg" xmlns:xlink="http://www.w3.org/1999/xlink" clip-rule="evenodd" stroke-miterlimit="4.00" viewBox="0 0 445 25"><desc>SVG generated by Keynote</desc><defs></defs><g transform="matrix(1.00, 0.00, -0.00, -1.00, 0.0, 25.0)"><text xml:space="preserve" font-family="Palatino-Roman" font-size="17.0" fill="#324763" transform="matrix(1.00, 0.00, -0.00, -1.00, 2.0, 6.0)">A</text><text xml:space="preserve" font-family="Palatino-Roman" font-size="17.0" fill="#324763" transform="matrix(1.00, 0.00, -0.00, -1.00, 15.2, 6.0)">n</text><text xml:space="preserve" font-family="Palatino-Roman" font-size="17.0" fill="#324763" transform="matrix(1.00, 0.00, -0.00, -1.00, 25.1, 6.0)">g</text><text xml:space="preserve" font-family="Palatino-Roman" font-size="17.0" fill="#324763" transform="matrix(1.00, 0.00, -0.00, -1.00, 34.6, 6.0)">r</text><text xml:space="preserve" font-family="Palatino-Roman" font-size="17.0" fill="#324763" transform="matrix(1.00, 0.00, -0.00, -1.00, 41.3, 6.0)">y</text><text xml:space="preserve" font-family="Palatino-Roman" font-size="17.0" fill="#324763" transform="matrix(1.00, 0.00, -0.00, -1.00, 50.7, 6.0)"> </text><text xml:space="preserve" font-family="Palatino-Roman" font-size="17.0" fill="#324763" transform="matrix(1.00, 0.00, -0.00, -1.00, 55.0, 6.0)">m</text><text xml:space="preserve" font-family="Palatino-Roman" font-size="17.0" fill="#324763" transform="matrix(1.00, 0.00, -0.00, -1.00, 70.0, 6.0)">e</text><text xml:space="preserve" font-family="Palatino-Roman" font-size="17.0" fill="#324763" transform="matrix(1.00, 0.00, -0.00, -1.00, 78.1, 6.0)">n</text><text xml:space="preserve" font-family="Palatino-Roman" font-size="17.0" fill="#324763" transform="matrix(1.00, 0.00, -0.00, -1.00, 88.0, 6.0)"> </text><text xml:space="preserve" font-family="Palatino-Roman" font-size="17.0" fill="#324763" transform="matrix(1.00, 0.00, -0.00, -1.00, 92.3, 6.0)">a</text><text xml:space="preserve" font-family="Palatino-Roman" font-size="17.0" fill="#324763" transform="matrix(1.00, 0.00, -0.00, -1.00, 100.8, 6.0)">r</text><text xml:space="preserve" font-family="Palatino-Roman" font-size="17.0" fill="#324763" transform="matrix(1.00, 0.00, -0.00, -1.00, 107.2, 6.0)">e</text><text xml:space="preserve" font-family="Palatino-Roman" font-size="17.0" fill="#324763" transform="matrix(1.00, 0.00, -0.00, -1.00, 115.3, 6.0)"> </text><text xml:space="preserve" font-family="Palatino-Roman" font-size="17.0" fill="#324763" transform="matrix(1.00, 0.00, -0.00, -1.00, 119.6, 6.0)">s</text><text xml:space="preserve" font-family="Palatino-Roman" font-size="17.0" fill="#324763" transform="matrix(1.00, 0.00, -0.00, -1.00, 126.8, 6.0)">t</text><text xml:space="preserve" font-family="Palatino-Roman" font-size="17.0" fill="#324763" transform="matrix(1.00, 0.00, -0.00, -1.00, 132.3, 6.0)">r</text><text xml:space="preserve" font-family="Palatino-Roman" font-size="17.0" fill="#324763" transform="matrix(1.00, 0.00, -0.00, -1.00, 138.8, 6.0)">o</text><text xml:space="preserve" font-family="Palatino-Roman" font-size="17.0" fill="#324763" transform="matrix(1.00, 0.00, -0.00, -1.00, 148.0, 6.0)">n</text><text xml:space="preserve" font-family="Palatino-Roman" font-size="17.0" fill="#324763" transform="matrix(1.00, 0.00, -0.00, -1.00, 157.9, 6.0)">g</text><text xml:space="preserve" font-family="Palatino-Roman" font-size="17.0" fill="#324763" transform="matrix(1.00, 0.00, -0.00, -1.00, 167.4, 6.0)">.</text><text xml:space="preserve" font-family="Palatino-Roman" font-size="17.0" fill="#324763" transform="matrix(1.00, 0.00, -0.00, -1.00, 171.6, 6.0)"> </text><text xml:space="preserve" font-family="Palatino-Roman" font-size="17.0" fill="#324763" transform="matrix(1.00, 0.00, -0.00, -1.00, 175.9, 6.0)">a</text><text xml:space="preserve" font-family="Palatino-Roman" font-size="17.0" fill="#324763" transform="matrix(1.00, 0.00, -0.00, -1.00, 184.4, 6.0)">n</text><text xml:space="preserve" font-family="Palatino-Roman" font-size="17.0" fill="#324763" transform="matrix(1.00, 0.00, -0.00, -1.00, 194.3, 6.0)">g</text><text xml:space="preserve" font-family="Palatino-Roman" font-size="17.0" fill="#324763" transform="matrix(1.00, 0.00, -0.00, -1.00, 203.7, 6.0)">r</text><text xml:space="preserve" font-family="Palatino-Roman" font-size="17.0" fill="#324763" transform="matrix(1.00, 0.00, -0.00, -1.00, 210.5, 6.0)">y</text><text xml:space="preserve" font-family="Palatino-Roman" font-size="17.0" fill="#324763" transform="matrix(1.00, 0.00, -0.00, -1.00, 219.9, 6.0)"> </text><text xml:space="preserve" font-family="Palatino-Roman" font-size="17.0" fill="#324763" transform="matrix(1.00, 0.00, -0.00, -1.00, 224.2, 6.0)">w</text><text xml:space="preserve" font-family="Palatino-Roman" font-size="17.0" fill="#324763" transform="matrix(1.00, 0.00, -0.00, -1.00, 238.3, 6.0)">o</text><text xml:space="preserve" font-family="Palatino-Roman" font-size="17.0" fill="#324763" transform="matrix(1.00, 0.00, -0.00, -1.00, 247.6, 6.0)">m</text><text xml:space="preserve" font-family="Palatino-Roman" font-size="17.0" fill="#324763" transform="matrix(1.00, 0.00, -0.00, -1.00, 262.6, 6.0)">e</text><text xml:space="preserve" font-family="Palatino-Roman" font-size="17.0" fill="#324763" transform="matrix(1.00, 0.00, -0.00, -1.00, 270.8, 6.0)">n</text><text xml:space="preserve" font-family="Palatino-Roman" font-size="17.0" fill="#324763" transform="matrix(1.00, 0.00, -0.00, -1.00, 280.7, 6.0)"> </text><text xml:space="preserve" font-family="Palatino-Roman" font-size="17.0" fill="#324763" transform="matrix(1.00, 0.00, -0.00, -1.00, 284.9, 6.0)">a</text><text xml:space="preserve" font-family="Palatino-Roman" font-size="17.0" fill="#324763" transform="matrix(1.00, 0.00, -0.00, -1.00, 293.4, 6.0)">r</text><text xml:space="preserve" font-family="Palatino-Roman" font-size="17.0" fill="#324763" transform="matrix(1.00, 0.00, -0.00, -1.00, 299.8, 6.0)">e</text><text xml:space="preserve" font-family="Palatino-Roman" font-size="17.0" fill="#324763" transform="matrix(1.00, 0.00, -0.00, -1.00, 308.0, 6.0)"> </text><text xml:space="preserve" font-family="Palatino-Roman" font-size="17.0" fill="#324763" transform="matrix(1.00, 0.00, -0.00, -1.00, 312.2, 6.0)">o</text><text xml:space="preserve" font-family="Palatino-Roman" font-size="17.0" fill="#324763" transform="matrix(1.00, 0.00, -0.00, -1.00, 321.5, 6.0)">v</text><text xml:space="preserve" font-family="Palatino-Roman" font-size="17.0" fill="#324763" transform="matrix(1.00, 0.00, -0.00, -1.00, 331.1, 6.0)">e</text><text xml:space="preserve" font-family="Palatino-Roman" font-size="17.0" fill="#324763" transform="matrix(1.00, 0.00, -0.00, -1.00, 339.3, 6.0)">r</text><text xml:space="preserve" font-family="Palatino-Roman" font-size="17.0" fill="#324763" transform="matrix(1.00, 0.00, -0.00, -1.00, 346.0, 6.0)">l</text><text xml:space="preserve" font-family="Palatino-Roman" font-size="17.0" fill="#324763" transform="matrix(1.00, 0.00, -0.00, -1.00, 350.9, 6.0)">y</text><text xml:space="preserve" font-family="Palatino-Roman" font-size="17.0" fill="#324763" transform="matrix(1.00, 0.00, -0.00, -1.00, 360.4, 6.0)"> </text><text xml:space="preserve" font-family="Palatino-Roman" font-size="17.0" fill="#324763" transform="matrix(1.00, 0.00, -0.00, -1.00, 364.6, 6.0)">e</text><text xml:space="preserve" font-family="Palatino-Roman" font-size="17.0" fill="#324763" transform="matrix(1.00, 0.00, -0.00, -1.00, 372.8, 6.0)">m</text><text xml:space="preserve" font-family="Palatino-Roman" font-size="17.0" fill="#324763" transform="matrix(1.00, 0.00, -0.00, -1.00, 387.8, 6.0)">o</text><text xml:space="preserve" font-family="Palatino-Roman" font-size="17.0" fill="#324763" transform="matrix(1.00, 0.00, -0.00, -1.00, 397.0, 6.0)">t</text><text xml:space="preserve" font-family="Palatino-Roman" font-size="17.0" fill="#324763" transform="matrix(1.00, 0.00, -0.00, -1.00, 402.6, 6.0)">i</text><text xml:space="preserve" font-family="Palatino-Roman" font-size="17.0" fill="#324763" transform="matrix(1.00, 0.00, -0.00, -1.00, 407.5, 6.0)">o</text><text xml:space="preserve" font-family="Palatino-Roman" font-size="17.0" fill="#324763" transform="matrix(1.00, 0.00, -0.00, -1.00, 416.8, 6.0)">n</text><text xml:space="preserve" font-family="Palatino-Roman" font-size="17.0" fill="#324763" transform="matrix(1.00, 0.00, -0.00, -1.00, 426.7, 6.0)">a</text><text xml:space="preserve" font-family="Palatino-Roman" font-size="17.0" fill="#324763" transform="matrix(1.00, 0.00, -0.00, -1.00, 435.2, 6.0)">l</text><text xml:space="preserve" font-family="Palatino-Roman" font-size="17.0" fill="#324763" transform="matrix(1.00, 0.00, -0.00, -1.00, 440.2, 6.0)">.</text><g><clipPath id="clip-882"><path d="M 1.2 3.0 L 444.6 3.0 L 444.6 6.0 L 1.2 6.0 Z M 1.2 3.0 "></path></clipPath><g clip-path="url(#clip-882)"><path d="M 4.5 24.0 L 446.9 24.0 " fill="none" stroke="#324763" stroke-width="1.00" stroke-miterlimit="0.00" transform="matrix(1.00, 0.00, 0.00, -1.00, -2.3, 28.5)"></path></g></g></g></svg>