<?xml version="1.0" encoding="UTF-8" standalone="no"?><svg xmlns="http://www.w3.org/2000/svg" xmlns:xlink="http://www.w3.org/1999/xlink" clip-rule="evenodd" stroke-miterlimit="4.00" viewBox="0 0 335 89"><desc>SVG generated by Keynote</desc><defs></defs><g transform="matrix(1.00, 0.00, -0.00, -1.00, 0.0, 89.0)"><g><clipPath id="clip-688"><path d="M 0.7 0.1 L 252.0 0.1 L 252.0 57.1 L 0.7 57.1 Z M 0.7 0.1 "></path></clipPath><g clip-path="url(#clip-688)"><image xlink:href="../../FE1CA0E5-5368-4CDA-849E-4B9366037C3D/assets/CEBD33BEB112DE9AE9CE4413374B9091.png" width="249.00" height="55.00" transform="matrix(1.00, 0.00, -0.00, -1.00, 1.7, 56.1)" opacity="0.50"></image><path d="M 4.7 55.1 L 248.0 55.1 L 248.0 6.1 L 4.7 6.1 Z M 4.7 55.1 " fill="#6FBF40"></path></g></g><g><clipPath id="clip-689"><path d="M 2.9 55.0 L 189.1 55.0 L 189.1 89.6 L 2.9 89.6 Z M 2.9 55.0 "></path></clipPath><g clip-path="url(#clip-689)"><text xml:space="preserve" font-family="AmericanTypewriter" font-size="20.0" fill="#000000" transform="matrix(1.00, 0.00, -0.00, -1.00, 9.0, 66.0)">J</text><text xml:space="preserve" font-family="AmericanTypewriter" font-size="20.0" fill="#000000" transform="matrix(1.00, 0.00, -0.00, -1.00, 21.4, 66.0)">a</text><text xml:space="preserve" font-family="AmericanTypewriter" font-size="20.0" fill="#000000" transform="matrix(1.00, 0.00, -0.00, -1.00, 31.9, 66.0)">v</text><text xml:space="preserve" font-family="AmericanTypewriter" font-size="20.0" fill="#000000" transform="matrix(1.00, 0.00, -0.00, -1.00, 44.0, 66.0)">a</text><text xml:space="preserve" font-family="AmericanTypewriter" font-size="20.0" fill="#000000" transform="matrix(1.00, 0.00, -0.00, -1.00, 55.2, 66.0)">S</text><text xml:space="preserve" font-family="AmericanTypewriter" font-size="20.0" fill="#000000" transform="matrix(1.00, 0.00, -0.00, -1.00, 67.6, 66.0)">c</text><text xml:space="preserve" font-family="AmericanTypewriter" font-size="20.0" fill="#000000" transform="matrix(1.00, 0.00, -0.00, -1.00, 77.8, 66.0)">r</text><text xml:space="preserve" font-family="AmericanTypewriter" font-size="20.0" fill="#000000" transform="matrix(1.00, 0.00, -0.00, -1.00, 87.6, 66.0)">i</text><text xml:space="preserve" font-family="AmericanTypewriter" font-size="20.0" fill="#000000" transform="matrix(1.00, 0.00, -0.00, -1.00, 93.8, 66.0)">p</text><text xml:space="preserve" font-family="AmericanTypewriter" font-size="20.0" fill="#000000" transform="matrix(1.00, 0.00, -0.00, -1.00, 105.8, 66.0)">t</text><text xml:space="preserve" font-family="AmericanTypewriter" font-size="20.0" fill="#000000" transform="matrix(1.00, 0.00, -0.00, -1.00, 113.8, 66.0)"> </text><text xml:space="preserve" font-family="AmericanTypewriter" font-size="20.0" fill="#000000" transform="matrix(1.00, 0.00, -0.00, -1.00, 118.8, 66.0)">e</text><text xml:space="preserve" font-family="AmericanTypewriter" font-size="20.0" fill="#000000" transform="matrix(1.00, 0.00, -0.00, -1.00, 129.4, 66.0)">n</text><text xml:space="preserve" font-family="AmericanTypewriter" font-size="20.0" fill="#000000" transform="matrix(1.00, 0.00, -0.00, -1.00, 142.1, 66.0)">g</text><text xml:space="preserve" font-family="AmericanTypewriter" font-size="20.0" fill="#000000" transform="matrix(1.00, 0.00, -0.00, -1.00, 153.1, 66.0)">i</text><text xml:space="preserve" font-family="AmericanTypewriter" font-size="20.0" fill="#000000" transform="matrix(1.00, 0.00, -0.00, -1.00, 159.3, 66.0)">n</text><text xml:space="preserve" font-family="AmericanTypewriter" font-size="20.0" fill="#000000" transform="matrix(1.00, 0.00, -0.00, -1.00, 172.0, 66.0)">e</text></g></g><g><clipPath id="clip-690"><path d="M 26.5 13.4 L 207.5 13.4 L 207.5 47.9 L 26.5 47.9 Z M 26.5 13.4 "></path></clipPath><g clip-path="url(#clip-690)"><text xml:space="preserve" font-family="AmericanTypewriter" font-size="20.0" fill="#000000" transform="matrix(1.00, 0.00, -0.00, -1.00, 33.0, 24.0)">D</text><text xml:space="preserve" font-family="AmericanTypewriter" font-size="20.0" fill="#000000" transform="matrix(1.00, 0.00, -0.00, -1.00, 47.6, 24.0)">o</text><text xml:space="preserve" font-family="AmericanTypewriter" font-size="20.0" fill="#000000" transform="matrix(1.00, 0.00, -0.00, -1.00, 58.5, 24.0)">e</text><text xml:space="preserve" font-family="AmericanTypewriter" font-size="20.0" fill="#000000" transform="matrix(1.00, 0.00, -0.00, -1.00, 69.0, 24.0)">s</text><text xml:space="preserve" font-family="AmericanTypewriter" font-size="20.0" fill="#000000" transform="matrix(1.00, 0.00, -0.00, -1.00, 78.9, 24.0)"> </text><text xml:space="preserve" font-family="AmericanTypewriter" font-size="20.0" fill="#000000" transform="matrix(1.00, 0.00, -0.00, -1.00, 83.9, 24.0)">n</text><text xml:space="preserve" font-family="AmericanTypewriter" font-size="20.0" fill="#000000" transform="matrix(1.00, 0.00, -0.00, -1.00, 96.6, 24.0)">a</text><text xml:space="preserve" font-family="AmericanTypewriter" font-size="20.0" fill="#000000" transform="matrix(1.00, 0.00, -0.00, -1.00, 107.9, 24.0)">m</text><text xml:space="preserve" font-family="AmericanTypewriter" font-size="20.0" fill="#000000" transform="matrix(1.00, 0.00, -0.00, -1.00, 126.5, 24.0)">e</text><text xml:space="preserve" font-family="AmericanTypewriter" font-size="20.0" fill="#000000" transform="matrix(1.00, 0.00, -0.00, -1.00, 137.0, 24.0)"> </text><text xml:space="preserve" font-family="AmericanTypewriter" font-size="20.0" fill="#000000" transform="matrix(1.00, 0.00, -0.00, -1.00, 142.0, 24.0)">e</text><text xml:space="preserve" font-family="AmericanTypewriter" font-size="20.0" fill="#000000" transform="matrix(1.00, 0.00, -0.00, -1.00, 152.6, 24.0)">x</text><text xml:space="preserve" font-family="AmericanTypewriter" font-size="20.0" fill="#000000" transform="matrix(1.00, 0.00, -0.00, -1.00, 165.3, 24.0)">i</text><text xml:space="preserve" font-family="AmericanTypewriter" font-size="20.0" fill="#000000" transform="matrix(1.00, 0.00, -0.00, -1.00, 171.5, 24.0)">s</text><text xml:space="preserve" font-family="AmericanTypewriter" font-size="20.0" fill="#000000" transform="matrix(1.00, 0.00, -0.00, -1.00, 181.4, 24.0)">t</text><text xml:space="preserve" font-family="AmericanTypewriter" font-size="20.0" fill="#000000" transform="matrix(1.00, 0.00, -0.00, -1.00, 189.4, 24.0)">?</text></g></g><g><clipPath id="clip-691"><path d="M 244.0 0.1 L 334.5 0.1 L 334.5 57.1 L 244.0 57.1 Z M 244.0 0.1 "></path></clipPath><g clip-path="url(#clip-691)"><image xlink:href="../../FE1CA0E5-5368-4CDA-849E-4B9366037C3D/assets/B49D6AA25ECB9C6C6B96E6A8F0817835.png" width="88.00" height="55.00" transform="matrix(1.01, 0.00, -0.00, -1.00, 245.0, 56.1)" opacity="0.50"></image><path d="M 277.7 22.8 L 277.7 6.1 L 330.5 30.6 L 277.7 55.1 L 277.7 38.5 L 248.0 38.5 L 248.0 22.8 Z M 277.7 22.8 " fill="#6FBF40"></path></g></g></g></svg>