<?xml version="1.0" encoding="UTF-8" standalone="no"?><svg xmlns="http://www.w3.org/2000/svg" xmlns:xlink="http://www.w3.org/1999/xlink" clip-rule="evenodd" stroke-miterlimit="4.00" viewBox="0 0 204 39"><desc>SVG generated by Keynote</desc><defs></defs><g transform="matrix(1.00, 0.00, -0.00, -1.00, 0.0, 39.0)"><text xml:space="preserve" font-family="AmericanTypewriter" font-size="39.0" fill="#000000" transform="matrix(1.00, 0.00, -0.00, -1.00, 6.0, 10.0)">j</text><text xml:space="preserve" font-family="AmericanTypewriter" font-size="39.0" fill="#000000" transform="matrix(1.00, 0.00, -0.00, -1.00, 17.3, 10.0)">o</text><text xml:space="preserve" font-family="AmericanTypewriter" font-size="39.0" fill="#000000" transform="matrix(1.00, 0.00, -0.00, -1.00, 38.6, 10.0)">h</text><text xml:space="preserve" font-family="AmericanTypewriter" font-size="39.0" fill="#000000" transform="matrix(1.00, 0.00, -0.00, -1.00, 63.5, 10.0)">n</text><text xml:space="preserve" font-family="AmericanTypewriter" font-size="39.0" fill="#000000" transform="matrix(1.00, 0.00, -0.00, -1.00, 88.3, 10.0)">.</text><text xml:space="preserve" font-family="AmericanTypewriter" font-size="39.0" fill="#000000" transform="matrix(1.00, 0.00, -0.00, -1.00, 99.0, 10.0)">n</text><text xml:space="preserve" font-family="AmericanTypewriter" font-size="39.0" fill="#000000" transform="matrix(1.00, 0.00, -0.00, -1.00, 123.8, 10.0)">a</text><text xml:space="preserve" font-family="AmericanTypewriter" font-size="39.0" fill="#000000" transform="matrix(1.00, 0.00, -0.00, -1.00, 145.8, 10.0)">m</text><text xml:space="preserve" font-family="AmericanTypewriter" font-size="39.0" fill="#000000" transform="matrix(1.00, 0.00, -0.00, -1.00, 182.0, 10.0)">e</text></g></svg>