<?xml version="1.0" encoding="UTF-8" standalone="no"?><svg xmlns="http://www.w3.org/2000/svg" xmlns:xlink="http://www.w3.org/1999/xlink" clip-rule="evenodd" stroke-miterlimit="4.00" viewBox="0 0 1024 768"><desc>SVG generated by Keynote</desc><defs></defs><g transform="matrix(1.00, 0.00, -0.00, -1.00, 0.0, 768.0)"><g><clipPath id="clip-801"><path d="M 0.0 768.0 L 1024.0 768.0 L 1024.0 0.0 L 0.0 0.0 Z M 0.0 768.0 "></path></clipPath><g clip-path="url(#clip-801)"><image xlink:href="../../2DDB5E14-E941-4539-BC0B-5168CEFF0FD6/assets/3FBB98853A833B6E3BBFA0AF677D3F24.jpeg" width="1024.00" height="768.00" transform="matrix(1.00, 0.00, -0.00, -1.00, 0.0, 768.0)"></image></g></g><text xml:space="preserve" font-family="Palatino-Roman" font-size="49.0" fill="#000000" transform="matrix(1.00, 0.00, -0.00, -1.00, 82.0, 386.0)">“</text><text xml:space="preserve" font-family="Palatino-Roman" font-size="49.0" fill="#000000" transform="matrix(1.00, 0.00, -0.00, -1.00, 106.5, 386.0)">T</text><text xml:space="preserve" font-family="Palatino-Roman" font-size="49.0" fill="#000000" transform="matrix(1.00, 0.00, -0.00, -1.00, 136.5, 386.0)">h</text><text xml:space="preserve" font-family="Palatino-Roman" font-size="49.0" fill="#000000" transform="matrix(1.00, 0.00, -0.00, -1.00, 165.0, 386.0)">e</text><text xml:space="preserve" font-family="Palatino-Roman" font-size="49.0" fill="#000000" transform="matrix(1.00, 0.00, -0.00, -1.00, 188.5, 386.0)"> </text><text xml:space="preserve" font-family="Palatino-Roman" font-size="49.0" fill="#000000" transform="matrix(1.00, 0.00, -0.00, -1.00, 200.8, 386.0)">n</text><text xml:space="preserve" font-family="Palatino-Roman" font-size="49.0" fill="#000000" transform="matrix(1.00, 0.00, -0.00, -1.00, 229.3, 386.0)">e</text><text xml:space="preserve" font-family="Palatino-Roman" font-size="49.0" fill="#000000" transform="matrix(1.00, 0.00, -0.00, -1.00, 252.7, 386.0)">x</text><text xml:space="preserve" font-family="Palatino-Roman" font-size="49.0" fill="#000000" transform="matrix(1.00, 0.00, -0.00, -1.00, 278.0, 386.0)">t</text><text xml:space="preserve" font-family="Palatino-Roman" font-size="49.0" fill="#000000" transform="matrix(1.00, 0.00, -0.00, -1.00, 294.0, 386.0)"> </text><text xml:space="preserve" font-family="Palatino-Roman" font-size="49.0" fill="#000000" transform="matrix(1.00, 0.00, -0.00, -1.00, 306.3, 386.0)">b</text><text xml:space="preserve" font-family="Palatino-Roman" font-size="49.0" fill="#000000" transform="matrix(1.00, 0.00, -0.00, -1.00, 333.4, 386.0)">i</text><text xml:space="preserve" font-family="Palatino-Roman" font-size="49.0" fill="#000000" transform="matrix(1.00, 0.00, -0.00, -1.00, 347.7, 386.0)">g</text><text xml:space="preserve" font-family="Palatino-Roman" font-size="49.0" fill="#000000" transform="matrix(1.00, 0.00, -0.00, -1.00, 374.9, 386.0)"> </text><text xml:space="preserve" font-family="Palatino-Roman" font-size="49.0" fill="#000000" transform="matrix(1.00, 0.00, -0.00, -1.00, 387.2, 386.0)">b</text><text xml:space="preserve" font-family="Palatino-Roman" font-size="49.0" fill="#000000" transform="matrix(1.00, 0.00, -0.00, -1.00, 414.3, 386.0)">l</text><text xml:space="preserve" font-family="Palatino-Roman" font-size="49.0" fill="#000000" transform="matrix(1.00, 0.00, -0.00, -1.00, 428.6, 386.0)">u</text><text xml:space="preserve" font-family="Palatino-Roman" font-size="49.0" fill="#000000" transform="matrix(1.00, 0.00, -0.00, -1.00, 458.1, 386.0)">e</text><text xml:space="preserve" font-family="Palatino-Roman" font-size="49.0" fill="#000000" transform="matrix(1.00, 0.00, -0.00, -1.00, 481.6, 386.0)">-</text><text xml:space="preserve" font-family="Palatino-Roman" font-size="49.0" fill="#000000" transform="matrix(1.00, 0.00, -0.00, -1.00, 497.9, 386.0)">c</text><text xml:space="preserve" font-family="Palatino-Roman" font-size="49.0" fill="#000000" transform="matrix(1.00, 0.00, -0.00, -1.00, 519.6, 386.0)">o</text><text xml:space="preserve" font-family="Palatino-Roman" font-size="49.0" fill="#000000" transform="matrix(1.00, 0.00, -0.00, -1.00, 546.4, 386.0)">l</text><text xml:space="preserve" font-family="Palatino-Roman" font-size="49.0" fill="#000000" transform="matrix(1.00, 0.00, -0.00, -1.00, 560.6, 386.0)">l</text><text xml:space="preserve" font-family="Palatino-Roman" font-size="49.0" fill="#000000" transform="matrix(1.00, 0.00, -0.00, -1.00, 574.9, 386.0)">a</text><text xml:space="preserve" font-family="Palatino-Roman" font-size="49.0" fill="#000000" transform="matrix(1.00, 0.00, -0.00, -1.00, 599.4, 386.0)">r</text><text xml:space="preserve" font-family="Palatino-Roman" font-size="49.0" fill="#000000" transform="matrix(1.00, 0.00, -0.00, -1.00, 618.7, 386.0)"> </text><text xml:space="preserve" font-family="Palatino-Roman" font-size="49.0" fill="#000000" transform="matrix(1.00, 0.00, -0.00, -1.00, 631.0, 386.0)">j</text><text xml:space="preserve" font-family="Palatino-Roman" font-size="49.0" fill="#000000" transform="matrix(1.00, 0.00, -0.00, -1.00, 642.5, 386.0)">o</text><text xml:space="preserve" font-family="Palatino-Roman" font-size="49.0" fill="#000000" transform="matrix(1.00, 0.00, -0.00, -1.00, 669.2, 386.0)">b</text><text xml:space="preserve" font-family="Palatino-Roman" font-size="49.0" fill="#000000" transform="matrix(1.00, 0.00, -0.00, -1.00, 696.3, 386.0)"> </text><text xml:space="preserve" font-family="Palatino-Roman" font-size="49.0" fill="#000000" transform="matrix(1.00, 0.00, -0.00, -1.00, 708.6, 386.0)">i</text><text xml:space="preserve" font-family="Palatino-Roman" font-size="49.0" fill="#000000" transform="matrix(1.00, 0.00, -0.00, -1.00, 722.8, 386.0)">s</text><text xml:space="preserve" font-family="Palatino-Roman" font-size="49.0" fill="#000000" transform="matrix(1.00, 0.00, -0.00, -1.00, 743.6, 386.0)"> </text><text xml:space="preserve" font-family="Palatino-Roman" font-size="49.0" fill="#000000" transform="matrix(1.00, 0.00, -0.00, -1.00, 755.8, 386.0)">c</text><text xml:space="preserve" font-family="Palatino-Roman" font-size="49.0" fill="#000000" transform="matrix(1.00, 0.00, -0.00, -1.00, 777.6, 386.0)">o</text><text xml:space="preserve" font-family="Palatino-Roman" font-size="49.0" fill="#000000" transform="matrix(1.00, 0.00, -0.00, -1.00, 804.3, 386.0)">d</text><text xml:space="preserve" font-family="Palatino-Roman" font-size="49.0" fill="#000000" transform="matrix(1.00, 0.00, -0.00, -1.00, 834.2, 386.0)">i</text><text xml:space="preserve" font-family="Palatino-Roman" font-size="49.0" fill="#000000" transform="matrix(1.00, 0.00, -0.00, -1.00, 848.5, 386.0)">n</text><text xml:space="preserve" font-family="Palatino-Roman" font-size="49.0" fill="#000000" transform="matrix(1.00, 0.00, -0.00, -1.00, 877.0, 386.0)">g</text><text xml:space="preserve" font-family="Palatino-Roman" font-size="49.0" fill="#000000" transform="matrix(1.00, 0.00, -0.00, -1.00, 904.3, 386.0)">.</text><text xml:space="preserve" font-family="Palatino-Roman" font-size="49.0" fill="#000000" transform="matrix(1.00, 0.00, -0.00, -1.00, 916.5, 386.0)">”</text><text xml:space="preserve" font-family="Palatino-Roman" font-size="49.0" fill="#000000" transform="matrix(1.00, 0.00, -0.00, -1.00, 941.0, 386.0)"> </text><text xml:space="preserve" font-family="Palatino-Italic" font-style="italic" font-size="30.0" fill="#5B86B8" transform="matrix(1.00, 0.00, -0.00, -1.00, 402.0, 297.0)">–</text><text xml:space="preserve" font-family="Palatino-Italic" font-style="italic" font-size="30.0" fill="#5B86B8" transform="matrix(1.00, 0.00, -0.00, -1.00, 417.0, 297.0)"> </text><text xml:space="preserve" font-family="Palatino-Italic" font-style="italic" font-size="30.0" fill="#5B86B8" transform="matrix(1.00, 0.00, -0.00, -1.00, 424.5, 297.0)">C</text><text xml:space="preserve" font-family="Palatino-Italic" font-style="italic" font-size="30.0" fill="#5B86B8" transform="matrix(1.00, 0.00, -0.00, -1.00, 444.5, 297.0)">l</text><text xml:space="preserve" font-family="Palatino-Italic" font-style="italic" font-size="30.0" fill="#5B86B8" transform="matrix(1.00, 0.00, -0.00, -1.00, 452.8, 297.0)">i</text><text xml:space="preserve" font-family="Palatino-Italic" font-style="italic" font-size="30.0" fill="#5B86B8" transform="matrix(1.00, 0.00, -0.00, -1.00, 461.2, 297.0)">v</text><text xml:space="preserve" font-family="Palatino-Italic" font-style="italic" font-size="30.0" fill="#5B86B8" transform="matrix(1.00, 0.00, -0.00, -1.00, 476.2, 297.0)">e</text><text xml:space="preserve" font-family="Palatino-Italic" font-style="italic" font-size="30.0" fill="#5B86B8" transform="matrix(1.00, 0.00, -0.00, -1.00, 487.8, 297.0)"> </text><text xml:space="preserve" font-family="Palatino-Italic" font-style="italic" font-size="30.0" fill="#5B86B8" transform="matrix(1.00, 0.00, -0.00, -1.00, 495.3, 297.0)">T</text><text xml:space="preserve" font-family="Palatino-Italic" font-style="italic" font-size="30.0" fill="#5B86B8" transform="matrix(1.00, 0.00, -0.00, -1.00, 513.7, 297.0)">h</text><text xml:space="preserve" font-family="Palatino-Italic" font-style="italic" font-size="30.0" fill="#5B86B8" transform="matrix(1.00, 0.00, -0.00, -1.00, 528.7, 297.0)">o</text><text xml:space="preserve" font-family="Palatino-Italic" font-style="italic" font-size="30.0" fill="#5B86B8" transform="matrix(1.00, 0.00, -0.00, -1.00, 542.0, 297.0)">m</text><text xml:space="preserve" font-family="Palatino-Italic" font-style="italic" font-size="30.0" fill="#5B86B8" transform="matrix(1.00, 0.00, -0.00, -1.00, 565.3, 297.0)">p</text><text xml:space="preserve" font-family="Palatino-Italic" font-style="italic" font-size="30.0" fill="#5B86B8" transform="matrix(1.00, 0.00, -0.00, -1.00, 580.3, 297.0)">s</text><text xml:space="preserve" font-family="Palatino-Italic" font-style="italic" font-size="30.0" fill="#5B86B8" transform="matrix(1.00, 0.00, -0.00, -1.00, 592.0, 297.0)">o</text><text xml:space="preserve" font-family="Palatino-Italic" font-style="italic" font-size="30.0" fill="#5B86B8" transform="matrix(1.00, 0.00, -0.00, -1.00, 605.3, 297.0)">n</text></g></svg>