<?xml version="1.0" encoding="UTF-8" standalone="no"?><svg xmlns="http://www.w3.org/2000/svg" xmlns:xlink="http://www.w3.org/1999/xlink" clip-rule="evenodd" stroke-miterlimit="4.00" viewBox="0 0 870 223"><desc>SVG generated by Keynote</desc><defs></defs><g transform="matrix(1.00, 0.00, -0.00, -1.00, 0.0, 223.0)"><text xml:space="preserve" font-family="Palatino-Roman" font-size="49.0" fill="#000000" transform="matrix(1.00, 0.00, -0.00, -1.00, 1.0, 183.0)">W</text><text xml:space="preserve" font-family="Palatino-Roman" font-size="49.0" fill="#000000" transform="matrix(1.00, 0.00, -0.00, -1.00, 50.0, 183.0)">h</text><text xml:space="preserve" font-family="Palatino-Roman" font-size="49.0" fill="#000000" transform="matrix(1.00, 0.00, -0.00, -1.00, 78.5, 183.0)">y</text><text xml:space="preserve" font-family="Palatino-Roman" font-size="49.0" fill="#000000" transform="matrix(1.00, 0.00, -0.00, -1.00, 105.8, 183.0)"> </text><text xml:space="preserve" font-family="Palatino-Roman" font-size="49.0" fill="#000000" transform="matrix(1.00, 0.00, -0.00, -1.00, 118.0, 183.0)">d</text><text xml:space="preserve" font-family="Palatino-Roman" font-size="49.0" fill="#000000" transform="matrix(1.00, 0.00, -0.00, -1.00, 148.0, 183.0)">o</text><text xml:space="preserve" font-family="Palatino-Roman" font-size="49.0" fill="#000000" transform="matrix(1.00, 0.00, -0.00, -1.00, 174.7, 183.0)">e</text><text xml:space="preserve" font-family="Palatino-Roman" font-size="49.0" fill="#000000" transform="matrix(1.00, 0.00, -0.00, -1.00, 198.2, 183.0)">s</text><text xml:space="preserve" font-family="Palatino-Roman" font-size="49.0" fill="#000000" transform="matrix(1.00, 0.00, -0.00, -1.00, 218.9, 183.0)">n</text><text xml:space="preserve" font-family="Palatino-Roman" font-size="49.0" fill="#000000" transform="matrix(1.00, 0.00, -0.00, -1.00, 247.4, 183.0)">’</text><text xml:space="preserve" font-family="Palatino-Roman" font-size="49.0" fill="#000000" transform="matrix(1.00, 0.00, -0.00, -1.00, 261.0, 183.0)">t</text><text xml:space="preserve" font-family="Palatino-Roman" font-size="49.0" fill="#000000" transform="matrix(1.00, 0.00, -0.00, -1.00, 277.0, 183.0)"> </text><text xml:space="preserve" font-family="Palatino-Roman" font-size="49.0" fill="#000000" transform="matrix(1.00, 0.00, -0.00, -1.00, 289.3, 183.0)">m</text><text xml:space="preserve" font-family="Palatino-Roman" font-size="49.0" fill="#000000" transform="matrix(1.00, 0.00, -0.00, -1.00, 332.5, 183.0)">y</text><text xml:space="preserve" font-family="Palatino-Roman" font-size="49.0" fill="#000000" transform="matrix(1.00, 0.00, -0.00, -1.00, 359.8, 183.0)"> </text><text xml:space="preserve" font-family="Palatino-Roman" font-size="49.0" fill="#000000" transform="matrix(1.00, 0.00, -0.00, -1.00, 372.1, 183.0)">c</text><text xml:space="preserve" font-family="Palatino-Roman" font-size="49.0" fill="#000000" transform="matrix(1.00, 0.00, -0.00, -1.00, 393.8, 183.0)">o</text><text xml:space="preserve" font-family="Palatino-Roman" font-size="49.0" fill="#000000" transform="matrix(1.00, 0.00, -0.00, -1.00, 420.5, 183.0)">d</text><text xml:space="preserve" font-family="Palatino-Roman" font-size="49.0" fill="#000000" transform="matrix(1.00, 0.00, -0.00, -1.00, 450.5, 183.0)">e</text><text xml:space="preserve" font-family="Palatino-Roman" font-size="49.0" fill="#000000" transform="matrix(1.00, 0.00, -0.00, -1.00, 473.9, 183.0)"> </text><text xml:space="preserve" font-family="Palatino-Roman" font-size="49.0" fill="#000000" transform="matrix(1.00, 0.00, -0.00, -1.00, 486.2, 183.0)">w</text><text xml:space="preserve" font-family="Palatino-Roman" font-size="49.0" fill="#000000" transform="matrix(1.00, 0.00, -0.00, -1.00, 527.0, 183.0)">o</text><text xml:space="preserve" font-family="Palatino-Roman" font-size="49.0" fill="#000000" transform="matrix(1.00, 0.00, -0.00, -1.00, 553.8, 183.0)">r</text><text xml:space="preserve" font-family="Palatino-Roman" font-size="49.0" fill="#000000" transform="matrix(1.00, 0.00, -0.00, -1.00, 573.1, 183.0)">k</text><text xml:space="preserve" font-family="Palatino-Roman" font-size="49.0" fill="#000000" transform="matrix(1.00, 0.00, -0.00, -1.00, 600.4, 183.0)">?</text><text xml:space="preserve" font-family="Palatino-Roman" font-size="49.0" fill="#000000" transform="matrix(1.00, 0.00, -0.00, -1.00, 622.1, 183.0)">?</text><text xml:space="preserve" font-family="Palatino-Roman" font-size="49.0" fill="#000000" transform="matrix(1.00, 0.00, -0.00, -1.00, 643.9, 183.0)">?</text><text xml:space="preserve" font-family="Palatino-Roman" font-size="49.0" fill="#000000" transform="matrix(1.00, 0.00, -0.00, -1.00, 665.6, 183.0)"> </text><text xml:space="preserve" font-family="Palatino-Roman" font-size="49.0" fill="#000000" transform="matrix(1.00, 0.00, -0.00, -1.00, 677.9, 183.0)">M</text><text xml:space="preserve" font-family="Palatino-Roman" font-size="49.0" fill="#000000" transform="matrix(1.00, 0.00, -0.00, -1.00, 724.2, 183.0)">y</text><text xml:space="preserve" font-family="Palatino-Roman" font-size="49.0" fill="#000000" transform="matrix(1.00, 0.00, -0.00, -1.00, 751.5, 183.0)"> </text><text xml:space="preserve" font-family="Palatino-Roman" font-size="49.0" fill="#000000" transform="matrix(1.00, 0.00, -0.00, -1.00, 763.7, 183.0)">l</text><text xml:space="preserve" font-family="Palatino-Roman" font-size="49.0" fill="#000000" transform="matrix(1.00, 0.00, -0.00, -1.00, 778.0, 183.0)">o</text><text xml:space="preserve" font-family="Palatino-Roman" font-size="49.0" fill="#000000" transform="matrix(1.00, 0.00, -0.00, -1.00, 804.7, 183.0)">g</text><text xml:space="preserve" font-family="Palatino-Roman" font-size="49.0" fill="#000000" transform="matrix(1.00, 0.00, -0.00, -1.00, 832.0, 183.0)">i</text><text xml:space="preserve" font-family="Palatino-Roman" font-size="49.0" fill="#000000" transform="matrix(1.00, 0.00, -0.00, -1.00, 846.2, 183.0)">c</text><text xml:space="preserve" font-family="Palatino-Roman" font-size="49.0" fill="#000000" transform="matrix(1.00, 0.00, -0.00, -1.00, 868.0, 183.0)"> </text><text xml:space="preserve" font-family="Palatino-Roman" font-size="49.0" fill="#000000" transform="matrix(1.00, 0.00, -0.00, -1.00, 236.0, 118.0)">i</text><text xml:space="preserve" font-family="Palatino-Roman" font-size="49.0" fill="#000000" transform="matrix(1.00, 0.00, -0.00, -1.00, 250.3, 118.0)">s</text><text xml:space="preserve" font-family="Palatino-Roman" font-size="49.0" fill="#000000" transform="matrix(1.00, 0.00, -0.00, -1.00, 271.0, 118.0)"> </text><text xml:space="preserve" font-family="Palatino-Roman" font-size="49.0" fill="#000000" transform="matrix(1.00, 0.00, -0.00, -1.00, 283.3, 118.0)">p</text><text xml:space="preserve" font-family="Palatino-Roman" font-size="49.0" fill="#000000" transform="matrix(1.00, 0.00, -0.00, -1.00, 312.7, 118.0)">e</text><text xml:space="preserve" font-family="Palatino-Roman" font-size="49.0" fill="#000000" transform="matrix(1.00, 0.00, -0.00, -1.00, 336.2, 118.0)">r</text><text xml:space="preserve" font-family="Palatino-Roman" font-size="49.0" fill="#000000" transform="matrix(1.00, 0.00, -0.00, -1.00, 355.6, 118.0)">f</text><text xml:space="preserve" font-family="Palatino-Roman" font-size="49.0" fill="#000000" transform="matrix(1.00, 0.00, -0.00, -1.00, 371.9, 118.0)">e</text><text xml:space="preserve" font-family="Palatino-Roman" font-size="49.0" fill="#000000" transform="matrix(1.00, 0.00, -0.00, -1.00, 395.3, 118.0)">c</text><text xml:space="preserve" font-family="Palatino-Roman" font-size="49.0" fill="#000000" transform="matrix(1.00, 0.00, -0.00, -1.00, 417.1, 118.0)">t</text><text xml:space="preserve" font-family="Palatino-Roman" font-size="49.0" fill="#000000" transform="matrix(1.00, 0.00, -0.00, -1.00, 433.1, 118.0)">l</text><text xml:space="preserve" font-family="Palatino-Roman" font-size="49.0" fill="#000000" transform="matrix(1.00, 0.00, -0.00, -1.00, 447.3, 118.0)">y</text><text xml:space="preserve" font-family="Palatino-Roman" font-size="49.0" fill="#000000" transform="matrix(1.00, 0.00, -0.00, -1.00, 474.6, 118.0)"> </text><text xml:space="preserve" font-family="Palatino-Roman" font-size="49.0" fill="#000000" transform="matrix(1.00, 0.00, -0.00, -1.00, 486.8, 118.0)">s</text><text xml:space="preserve" font-family="Palatino-Roman" font-size="49.0" fill="#000000" transform="matrix(1.00, 0.00, -0.00, -1.00, 507.6, 118.0)">o</text><text xml:space="preserve" font-family="Palatino-Roman" font-size="49.0" fill="#000000" transform="matrix(1.00, 0.00, -0.00, -1.00, 534.3, 118.0)">u</text><text xml:space="preserve" font-family="Palatino-Roman" font-size="49.0" fill="#000000" transform="matrix(1.00, 0.00, -0.00, -1.00, 563.9, 118.0)">n</text><text xml:space="preserve" font-family="Palatino-Roman" font-size="49.0" fill="#000000" transform="matrix(1.00, 0.00, -0.00, -1.00, 592.4, 118.0)">d</text><text xml:space="preserve" font-family="Palatino-Roman" font-size="49.0" fill="#000000" transform="matrix(1.00, 0.00, -0.00, -1.00, 622.3, 118.0)">.</text><text xml:space="preserve" font-family="Palatino-Roman" font-size="49.0" fill="#000000" transform="matrix(1.00, 0.00, -0.00, -1.00, 224.0, 15.0)">S</text><text xml:space="preserve" font-family="Palatino-Roman" font-size="49.0" fill="#000000" transform="matrix(1.00, 0.00, -0.00, -1.00, 249.7, 15.0)">t</text><text xml:space="preserve" font-family="Palatino-Roman" font-size="49.0" fill="#000000" transform="matrix(1.00, 0.00, -0.00, -1.00, 265.7, 15.0)">u</text><text xml:space="preserve" font-family="Palatino-Roman" font-size="49.0" fill="#000000" transform="matrix(1.00, 0.00, -0.00, -1.00, 295.3, 15.0)">p</text><text xml:space="preserve" font-family="Palatino-Roman" font-size="49.0" fill="#000000" transform="matrix(1.00, 0.00, -0.00, -1.00, 324.7, 15.0)">i</text><text xml:space="preserve" font-family="Palatino-Roman" font-size="49.0" fill="#000000" transform="matrix(1.00, 0.00, -0.00, -1.00, 339.0, 15.0)">d</text><text xml:space="preserve" font-family="Palatino-Roman" font-size="49.0" fill="#000000" transform="matrix(1.00, 0.00, -0.00, -1.00, 368.9, 15.0)"> </text><text xml:space="preserve" font-family="Palatino-Roman" font-size="49.0" fill="#000000" transform="matrix(1.00, 0.00, -0.00, -1.00, 381.1, 15.0)">c</text><text xml:space="preserve" font-family="Palatino-Roman" font-size="49.0" fill="#000000" transform="matrix(1.00, 0.00, -0.00, -1.00, 402.9, 15.0)">o</text><text xml:space="preserve" font-family="Palatino-Roman" font-size="49.0" fill="#000000" transform="matrix(1.00, 0.00, -0.00, -1.00, 429.6, 15.0)">m</text><text xml:space="preserve" font-family="Palatino-Roman" font-size="49.0" fill="#000000" transform="matrix(1.00, 0.00, -0.00, -1.00, 472.9, 15.0)">p</text><text xml:space="preserve" font-family="Palatino-Roman" font-size="49.0" fill="#000000" transform="matrix(1.00, 0.00, -0.00, -1.00, 502.3, 15.0)">u</text><text xml:space="preserve" font-family="Palatino-Roman" font-size="49.0" fill="#000000" transform="matrix(1.00, 0.00, -0.00, -1.00, 531.9, 15.0)">t</text><text xml:space="preserve" font-family="Palatino-Roman" font-size="49.0" fill="#000000" transform="matrix(1.00, 0.00, -0.00, -1.00, 547.9, 15.0)">e</text><text xml:space="preserve" font-family="Palatino-Roman" font-size="49.0" fill="#000000" transform="matrix(1.00, 0.00, -0.00, -1.00, 571.3, 15.0)">r</text><text xml:space="preserve" font-family="Palatino-Roman" font-size="49.0" fill="#000000" transform="matrix(1.00, 0.00, -0.00, -1.00, 590.7, 15.0)">!</text><text xml:space="preserve" font-family="Palatino-Roman" font-size="49.0" fill="#000000" transform="matrix(1.00, 0.00, -0.00, -1.00, 604.3, 15.0)">!</text><text xml:space="preserve" font-family="Palatino-Roman" font-size="49.0" fill="#000000" transform="matrix(1.00, 0.00, -0.00, -1.00, 617.9, 15.0)">!</text><text xml:space="preserve" font-family="Palatino-Roman" font-size="49.0" fill="#000000" transform="matrix(1.00, 0.00, -0.00, -1.00, 631.5, 15.0)">!</text></g></svg>