<?xml version="1.0" encoding="UTF-8" standalone="no"?><svg xmlns="http://www.w3.org/2000/svg" xmlns:xlink="http://www.w3.org/1999/xlink" clip-rule="evenodd" stroke-miterlimit="4.00" viewBox="0 0 1024 768"><desc>SVG generated by Keynote</desc><defs></defs><g transform="matrix(1.00, 0.00, -0.00, -1.00, 0.0, 768.0)"><g><clipPath id="clip-960"><path d="M 0.0 768.0 L 1024.0 768.0 L 1024.0 0.0 L 0.0 0.0 Z M 0.0 768.0 "></path></clipPath><g clip-path="url(#clip-960)"><image xlink:href="../../2DDB5E14-E941-4539-BC0B-5168CEFF0FD6/assets/3FBB98853A833B6E3BBFA0AF677D3F24.jpeg" width="1024.00" height="768.00" transform="matrix(1.00, 0.00, -0.00, -1.00, 0.0, 768.0)"></image></g></g><text xml:space="preserve" font-family="Palatino-Roman" font-size="49.0" fill="#000000" transform="matrix(1.00, 0.00, -0.00, -1.00, 388.0, 386.0)">T</text><text xml:space="preserve" font-family="Palatino-Roman" font-size="49.0" fill="#000000" transform="matrix(1.00, 0.00, -0.00, -1.00, 418.0, 386.0)">h</text><text xml:space="preserve" font-family="Palatino-Roman" font-size="49.0" fill="#000000" transform="matrix(1.00, 0.00, -0.00, -1.00, 446.5, 386.0)">a</text><text xml:space="preserve" font-family="Palatino-Roman" font-size="49.0" fill="#000000" transform="matrix(1.00, 0.00, -0.00, -1.00, 471.0, 386.0)">n</text><text xml:space="preserve" font-family="Palatino-Roman" font-size="49.0" fill="#000000" transform="matrix(1.00, 0.00, -0.00, -1.00, 499.6, 386.0)">k</text><text xml:space="preserve" font-family="Palatino-Roman" font-size="49.0" fill="#000000" transform="matrix(1.00, 0.00, -0.00, -1.00, 526.8, 386.0)"> </text><text xml:space="preserve" font-family="Palatino-Roman" font-size="49.0" fill="#000000" transform="matrix(1.00, 0.00, -0.00, -1.00, 539.1, 386.0)">y</text><text xml:space="preserve" font-family="Palatino-Roman" font-size="49.0" fill="#000000" transform="matrix(1.00, 0.00, -0.00, -1.00, 566.3, 386.0)">o</text><text xml:space="preserve" font-family="Palatino-Roman" font-size="49.0" fill="#000000" transform="matrix(1.00, 0.00, -0.00, -1.00, 593.1, 386.0)">u</text><text xml:space="preserve" font-family="Palatino-Roman" font-size="49.0" fill="#000000" transform="matrix(1.00, 0.00, -0.00, -1.00, 622.6, 386.0)">!</text><text xml:space="preserve" font-family="Palatino-Roman" font-size="30.0" fill="#324763" transform="matrix(1.00, 0.00, -0.00, -1.00, 275.0, 278.0)">h</text><text xml:space="preserve" font-family="Palatino-Roman" font-size="30.0" fill="#324763" transform="matrix(1.00, 0.00, -0.00, -1.00, 292.5, 278.0)">t</text><text xml:space="preserve" font-family="Palatino-Roman" font-size="30.0" fill="#324763" transform="matrix(1.00, 0.00, -0.00, -1.00, 302.3, 278.0)">t</text><text xml:space="preserve" font-family="Palatino-Roman" font-size="30.0" fill="#324763" transform="matrix(1.00, 0.00, -0.00, -1.00, 312.0, 278.0)">p</text><text xml:space="preserve" font-family="Palatino-Roman" font-size="30.0" fill="#324763" transform="matrix(1.00, 0.00, -0.00, -1.00, 330.1, 278.0)">s</text><text xml:space="preserve" font-family="Palatino-Roman" font-size="30.0" fill="#324763" transform="matrix(1.00, 0.00, -0.00, -1.00, 342.8, 278.0)">:</text><text xml:space="preserve" font-family="Palatino-Roman" font-size="30.0" fill="#324763" transform="matrix(1.00, 0.00, -0.00, -1.00, 350.3, 278.0)">/</text><text xml:space="preserve" font-family="Palatino-Roman" font-size="30.0" fill="#324763" transform="matrix(1.00, 0.00, -0.00, -1.00, 368.5, 278.0)">/</text><text xml:space="preserve" font-family="Palatino-Roman" font-size="30.0" fill="#324763" transform="matrix(1.00, 0.00, -0.00, -1.00, 386.6, 278.0)">g</text><text xml:space="preserve" font-family="Palatino-Roman" font-size="30.0" fill="#324763" transform="matrix(1.00, 0.00, -0.00, -1.00, 403.3, 278.0)">i</text><text xml:space="preserve" font-family="Palatino-Roman" font-size="30.0" fill="#324763" transform="matrix(1.00, 0.00, -0.00, -1.00, 412.1, 278.0)">t</text><text xml:space="preserve" font-family="Palatino-Roman" font-size="30.0" fill="#324763" transform="matrix(1.00, 0.00, -0.00, -1.00, 421.9, 278.0)">h</text><text xml:space="preserve" font-family="Palatino-Roman" font-size="30.0" fill="#324763" transform="matrix(1.00, 0.00, -0.00, -1.00, 439.3, 278.0)">u</text><text xml:space="preserve" font-family="Palatino-Roman" font-size="30.0" fill="#324763" transform="matrix(1.00, 0.00, -0.00, -1.00, 457.4, 278.0)">b</text><text xml:space="preserve" font-family="Palatino-Roman" font-size="30.0" fill="#324763" transform="matrix(1.00, 0.00, -0.00, -1.00, 474.0, 278.0)">.</text><text xml:space="preserve" font-family="Palatino-Roman" font-size="30.0" fill="#324763" transform="matrix(1.00, 0.00, -0.00, -1.00, 481.5, 278.0)">c</text><text xml:space="preserve" font-family="Palatino-Roman" font-size="30.0" fill="#324763" transform="matrix(1.00, 0.00, -0.00, -1.00, 494.8, 278.0)">o</text><text xml:space="preserve" font-family="Palatino-Roman" font-size="30.0" fill="#324763" transform="matrix(1.00, 0.00, -0.00, -1.00, 511.2, 278.0)">m</text><text xml:space="preserve" font-family="Palatino-Roman" font-size="30.0" fill="#324763" transform="matrix(1.00, 0.00, -0.00, -1.00, 537.7, 278.0)">/</text><text xml:space="preserve" font-family="Palatino-Roman" font-size="30.0" fill="#324763" transform="matrix(1.00, 0.00, -0.00, -1.00, 555.9, 278.0)">s</text><text xml:space="preserve" font-family="Palatino-Roman" font-size="30.0" fill="#324763" transform="matrix(1.00, 0.00, -0.00, -1.00, 568.6, 278.0)">t</text><text xml:space="preserve" font-family="Palatino-Roman" font-size="30.0" fill="#324763" transform="matrix(1.00, 0.00, -0.00, -1.00, 578.4, 278.0)">e</text><text xml:space="preserve" font-family="Palatino-Roman" font-size="30.0" fill="#324763" transform="matrix(1.00, 0.00, -0.00, -1.00, 592.7, 278.0)">v</text><text xml:space="preserve" font-family="Palatino-Roman" font-size="30.0" fill="#324763" transform="matrix(1.00, 0.00, -0.00, -1.00, 609.7, 278.0)">e</text><text xml:space="preserve" font-family="Palatino-Roman" font-size="30.0" fill="#324763" transform="matrix(1.00, 0.00, -0.00, -1.00, 624.0, 278.0)">b</text><text xml:space="preserve" font-family="Palatino-Roman" font-size="30.0" fill="#324763" transform="matrix(1.00, 0.00, -0.00, -1.00, 640.6, 278.0)">r</text><text xml:space="preserve" font-family="Palatino-Roman" font-size="30.0" fill="#324763" transform="matrix(1.00, 0.00, -0.00, -1.00, 652.0, 278.0)">o</text><text xml:space="preserve" font-family="Palatino-Roman" font-size="30.0" fill="#324763" transform="matrix(1.00, 0.00, -0.00, -1.00, 668.3, 278.0)">w</text><text xml:space="preserve" font-family="Palatino-Roman" font-size="30.0" fill="#324763" transform="matrix(1.00, 0.00, -0.00, -1.00, 693.4, 278.0)">n</text><text xml:space="preserve" font-family="Palatino-Roman" font-size="30.0" fill="#324763" transform="matrix(1.00, 0.00, -0.00, -1.00, 710.8, 278.0)">l</text><text xml:space="preserve" font-family="Palatino-Roman" font-size="30.0" fill="#324763" transform="matrix(1.00, 0.00, -0.00, -1.00, 719.5, 278.0)">e</text><text xml:space="preserve" font-family="Palatino-Roman" font-size="30.0" fill="#324763" transform="matrix(1.00, 0.00, -0.00, -1.00, 733.9, 278.0)">e</text></g></svg>