<?xml version="1.0" encoding="UTF-8" standalone="no"?><svg xmlns="http://www.w3.org/2000/svg" xmlns:xlink="http://www.w3.org/1999/xlink" clip-rule="evenodd" stroke-miterlimit="4.00" viewBox="0 0 1024 768"><desc>SVG generated by Keynote</desc><defs></defs><g transform="matrix(1.00, 0.00, -0.00, -1.00, 0.0, 768.0)"><path d="M 0.0 768.0 L 1024.0 768.0 L 1024.0 0.0 L 0.0 0.0 Z M 0.0 768.0 " fill="#FEFFFF"></path><image xlink:href="D4D4F729B8EAF81A708322AAAF98F979.png" width="551.00" height="540.00" transform="matrix(1.22, 0.00, -0.00, -1.22, -1.0, 659.0)"></image><text xml:space="preserve" font-family="AmericanTypewriter" font-size="88.8" fill="#000000" transform="matrix(1.00, 0.00, -0.00, -1.00, 556.0, 630.0)">O</text><text xml:space="preserve" font-family="AmericanTypewriter" font-size="88.8" fill="#000000" transform="matrix(1.00, 0.00, -0.00, -1.00, 614.2, 630.0)">L</text><text xml:space="preserve" font-family="AmericanTypewriter" font-size="88.8" fill="#000000" transform="matrix(1.00, 0.00, -0.00, -1.00, 670.8, 630.0)">O</text><text xml:space="preserve" font-family="AmericanTypewriter" font-size="88.8" fill="#000000" transform="matrix(1.00, 0.00, -0.00, -1.00, 729.0, 630.0)">O</text><path d="M 192.3 0.0 C 86.1 0.0 0.0 27.2 0.0 60.9 C -0.0 78.1 22.7 93.6 59.0 104.7 L 0.8 134.6 L 86.7 111.8 C 117.0 118.1 153.3 121.8 192.3 121.8 C 298.6 121.8 384.7 94.5 384.7 60.9 C 384.7 27.2 298.6 0.0 192.3 0.0 Z M 192.3 0.0 " fill="none" stroke="#85878C" stroke-width="2.00" transform="matrix(1.00, 0.00, 0.00, -1.00, 476.0, 722.4)"></path><text xml:space="preserve" font-family="AmericanTypewriter" font-size="32.0" fill="#000000" transform="matrix(1.00, 0.00, -0.00, -1.00, 497.0, 195.0)">O</text><text xml:space="preserve" font-family="AmericanTypewriter" font-size="32.0" fill="#000000" transform="matrix(1.00, 0.00, -0.00, -1.00, 518.0, 195.0)">b</text><text xml:space="preserve" font-family="AmericanTypewriter" font-size="32.0" fill="#000000" transform="matrix(1.00, 0.00, -0.00, -1.00, 536.0, 195.0)">j</text><text xml:space="preserve" font-family="AmericanTypewriter" font-size="32.0" fill="#000000" transform="matrix(1.00, 0.00, -0.00, -1.00, 545.3, 195.0)">e</text><text xml:space="preserve" font-family="AmericanTypewriter" font-size="32.0" fill="#000000" transform="matrix(1.00, 0.00, -0.00, -1.00, 562.2, 195.0)">c</text><text xml:space="preserve" font-family="AmericanTypewriter" font-size="32.0" fill="#000000" transform="matrix(1.00, 0.00, -0.00, -1.00, 578.5, 195.0)">t</text><text xml:space="preserve" font-family="AmericanTypewriter" font-size="32.0" fill="#000000" transform="matrix(1.00, 0.00, -0.00, -1.00, 591.3, 195.0)">s</text><text xml:space="preserve" font-family="AmericanTypewriter" font-size="32.0" fill="#000000" transform="matrix(1.00, 0.00, -0.00, -1.00, 607.1, 195.0)"> </text><text xml:space="preserve" font-family="AmericanTypewriter" font-size="32.0" fill="#000000" transform="matrix(1.00, 0.00, -0.00, -1.00, 615.1, 195.0)">l</text><text xml:space="preserve" font-family="AmericanTypewriter" font-size="32.0" fill="#000000" transform="matrix(1.00, 0.00, -0.00, -1.00, 625.0, 195.0)">i</text><text xml:space="preserve" font-family="AmericanTypewriter" font-size="32.0" fill="#000000" transform="matrix(1.00, 0.00, -0.00, -1.00, 634.9, 195.0)">n</text><text xml:space="preserve" font-family="AmericanTypewriter" font-size="32.0" fill="#000000" transform="matrix(1.00, 0.00, -0.00, -1.00, 655.3, 195.0)">k</text><text xml:space="preserve" font-family="AmericanTypewriter" font-size="32.0" fill="#000000" transform="matrix(1.00, 0.00, -0.00, -1.00, 675.1, 195.0)">i</text><text xml:space="preserve" font-family="AmericanTypewriter" font-size="32.0" fill="#000000" transform="matrix(1.00, 0.00, -0.00, -1.00, 685.0, 195.0)">n</text><text xml:space="preserve" font-family="AmericanTypewriter" font-size="32.0" fill="#000000" transform="matrix(1.00, 0.00, -0.00, -1.00, 705.4, 195.0)">g</text><text xml:space="preserve" font-family="AmericanTypewriter" font-size="32.0" fill="#000000" transform="matrix(1.00, 0.00, -0.00, -1.00, 722.9, 195.0)"> </text><text xml:space="preserve" font-family="AmericanTypewriter" font-size="32.0" fill="#000000" transform="matrix(1.00, 0.00, -0.00, -1.00, 730.9, 195.0)">t</text><text xml:space="preserve" font-family="AmericanTypewriter" font-size="32.0" fill="#000000" transform="matrix(1.00, 0.00, -0.00, -1.00, 743.7, 195.0)">o</text><text xml:space="preserve" font-family="AmericanTypewriter" font-size="32.0" fill="#000000" transform="matrix(1.00, 0.00, -0.00, -1.00, 761.1, 195.0)"> </text><text xml:space="preserve" font-family="AmericanTypewriter" font-size="32.0" fill="#000000" transform="matrix(1.00, 0.00, -0.00, -1.00, 769.1, 195.0)">o</text><text xml:space="preserve" font-family="AmericanTypewriter" font-size="32.0" fill="#000000" transform="matrix(1.00, 0.00, -0.00, -1.00, 786.6, 195.0)">t</text><text xml:space="preserve" font-family="AmericanTypewriter" font-size="32.0" fill="#000000" transform="matrix(1.00, 0.00, -0.00, -1.00, 799.4, 195.0)">h</text><text xml:space="preserve" font-family="AmericanTypewriter" font-size="32.0" fill="#000000" transform="matrix(1.00, 0.00, -0.00, -1.00, 819.8, 195.0)">e</text><text xml:space="preserve" font-family="AmericanTypewriter" font-size="32.0" fill="#000000" transform="matrix(1.00, 0.00, -0.00, -1.00, 836.7, 195.0)">r</text><text xml:space="preserve" font-family="AmericanTypewriter" font-size="32.0" fill="#000000" transform="matrix(1.00, 0.00, -0.00, -1.00, 852.4, 195.0)"> </text><text xml:space="preserve" font-family="AmericanTypewriter" font-size="32.0" fill="#000000" transform="matrix(1.00, 0.00, -0.00, -1.00, 860.4, 195.0)">o</text><text xml:space="preserve" font-family="AmericanTypewriter" font-size="32.0" fill="#000000" transform="matrix(1.00, 0.00, -0.00, -1.00, 877.9, 195.0)">b</text><text xml:space="preserve" font-family="AmericanTypewriter" font-size="32.0" fill="#000000" transform="matrix(1.00, 0.00, -0.00, -1.00, 895.9, 195.0)">j</text><text xml:space="preserve" font-family="AmericanTypewriter" font-size="32.0" fill="#000000" transform="matrix(1.00, 0.00, -0.00, -1.00, 905.2, 195.0)">e</text><text xml:space="preserve" font-family="AmericanTypewriter" font-size="32.0" fill="#000000" transform="matrix(1.00, 0.00, -0.00, -1.00, 922.1, 195.0)">c</text><text xml:space="preserve" font-family="AmericanTypewriter" font-size="32.0" fill="#000000" transform="matrix(1.00, 0.00, -0.00, -1.00, 938.4, 195.0)">t</text><text xml:space="preserve" font-family="AmericanTypewriter" font-size="32.0" fill="#000000" transform="matrix(1.00, 0.00, -0.00, -1.00, 951.2, 195.0)">s</text><text xml:space="preserve" font-family="AmericanTypewriter" font-size="32.0" fill="#000000" transform="matrix(1.00, 0.00, -0.00, -1.00, 967.0, 195.0)"> </text><text xml:space="preserve" font-family="AmericanTypewriter" font-size="32.0" fill="#000000" transform="matrix(1.00, 0.00, -0.00, -1.00, 497.0, 158.0)">v</text><text xml:space="preserve" font-family="AmericanTypewriter" font-size="32.0" fill="#000000" transform="matrix(1.00, 0.00, -0.00, -1.00, 516.2, 158.0)">i</text><text xml:space="preserve" font-family="AmericanTypewriter" font-size="32.0" fill="#000000" transform="matrix(1.00, 0.00, -0.00, -1.00, 526.2, 158.0)">a</text><text xml:space="preserve" font-family="AmericanTypewriter" font-size="32.0" fill="#000000" transform="matrix(1.00, 0.00, -0.00, -1.00, 544.2, 158.0)"> </text><text xml:space="preserve" font-family="AmericanTypewriter" font-size="32.0" fill="#000000" transform="matrix(1.00, 0.00, -0.00, -1.00, 552.2, 158.0)">t</text><text xml:space="preserve" font-family="AmericanTypewriter" font-size="32.0" fill="#000000" transform="matrix(1.00, 0.00, -0.00, -1.00, 565.0, 158.0)">h</text><text xml:space="preserve" font-family="AmericanTypewriter" font-size="32.0" fill="#000000" transform="matrix(1.00, 0.00, -0.00, -1.00, 585.4, 158.0)">e</text><text xml:space="preserve" font-family="AmericanTypewriter" font-size="32.0" fill="#000000" transform="matrix(1.00, 0.00, -0.00, -1.00, 602.3, 158.0)"> </text><text xml:space="preserve" font-family="AmericanTypewriter" font-size="32.0" fill="#000000" transform="matrix(1.00, 0.00, -0.00, -1.00, 610.3, 158.0)">J</text><text xml:space="preserve" font-family="AmericanTypewriter" font-size="32.0" fill="#000000" transform="matrix(1.00, 0.00, -0.00, -1.00, 630.1, 158.0)">a</text><text xml:space="preserve" font-family="AmericanTypewriter" font-size="32.0" fill="#000000" transform="matrix(1.00, 0.00, -0.00, -1.00, 647.0, 158.0)">v</text><text xml:space="preserve" font-family="AmericanTypewriter" font-size="32.0" fill="#000000" transform="matrix(1.00, 0.00, -0.00, -1.00, 666.2, 158.0)">a</text><text xml:space="preserve" font-family="AmericanTypewriter" font-size="32.0" fill="#000000" transform="matrix(1.00, 0.00, -0.00, -1.00, 684.3, 158.0)">S</text><text xml:space="preserve" font-family="AmericanTypewriter" font-size="32.0" fill="#000000" transform="matrix(1.00, 0.00, -0.00, -1.00, 704.1, 158.0)">c</text><text xml:space="preserve" font-family="AmericanTypewriter" font-size="32.0" fill="#000000" transform="matrix(1.00, 0.00, -0.00, -1.00, 720.4, 158.0)">r</text><text xml:space="preserve" font-family="AmericanTypewriter" font-size="32.0" fill="#000000" transform="matrix(1.00, 0.00, -0.00, -1.00, 736.1, 158.0)">i</text><text xml:space="preserve" font-family="AmericanTypewriter" font-size="32.0" fill="#000000" transform="matrix(1.00, 0.00, -0.00, -1.00, 746.0, 158.0)">p</text><text xml:space="preserve" font-family="AmericanTypewriter" font-size="32.0" fill="#000000" transform="matrix(1.00, 0.00, -0.00, -1.00, 765.2, 158.0)">t</text><text xml:space="preserve" font-family="AmericanTypewriter" font-size="32.0" fill="#000000" transform="matrix(1.00, 0.00, -0.00, -1.00, 778.0, 158.0)"> </text><text xml:space="preserve" font-family="AmericanTypewriter" font-size="32.0" fill="#000000" transform="matrix(1.00, 0.00, -0.00, -1.00, 786.0, 158.0)">p</text><text xml:space="preserve" font-family="AmericanTypewriter" font-size="32.0" fill="#000000" transform="matrix(1.00, 0.00, -0.00, -1.00, 805.2, 158.0)">r</text><text xml:space="preserve" font-family="AmericanTypewriter" font-size="32.0" fill="#000000" transform="matrix(1.00, 0.00, -0.00, -1.00, 820.9, 158.0)">o</text><text xml:space="preserve" font-family="AmericanTypewriter" font-size="32.0" fill="#000000" transform="matrix(1.00, 0.00, -0.00, -1.00, 838.4, 158.0)">t</text><text xml:space="preserve" font-family="AmericanTypewriter" font-size="32.0" fill="#000000" transform="matrix(1.00, 0.00, -0.00, -1.00, 851.2, 158.0)">o</text><text xml:space="preserve" font-family="AmericanTypewriter" font-size="32.0" fill="#000000" transform="matrix(1.00, 0.00, -0.00, -1.00, 868.7, 158.0)">t</text><text xml:space="preserve" font-family="AmericanTypewriter" font-size="32.0" fill="#000000" transform="matrix(1.00, 0.00, -0.00, -1.00, 881.5, 158.0)">y</text><text xml:space="preserve" font-family="AmericanTypewriter" font-size="32.0" fill="#000000" transform="matrix(1.00, 0.00, -0.00, -1.00, 900.7, 158.0)">p</text><text xml:space="preserve" font-family="AmericanTypewriter" font-size="32.0" fill="#000000" transform="matrix(1.00, 0.00, -0.00, -1.00, 919.9, 158.0)">e</text><text xml:space="preserve" font-family="AmericanTypewriter" font-size="32.0" fill="#000000" transform="matrix(1.00, 0.00, -0.00, -1.00, 936.8, 158.0)"> </text><text xml:space="preserve" font-family="AmericanTypewriter" font-size="32.0" fill="#000000" transform="matrix(1.00, 0.00, -0.00, -1.00, 497.0, 121.0)">c</text><text xml:space="preserve" font-family="AmericanTypewriter" font-size="32.0" fill="#000000" transform="matrix(1.00, 0.00, -0.00, -1.00, 512.9, 121.0)">h</text><text xml:space="preserve" font-family="AmericanTypewriter" font-size="32.0" fill="#000000" transform="matrix(1.00, 0.00, -0.00, -1.00, 533.3, 121.0)">a</text><text xml:space="preserve" font-family="AmericanTypewriter" font-size="32.0" fill="#000000" transform="matrix(1.00, 0.00, -0.00, -1.00, 551.3, 121.0)">i</text><text xml:space="preserve" font-family="AmericanTypewriter" font-size="32.0" fill="#000000" transform="matrix(1.00, 0.00, -0.00, -1.00, 561.3, 121.0)">n</text></g></svg>