<?xml version="1.0" encoding="UTF-8" standalone="no"?><svg xmlns="http://www.w3.org/2000/svg" xmlns:xlink="http://www.w3.org/1999/xlink" clip-rule="evenodd" stroke-miterlimit="4.00" viewBox="0 0 1024 768"><desc>SVG generated by Keynote</desc><defs></defs><g transform="matrix(1.00, 0.00, -0.00, -1.00, 0.0, 768.0)"><g><clipPath id="clip-851"><path d="M 0.0 768.0 L 1024.0 768.0 L 1024.0 0.0 L 0.0 0.0 Z M 0.0 768.0 "></path></clipPath><g clip-path="url(#clip-851)"><image xlink:href="../../2DDB5E14-E941-4539-BC0B-5168CEFF0FD6/assets/3FBB98853A833B6E3BBFA0AF677D3F24.jpeg" width="1024.00" height="768.00" transform="matrix(1.00, 0.00, -0.00, -1.00, 0.0, 768.0)"></image></g></g><text xml:space="preserve" font-family="Palatino-Roman" font-size="100.0" fill="#000000" transform="matrix(1.00, 0.00, -0.00, -1.00, 374.0, 613.0)">S</text><text xml:space="preserve" font-family="Palatino-Roman" font-size="100.0" fill="#000000" transform="matrix(1.00, 0.00, -0.00, -1.00, 426.5, 613.0)">a</text><text xml:space="preserve" font-family="Palatino-Roman" font-size="100.0" fill="#000000" transform="matrix(1.00, 0.00, -0.00, -1.00, 476.5, 613.0)">l</text><text xml:space="preserve" font-family="Palatino-Roman" font-size="100.0" fill="#000000" transform="matrix(1.00, 0.00, -0.00, -1.00, 505.6, 613.0)">a</text><text xml:space="preserve" font-family="Palatino-Roman" font-size="100.0" fill="#000000" transform="matrix(1.00, 0.00, -0.00, -1.00, 555.6, 613.0)">r</text><text xml:space="preserve" font-family="Palatino-Roman" font-size="100.0" fill="#000000" transform="matrix(1.00, 0.00, -0.00, -1.00, 595.1, 613.0)">y</text><text xml:space="preserve" font-family="Palatino-Roman" font-size="100.0" fill="#000000" transform="matrix(1.00, 0.00, -0.00, -1.00, 650.7, 613.0)"> </text><text xml:space="preserve" font-family="Palatino-Roman" font-size="100.0" fill="#000000" transform="matrix(1.00, 0.00, -0.00, -1.00, 188.0, 481.0)">N</text><text xml:space="preserve" font-family="Palatino-Roman" font-size="100.0" fill="#000000" transform="matrix(1.00, 0.00, -0.00, -1.00, 271.1, 481.0)">o</text><text xml:space="preserve" font-family="Palatino-Roman" font-size="100.0" fill="#000000" transform="matrix(1.00, 0.00, -0.00, -1.00, 325.7, 481.0)">r</text><text xml:space="preserve" font-family="Palatino-Roman" font-size="100.0" fill="#000000" transform="matrix(1.00, 0.00, -0.00, -1.00, 365.2, 481.0)">m</text><text xml:space="preserve" font-family="Palatino-Roman" font-size="100.0" fill="#000000" transform="matrix(1.00, 0.00, -0.00, -1.00, 453.5, 481.0)">a</text><text xml:space="preserve" font-family="Palatino-Roman" font-size="100.0" fill="#000000" transform="matrix(1.00, 0.00, -0.00, -1.00, 503.5, 481.0)">l</text><text xml:space="preserve" font-family="Palatino-Roman" font-size="100.0" fill="#000000" transform="matrix(1.00, 0.00, -0.00, -1.00, 532.6, 481.0)">i</text><text xml:space="preserve" font-family="Palatino-Roman" font-size="100.0" fill="#000000" transform="matrix(1.00, 0.00, -0.00, -1.00, 561.7, 481.0)">z</text><text xml:space="preserve" font-family="Palatino-Roman" font-size="100.0" fill="#000000" transform="matrix(1.00, 0.00, -0.00, -1.00, 611.7, 481.0)">a</text><text xml:space="preserve" font-family="Palatino-Roman" font-size="100.0" fill="#000000" transform="matrix(1.00, 0.00, -0.00, -1.00, 661.7, 481.0)">t</text><text xml:space="preserve" font-family="Palatino-Roman" font-size="100.0" fill="#000000" transform="matrix(1.00, 0.00, -0.00, -1.00, 694.3, 481.0)">i</text><text xml:space="preserve" font-family="Palatino-Roman" font-size="100.0" fill="#000000" transform="matrix(1.00, 0.00, -0.00, -1.00, 723.4, 481.0)">o</text><text xml:space="preserve" font-family="Palatino-Roman" font-size="100.0" fill="#000000" transform="matrix(1.00, 0.00, -0.00, -1.00, 778.0, 481.0)">n</text><image xlink:href="1DB97FACE662F109732BCB9BBA158D32.png" width="151.00" height="151.00" transform="matrix(0.00, 0.99, 0.99, -0.00, 437.0, 125.0)"></image><g><clipPath id="clip-852"><path d="M 487.9 276.2 L 601.4 276.2 L 601.4 430.4 L 487.9 430.4 Z M 487.9 276.2 "></path></clipPath><g clip-path="url(#clip-852)"><image xlink:href="060F6687DE4329618F08993218073538.png" width="114.00" height="155.00" transform="matrix(0.99, 0.00, -0.00, -0.99, 488.0, 430.0)"></image></g></g><g><clipPath id="clip-853"><path d="M 422.6 250.4 L 536.1 250.4 L 536.1 404.5 L 422.6 404.5 Z M 422.6 250.4 "></path></clipPath><g clip-path="url(#clip-853)"><image xlink:href="../../4785725B-0EE1-4B7A-996F-9DE02001BA64/assets/060F6687DE4329618F08993218073538.png" width="114.00" height="155.00" transform="matrix(0.99, 0.00, -0.00, -0.99, 423.0, 404.0)"></image></g></g><g><clipPath id="clip-854"><path d="M 446.1 233.6 L 559.5 233.6 L 559.5 387.8 L 446.1 387.8 Z M 446.1 233.6 "></path></clipPath><g clip-path="url(#clip-854)"><image xlink:href="../../4785725B-0EE1-4B7A-996F-9DE02001BA64/assets/060F6687DE4329618F08993218073538.png" width="114.00" height="155.00" transform="matrix(1.00, 0.00, -0.00, -0.99, 446.0, 388.0)"></image></g></g></g></svg>