<?xml version="1.0" encoding="UTF-8" standalone="no"?><svg xmlns="http://www.w3.org/2000/svg" xmlns:xlink="http://www.w3.org/1999/xlink" clip-rule="evenodd" stroke-miterlimit="4.00" viewBox="0 0 188 171"><desc>SVG generated by Keynote</desc><defs></defs><g transform="matrix(1.00, 0.00, -0.00, -1.00, 0.0, 171.0)"><g><clipPath id="clip-484"><path d="M 0.9 0.4 L 187.1 0.4 L 187.1 124.3 L 0.9 124.3 Z M 0.9 0.4 "></path></clipPath><g clip-path="url(#clip-484)"><path d="M 0.0 0.0 L 182.1 0.0 L 182.1 119.9 L 0.0 119.9 Z M 0.0 0.0 " fill="none" stroke="#85878C" stroke-width="2.00" transform="matrix(1.00, 0.00, 0.00, -1.00, 2.9, 122.3)"></path></g></g><g><clipPath id="clip-485"><path d="M 22.8 114.7 L 165.2 114.7 L 165.2 175.9 L 22.8 175.9 Z M 22.8 114.7 "></path></clipPath><g clip-path="url(#clip-485)"><text xml:space="preserve" font-family="AmericanTypewriter" font-size="35.0" fill="#000000" transform="matrix(1.00, 0.00, -0.00, -1.00, 33.0, 134.0)">P</text><text xml:space="preserve" font-family="AmericanTypewriter" font-size="35.0" fill="#000000" transform="matrix(1.00, 0.00, -0.00, -1.00, 54.9, 134.0)">a</text><text xml:space="preserve" font-family="AmericanTypewriter" font-size="35.0" fill="#000000" transform="matrix(1.00, 0.00, -0.00, -1.00, 74.6, 134.0)">t</text><text xml:space="preserve" font-family="AmericanTypewriter" font-size="35.0" fill="#000000" transform="matrix(1.00, 0.00, -0.00, -1.00, 88.6, 134.0)">i</text><text xml:space="preserve" font-family="AmericanTypewriter" font-size="35.0" fill="#000000" transform="matrix(1.00, 0.00, -0.00, -1.00, 99.5, 134.0)">e</text><text xml:space="preserve" font-family="AmericanTypewriter" font-size="35.0" fill="#000000" transform="matrix(1.00, 0.00, -0.00, -1.00, 117.9, 134.0)">n</text><text xml:space="preserve" font-family="AmericanTypewriter" font-size="35.0" fill="#000000" transform="matrix(1.00, 0.00, -0.00, -1.00, 140.2, 134.0)">t</text></g></g><g><clipPath id="clip-486"><path d="M 13.5 79.3 L 82.5 79.3 L 82.5 115.4 L 13.5 115.4 Z M 13.5 79.3 "></path></clipPath><g clip-path="url(#clip-486)"><text xml:space="preserve" font-family="AmericanTypewriter" font-size="21.0" fill="#000000" transform="matrix(1.00, 0.00, -0.00, -1.00, 20.0, 91.0)">n</text><text xml:space="preserve" font-family="AmericanTypewriter" font-size="21.0" fill="#000000" transform="matrix(1.00, 0.00, -0.00, -1.00, 33.4, 91.0)">a</text><text xml:space="preserve" font-family="AmericanTypewriter" font-size="21.0" fill="#000000" transform="matrix(1.00, 0.00, -0.00, -1.00, 45.2, 91.0)">m</text><text xml:space="preserve" font-family="AmericanTypewriter" font-size="21.0" fill="#000000" transform="matrix(1.00, 0.00, -0.00, -1.00, 64.7, 91.0)">e</text></g></g><g><clipPath id="clip-487"><path d="M 13.0 51.3 L 91.0 51.3 L 91.0 87.4 L 13.0 87.4 Z M 13.0 51.3 "></path></clipPath><g clip-path="url(#clip-487)"><text xml:space="preserve" font-family="AmericanTypewriter" font-size="21.0" fill="#000000" transform="matrix(1.00, 0.00, -0.00, -1.00, 20.0, 63.0)">d</text><text xml:space="preserve" font-family="AmericanTypewriter" font-size="21.0" fill="#000000" transform="matrix(1.00, 0.00, -0.00, -1.00, 32.6, 63.0)">o</text><text xml:space="preserve" font-family="AmericanTypewriter" font-size="21.0" fill="#000000" transform="matrix(1.00, 0.00, -0.00, -1.00, 44.1, 63.0)">c</text><text xml:space="preserve" font-family="AmericanTypewriter" font-size="21.0" fill="#000000" transform="matrix(1.00, 0.00, -0.00, -1.00, 54.8, 63.0)">t</text><text xml:space="preserve" font-family="AmericanTypewriter" font-size="21.0" fill="#000000" transform="matrix(1.00, 0.00, -0.00, -1.00, 63.2, 63.0)">o</text><text xml:space="preserve" font-family="AmericanTypewriter" font-size="21.0" fill="#000000" transform="matrix(1.00, 0.00, -0.00, -1.00, 74.6, 63.0)">r</text></g></g><g><clipPath id="clip-488"><path d="M 12.4 13.2 L 175.6 13.2 L 175.6 49.3 L 12.4 49.3 Z M 12.4 13.2 "></path></clipPath><g clip-path="url(#clip-488)"><text xml:space="preserve" font-family="AmericanTypewriter" font-size="21.0" fill="#000000" transform="matrix(1.00, 0.00, -0.00, -1.00, 19.0, 25.0)">t</text><text xml:space="preserve" font-family="AmericanTypewriter" font-size="21.0" fill="#000000" transform="matrix(1.00, 0.00, -0.00, -1.00, 27.4, 25.0)">r</text><text xml:space="preserve" font-family="AmericanTypewriter" font-size="21.0" fill="#000000" transform="matrix(1.00, 0.00, -0.00, -1.00, 37.7, 25.0)">e</text><text xml:space="preserve" font-family="AmericanTypewriter" font-size="21.0" fill="#000000" transform="matrix(1.00, 0.00, -0.00, -1.00, 48.8, 25.0)">a</text><text xml:space="preserve" font-family="AmericanTypewriter" font-size="21.0" fill="#000000" transform="matrix(1.00, 0.00, -0.00, -1.00, 60.6, 25.0)">t</text><text xml:space="preserve" font-family="AmericanTypewriter" font-size="21.0" fill="#000000" transform="matrix(1.00, 0.00, -0.00, -1.00, 69.0, 25.0)">A</text><text xml:space="preserve" font-family="AmericanTypewriter" font-size="21.0" fill="#000000" transform="matrix(1.00, 0.00, -0.00, -1.00, 84.7, 25.0)">i</text><text xml:space="preserve" font-family="AmericanTypewriter" font-size="21.0" fill="#000000" transform="matrix(1.00, 0.00, -0.00, -1.00, 91.2, 25.0)">l</text><text xml:space="preserve" font-family="AmericanTypewriter" font-size="21.0" fill="#000000" transform="matrix(1.00, 0.00, -0.00, -1.00, 97.7, 25.0)">m</text><text xml:space="preserve" font-family="AmericanTypewriter" font-size="21.0" fill="#000000" transform="matrix(1.00, 0.00, -0.00, -1.00, 117.2, 25.0)">e</text><text xml:space="preserve" font-family="AmericanTypewriter" font-size="21.0" fill="#000000" transform="matrix(1.00, 0.00, -0.00, -1.00, 128.3, 25.0)">n</text><text xml:space="preserve" font-family="AmericanTypewriter" font-size="21.0" fill="#000000" transform="matrix(1.00, 0.00, -0.00, -1.00, 141.7, 25.0)">t</text><text xml:space="preserve" font-family="AmericanTypewriter" font-size="21.0" fill="#000000" transform="matrix(1.00, 0.00, -0.00, -1.00, 150.1, 25.0)">(</text><text xml:space="preserve" font-family="AmericanTypewriter" font-size="21.0" fill="#000000" transform="matrix(1.00, 0.00, -0.00, -1.00, 159.6, 25.0)">)</text></g></g></g></svg>