<?xml version="1.0" encoding="UTF-8" standalone="no"?><svg xmlns="http://www.w3.org/2000/svg" xmlns:xlink="http://www.w3.org/1999/xlink" clip-rule="evenodd" stroke-miterlimit="4.00" viewBox="0 0 337 89"><desc>SVG generated by Keynote</desc><defs></defs><g transform="matrix(1.00, 0.00, -0.00, -1.00, 0.0, 89.0)"><g><clipPath id="clip-500"><path d="M 0.7 1.0 L 254.0 1.0 L 254.0 60.0 L 0.7 60.0 Z M 0.7 1.0 "></path></clipPath><g clip-path="url(#clip-500)"><image xlink:href="4D5796FC10301980E2F4F510B8BAB17D.png" width="251.00" height="57.00" transform="matrix(1.00, 0.00, -0.00, -1.00, 1.7, 59.0)" opacity="0.50"></image><path d="M 4.7 55.0 L 248.0 55.0 L 248.0 6.0 L 4.7 6.0 Z M 4.7 55.0 " fill="#6FBF40"></path></g></g><g><clipPath id="clip-501"><path d="M 2.9 54.9 L 189.1 54.9 L 189.1 89.4 L 2.9 89.4 Z M 2.9 54.9 "></path></clipPath><g clip-path="url(#clip-501)"><text xml:space="preserve" font-family="AmericanTypewriter" font-size="20.0" fill="#000000" transform="matrix(1.00, 0.00, -0.00, -1.00, 9.0, 66.0)">J</text><text xml:space="preserve" font-family="AmericanTypewriter" font-size="20.0" fill="#000000" transform="matrix(1.00, 0.00, -0.00, -1.00, 21.4, 66.0)">a</text><text xml:space="preserve" font-family="AmericanTypewriter" font-size="20.0" fill="#000000" transform="matrix(1.00, 0.00, -0.00, -1.00, 31.9, 66.0)">v</text><text xml:space="preserve" font-family="AmericanTypewriter" font-size="20.0" fill="#000000" transform="matrix(1.00, 0.00, -0.00, -1.00, 44.0, 66.0)">a</text><text xml:space="preserve" font-family="AmericanTypewriter" font-size="20.0" fill="#000000" transform="matrix(1.00, 0.00, -0.00, -1.00, 55.2, 66.0)">S</text><text xml:space="preserve" font-family="AmericanTypewriter" font-size="20.0" fill="#000000" transform="matrix(1.00, 0.00, -0.00, -1.00, 67.6, 66.0)">c</text><text xml:space="preserve" font-family="AmericanTypewriter" font-size="20.0" fill="#000000" transform="matrix(1.00, 0.00, -0.00, -1.00, 77.8, 66.0)">r</text><text xml:space="preserve" font-family="AmericanTypewriter" font-size="20.0" fill="#000000" transform="matrix(1.00, 0.00, -0.00, -1.00, 87.6, 66.0)">i</text><text xml:space="preserve" font-family="AmericanTypewriter" font-size="20.0" fill="#000000" transform="matrix(1.00, 0.00, -0.00, -1.00, 93.8, 66.0)">p</text><text xml:space="preserve" font-family="AmericanTypewriter" font-size="20.0" fill="#000000" transform="matrix(1.00, 0.00, -0.00, -1.00, 105.8, 66.0)">t</text><text xml:space="preserve" font-family="AmericanTypewriter" font-size="20.0" fill="#000000" transform="matrix(1.00, 0.00, -0.00, -1.00, 113.8, 66.0)"> </text><text xml:space="preserve" font-family="AmericanTypewriter" font-size="20.0" fill="#000000" transform="matrix(1.00, 0.00, -0.00, -1.00, 118.8, 66.0)">e</text><text xml:space="preserve" font-family="AmericanTypewriter" font-size="20.0" fill="#000000" transform="matrix(1.00, 0.00, -0.00, -1.00, 129.4, 66.0)">n</text><text xml:space="preserve" font-family="AmericanTypewriter" font-size="20.0" fill="#000000" transform="matrix(1.00, 0.00, -0.00, -1.00, 142.1, 66.0)">g</text><text xml:space="preserve" font-family="AmericanTypewriter" font-size="20.0" fill="#000000" transform="matrix(1.00, 0.00, -0.00, -1.00, 153.1, 66.0)">i</text><text xml:space="preserve" font-family="AmericanTypewriter" font-size="20.0" fill="#000000" transform="matrix(1.00, 0.00, -0.00, -1.00, 159.3, 66.0)">n</text><text xml:space="preserve" font-family="AmericanTypewriter" font-size="20.0" fill="#000000" transform="matrix(1.00, 0.00, -0.00, -1.00, 172.0, 66.0)">e</text></g></g><g><clipPath id="clip-502"><path d="M 4.6 13.2 L 229.4 13.2 L 229.4 47.8 L 4.6 47.8 Z M 4.6 13.2 "></path></clipPath><g clip-path="url(#clip-502)"><text xml:space="preserve" font-family="AmericanTypewriter" font-size="20.0" fill="#000000" transform="matrix(1.00, 0.00, -0.00, -1.00, 11.0, 24.0)">D</text><text xml:space="preserve" font-family="AmericanTypewriter" font-size="20.0" fill="#000000" transform="matrix(1.00, 0.00, -0.00, -1.00, 25.6, 24.0)">o</text><text xml:space="preserve" font-family="AmericanTypewriter" font-size="20.0" fill="#000000" transform="matrix(1.00, 0.00, -0.00, -1.00, 36.5, 24.0)">e</text><text xml:space="preserve" font-family="AmericanTypewriter" font-size="20.0" fill="#000000" transform="matrix(1.00, 0.00, -0.00, -1.00, 47.0, 24.0)">s</text><text xml:space="preserve" font-family="AmericanTypewriter" font-size="20.0" fill="#000000" transform="matrix(1.00, 0.00, -0.00, -1.00, 56.9, 24.0)"> </text><text xml:space="preserve" font-family="AmericanTypewriter" font-size="20.0" fill="#000000" transform="matrix(1.00, 0.00, -0.00, -1.00, 61.9, 24.0)">t</text><text xml:space="preserve" font-family="AmericanTypewriter" font-size="20.0" fill="#000000" transform="matrix(1.00, 0.00, -0.00, -1.00, 69.9, 24.0)">o</text><text xml:space="preserve" font-family="AmericanTypewriter" font-size="20.0" fill="#000000" transform="matrix(1.00, 0.00, -0.00, -1.00, 80.8, 24.0)">S</text><text xml:space="preserve" font-family="AmericanTypewriter" font-size="20.0" fill="#000000" transform="matrix(1.00, 0.00, -0.00, -1.00, 92.9, 24.0)">t</text><text xml:space="preserve" font-family="AmericanTypewriter" font-size="20.0" fill="#000000" transform="matrix(1.00, 0.00, -0.00, -1.00, 100.9, 24.0)">r</text><text xml:space="preserve" font-family="AmericanTypewriter" font-size="20.0" fill="#000000" transform="matrix(1.00, 0.00, -0.00, -1.00, 110.8, 24.0)">i</text><text xml:space="preserve" font-family="AmericanTypewriter" font-size="20.0" fill="#000000" transform="matrix(1.00, 0.00, -0.00, -1.00, 117.0, 24.0)">n</text><text xml:space="preserve" font-family="AmericanTypewriter" font-size="20.0" fill="#000000" transform="matrix(1.00, 0.00, -0.00, -1.00, 129.7, 24.0)">g</text><text xml:space="preserve" font-family="AmericanTypewriter" font-size="20.0" fill="#000000" transform="matrix(1.00, 0.00, -0.00, -1.00, 140.6, 24.0)">(</text><text xml:space="preserve" font-family="AmericanTypewriter" font-size="20.0" fill="#000000" transform="matrix(1.00, 0.00, -0.00, -1.00, 149.7, 24.0)">)</text><text xml:space="preserve" font-family="AmericanTypewriter" font-size="20.0" fill="#000000" transform="matrix(1.00, 0.00, -0.00, -1.00, 158.8, 24.0)"> </text><text xml:space="preserve" font-family="AmericanTypewriter" font-size="20.0" fill="#000000" transform="matrix(1.00, 0.00, -0.00, -1.00, 163.8, 24.0)">e</text><text xml:space="preserve" font-family="AmericanTypewriter" font-size="20.0" fill="#000000" transform="matrix(1.00, 0.00, -0.00, -1.00, 174.4, 24.0)">x</text><text xml:space="preserve" font-family="AmericanTypewriter" font-size="20.0" fill="#000000" transform="matrix(1.00, 0.00, -0.00, -1.00, 187.1, 24.0)">i</text><text xml:space="preserve" font-family="AmericanTypewriter" font-size="20.0" fill="#000000" transform="matrix(1.00, 0.00, -0.00, -1.00, 193.3, 24.0)">s</text><text xml:space="preserve" font-family="AmericanTypewriter" font-size="20.0" fill="#000000" transform="matrix(1.00, 0.00, -0.00, -1.00, 203.2, 24.0)">t</text><text xml:space="preserve" font-family="AmericanTypewriter" font-size="20.0" fill="#000000" transform="matrix(1.00, 0.00, -0.00, -1.00, 211.2, 24.0)">?</text></g></g><g><clipPath id="clip-503"><path d="M 244.0 1.0 L 336.5 1.0 L 336.5 60.0 L 244.0 60.0 Z M 244.0 1.0 "></path></clipPath><g clip-path="url(#clip-503)"><image xlink:href="D69B0C9790180A3D379E73EF02E77AE4.png" width="90.00" height="57.00" transform="matrix(1.01, 0.00, -0.00, -1.00, 245.0, 59.0)" opacity="0.50"></image><path d="M 277.7 22.7 L 277.7 6.0 L 330.5 30.5 L 277.7 55.0 L 277.7 38.3 L 248.0 38.3 L 248.0 22.7 Z M 277.7 22.7 " fill="#6FBF40"></path></g></g></g></svg>