<?xml version="1.0" encoding="UTF-8" standalone="no"?><svg xmlns="http://www.w3.org/2000/svg" xmlns:xlink="http://www.w3.org/1999/xlink" clip-rule="evenodd" stroke-miterlimit="4.00" viewBox="0 0 1024 768"><desc>SVG generated by Keynote</desc><defs></defs><g transform="matrix(1.00, 0.00, -0.00, -1.00, 0.0, 768.0)"><g><clipPath id="clip-875"><path d="M 0.0 768.0 L 1024.0 768.0 L 1024.0 0.0 L 0.0 0.0 Z M 0.0 768.0 "></path></clipPath><g clip-path="url(#clip-875)"><image xlink:href="../../2DDB5E14-E941-4539-BC0B-5168CEFF0FD6/assets/3FBB98853A833B6E3BBFA0AF677D3F24.jpeg" width="1024.00" height="768.00" transform="matrix(1.00, 0.00, -0.00, -1.00, 0.0, 768.0)"></image></g></g><text xml:space="preserve" font-family="Palatino-Roman" font-size="49.0" fill="#000000" transform="matrix(1.00, 0.00, -0.00, -1.00, 124.0, 451.0)">M</text><text xml:space="preserve" font-family="Palatino-Roman" font-size="49.0" fill="#000000" transform="matrix(1.00, 0.00, -0.00, -1.00, 170.3, 451.0)">e</text><text xml:space="preserve" font-family="Palatino-Roman" font-size="49.0" fill="#000000" transform="matrix(1.00, 0.00, -0.00, -1.00, 193.8, 451.0)">n</text><text xml:space="preserve" font-family="Palatino-Roman" font-size="49.0" fill="#000000" transform="matrix(1.00, 0.00, -0.00, -1.00, 222.3, 451.0)"> </text><text xml:space="preserve" font-family="Palatino-Roman" font-size="49.0" fill="#000000" transform="matrix(1.00, 0.00, -0.00, -1.00, 234.6, 451.0)">a</text><text xml:space="preserve" font-family="Palatino-Roman" font-size="49.0" fill="#000000" transform="matrix(1.00, 0.00, -0.00, -1.00, 259.1, 451.0)">r</text><text xml:space="preserve" font-family="Palatino-Roman" font-size="49.0" fill="#000000" transform="matrix(1.00, 0.00, -0.00, -1.00, 277.6, 451.0)">e</text><text xml:space="preserve" font-family="Palatino-Roman" font-size="49.0" fill="#000000" transform="matrix(1.00, 0.00, -0.00, -1.00, 301.0, 451.0)"> </text><text xml:space="preserve" font-family="Palatino-Roman" font-size="49.0" fill="#000000" transform="matrix(1.00, 0.00, -0.00, -1.00, 313.3, 451.0)">b</text><text xml:space="preserve" font-family="Palatino-Roman" font-size="49.0" fill="#000000" transform="matrix(1.00, 0.00, -0.00, -1.00, 340.4, 451.0)">e</text><text xml:space="preserve" font-family="Palatino-Roman" font-size="49.0" fill="#000000" transform="matrix(1.00, 0.00, -0.00, -1.00, 363.9, 451.0)">t</text><text xml:space="preserve" font-family="Palatino-Roman" font-size="49.0" fill="#000000" transform="matrix(1.00, 0.00, -0.00, -1.00, 379.9, 451.0)">t</text><text xml:space="preserve" font-family="Palatino-Roman" font-size="49.0" fill="#000000" transform="matrix(1.00, 0.00, -0.00, -1.00, 395.9, 451.0)">e</text><text xml:space="preserve" font-family="Palatino-Roman" font-size="49.0" fill="#000000" transform="matrix(1.00, 0.00, -0.00, -1.00, 419.3, 451.0)">r</text><text xml:space="preserve" font-family="Palatino-Roman" font-size="49.0" fill="#000000" transform="matrix(1.00, 0.00, -0.00, -1.00, 438.7, 451.0)"> </text><text xml:space="preserve" font-family="Palatino-Roman" font-size="49.0" fill="#000000" transform="matrix(1.00, 0.00, -0.00, -1.00, 450.9, 451.0)">a</text><text xml:space="preserve" font-family="Palatino-Roman" font-size="49.0" fill="#000000" transform="matrix(1.00, 0.00, -0.00, -1.00, 475.4, 451.0)">t</text><text xml:space="preserve" font-family="Palatino-Roman" font-size="49.0" fill="#000000" transform="matrix(1.00, 0.00, -0.00, -1.00, 491.4, 451.0)"> </text><text xml:space="preserve" font-family="Palatino-Roman" font-size="49.0" fill="#000000" transform="matrix(1.00, 0.00, -0.00, -1.00, 503.7, 451.0)">q</text><text xml:space="preserve" font-family="Palatino-Roman" font-size="49.0" fill="#000000" transform="matrix(1.00, 0.00, -0.00, -1.00, 531.1, 451.0)">u</text><text xml:space="preserve" font-family="Palatino-Roman" font-size="49.0" fill="#000000" transform="matrix(1.00, 0.00, -0.00, -1.00, 560.7, 451.0)">a</text><text xml:space="preserve" font-family="Palatino-Roman" font-size="49.0" fill="#000000" transform="matrix(1.00, 0.00, -0.00, -1.00, 585.2, 451.0)">n</text><text xml:space="preserve" font-family="Palatino-Roman" font-size="49.0" fill="#000000" transform="matrix(1.00, 0.00, -0.00, -1.00, 613.7, 451.0)">t</text><text xml:space="preserve" font-family="Palatino-Roman" font-size="49.0" fill="#000000" transform="matrix(1.00, 0.00, -0.00, -1.00, 629.7, 451.0)">i</text><text xml:space="preserve" font-family="Palatino-Roman" font-size="49.0" fill="#000000" transform="matrix(1.00, 0.00, -0.00, -1.00, 644.0, 451.0)">t</text><text xml:space="preserve" font-family="Palatino-Roman" font-size="49.0" fill="#000000" transform="matrix(1.00, 0.00, -0.00, -1.00, 659.9, 451.0)">a</text><text xml:space="preserve" font-family="Palatino-Roman" font-size="49.0" fill="#000000" transform="matrix(1.00, 0.00, -0.00, -1.00, 684.4, 451.0)">t</text><text xml:space="preserve" font-family="Palatino-Roman" font-size="49.0" fill="#000000" transform="matrix(1.00, 0.00, -0.00, -1.00, 700.4, 451.0)">i</text><text xml:space="preserve" font-family="Palatino-Roman" font-size="49.0" fill="#000000" transform="matrix(1.00, 0.00, -0.00, -1.00, 714.7, 451.0)">v</text><text xml:space="preserve" font-family="Palatino-Roman" font-size="49.0" fill="#000000" transform="matrix(1.00, 0.00, -0.00, -1.00, 742.4, 451.0)">e</text><text xml:space="preserve" font-family="Palatino-Roman" font-size="49.0" fill="#000000" transform="matrix(1.00, 0.00, -0.00, -1.00, 765.8, 451.0)"> </text><text xml:space="preserve" font-family="Palatino-Roman" font-size="49.0" fill="#000000" transform="matrix(1.00, 0.00, -0.00, -1.00, 778.1, 451.0)">t</text><text xml:space="preserve" font-family="Palatino-Roman" font-size="49.0" fill="#000000" transform="matrix(1.00, 0.00, -0.00, -1.00, 794.1, 451.0)">a</text><text xml:space="preserve" font-family="Palatino-Roman" font-size="49.0" fill="#000000" transform="matrix(1.00, 0.00, -0.00, -1.00, 818.6, 451.0)">s</text><text xml:space="preserve" font-family="Palatino-Roman" font-size="49.0" fill="#000000" transform="matrix(1.00, 0.00, -0.00, -1.00, 839.3, 451.0)">k</text><text xml:space="preserve" font-family="Palatino-Roman" font-size="49.0" fill="#000000" transform="matrix(1.00, 0.00, -0.00, -1.00, 866.6, 451.0)">s</text><text xml:space="preserve" font-family="Palatino-Roman" font-size="49.0" fill="#000000" transform="matrix(1.00, 0.00, -0.00, -1.00, 887.4, 451.0)">,</text><text xml:space="preserve" font-family="Palatino-Roman" font-size="49.0" fill="#000000" transform="matrix(1.00, 0.00, -0.00, -1.00, 899.6, 451.0)"> </text><text xml:space="preserve" font-family="Palatino-Roman" font-size="49.0" fill="#000000" transform="matrix(1.00, 0.00, -0.00, -1.00, 160.0, 386.0)">s</text><text xml:space="preserve" font-family="Palatino-Roman" font-size="49.0" fill="#000000" transform="matrix(1.00, 0.00, -0.00, -1.00, 180.8, 386.0)">u</text><text xml:space="preserve" font-family="Palatino-Roman" font-size="49.0" fill="#000000" transform="matrix(1.00, 0.00, -0.00, -1.00, 210.3, 386.0)">c</text><text xml:space="preserve" font-family="Palatino-Roman" font-size="49.0" fill="#000000" transform="matrix(1.00, 0.00, -0.00, -1.00, 232.0, 386.0)">h</text><text xml:space="preserve" font-family="Palatino-Roman" font-size="49.0" fill="#000000" transform="matrix(1.00, 0.00, -0.00, -1.00, 260.6, 386.0)"> </text><text xml:space="preserve" font-family="Palatino-Roman" font-size="49.0" fill="#000000" transform="matrix(1.00, 0.00, -0.00, -1.00, 272.8, 386.0)">a</text><text xml:space="preserve" font-family="Palatino-Roman" font-size="49.0" fill="#000000" transform="matrix(1.00, 0.00, -0.00, -1.00, 297.3, 386.0)">s</text><text xml:space="preserve" font-family="Palatino-Roman" font-size="49.0" fill="#000000" transform="matrix(1.00, 0.00, -0.00, -1.00, 318.1, 386.0)"> </text><text xml:space="preserve" font-family="Palatino-Roman" font-size="49.0" fill="#000000" transform="matrix(1.00, 0.00, -0.00, -1.00, 330.3, 386.0)">m</text><text xml:space="preserve" font-family="Palatino-Roman" font-size="49.0" fill="#000000" transform="matrix(1.00, 0.00, -0.00, -1.00, 373.6, 386.0)">a</text><text xml:space="preserve" font-family="Palatino-Roman" font-size="49.0" fill="#000000" transform="matrix(1.00, 0.00, -0.00, -1.00, 398.1, 386.0)">t</text><text xml:space="preserve" font-family="Palatino-Roman" font-size="49.0" fill="#000000" transform="matrix(1.00, 0.00, -0.00, -1.00, 414.1, 386.0)">h</text><text xml:space="preserve" font-family="Palatino-Roman" font-size="49.0" fill="#000000" transform="matrix(1.00, 0.00, -0.00, -1.00, 442.6, 386.0)">e</text><text xml:space="preserve" font-family="Palatino-Roman" font-size="49.0" fill="#000000" transform="matrix(1.00, 0.00, -0.00, -1.00, 466.1, 386.0)">m</text><text xml:space="preserve" font-family="Palatino-Roman" font-size="49.0" fill="#000000" transform="matrix(1.00, 0.00, -0.00, -1.00, 509.3, 386.0)">a</text><text xml:space="preserve" font-family="Palatino-Roman" font-size="49.0" fill="#000000" transform="matrix(1.00, 0.00, -0.00, -1.00, 533.8, 386.0)">t</text><text xml:space="preserve" font-family="Palatino-Roman" font-size="49.0" fill="#000000" transform="matrix(1.00, 0.00, -0.00, -1.00, 549.8, 386.0)">i</text><text xml:space="preserve" font-family="Palatino-Roman" font-size="49.0" fill="#000000" transform="matrix(1.00, 0.00, -0.00, -1.00, 564.1, 386.0)">c</text><text xml:space="preserve" font-family="Palatino-Roman" font-size="49.0" fill="#000000" transform="matrix(1.00, 0.00, -0.00, -1.00, 585.8, 386.0)">s</text><text xml:space="preserve" font-family="Palatino-Roman" font-size="49.0" fill="#000000" transform="matrix(1.00, 0.00, -0.00, -1.00, 606.5, 386.0)"> </text><text xml:space="preserve" font-family="Palatino-Roman" font-size="49.0" fill="#000000" transform="matrix(1.00, 0.00, -0.00, -1.00, 618.8, 386.0)">o</text><text xml:space="preserve" font-family="Palatino-Roman" font-size="49.0" fill="#000000" transform="matrix(1.00, 0.00, -0.00, -1.00, 645.5, 386.0)">r</text><text xml:space="preserve" font-family="Palatino-Roman" font-size="49.0" fill="#000000" transform="matrix(1.00, 0.00, -0.00, -1.00, 664.9, 386.0)"> </text><text xml:space="preserve" font-family="Palatino-Roman" font-size="49.0" fill="#000000" transform="matrix(1.00, 0.00, -0.00, -1.00, 677.1, 386.0)">s</text><text xml:space="preserve" font-family="Palatino-Roman" font-size="49.0" fill="#000000" transform="matrix(1.00, 0.00, -0.00, -1.00, 697.9, 386.0)">o</text><text xml:space="preserve" font-family="Palatino-Roman" font-size="49.0" fill="#000000" transform="matrix(1.00, 0.00, -0.00, -1.00, 724.7, 386.0)">f</text><text xml:space="preserve" font-family="Palatino-Roman" font-size="49.0" fill="#000000" transform="matrix(1.00, 0.00, -0.00, -1.00, 741.0, 386.0)">t</text><text xml:space="preserve" font-family="Palatino-Roman" font-size="49.0" fill="#000000" transform="matrix(1.00, 0.00, -0.00, -1.00, 757.0, 386.0)">w</text><text xml:space="preserve" font-family="Palatino-Roman" font-size="49.0" fill="#000000" transform="matrix(1.00, 0.00, -0.00, -1.00, 797.8, 386.0)">a</text><text xml:space="preserve" font-family="Palatino-Roman" font-size="49.0" fill="#000000" transform="matrix(1.00, 0.00, -0.00, -1.00, 822.3, 386.0)">r</text><text xml:space="preserve" font-family="Palatino-Roman" font-size="49.0" fill="#000000" transform="matrix(1.00, 0.00, -0.00, -1.00, 840.8, 386.0)">e</text><text xml:space="preserve" font-family="Palatino-Roman" font-size="49.0" fill="#000000" transform="matrix(1.00, 0.00, -0.00, -1.00, 864.3, 386.0)"> </text><text xml:space="preserve" font-family="Palatino-Roman" font-size="49.0" fill="#000000" transform="matrix(1.00, 0.00, -0.00, -1.00, 265.0, 321.0)">d</text><text xml:space="preserve" font-family="Palatino-Roman" font-size="49.0" fill="#000000" transform="matrix(1.00, 0.00, -0.00, -1.00, 294.9, 321.0)">e</text><text xml:space="preserve" font-family="Palatino-Roman" font-size="49.0" fill="#000000" transform="matrix(1.00, 0.00, -0.00, -1.00, 318.4, 321.0)">v</text><text xml:space="preserve" font-family="Palatino-Roman" font-size="49.0" fill="#000000" transform="matrix(1.00, 0.00, -0.00, -1.00, 346.1, 321.0)">e</text><text xml:space="preserve" font-family="Palatino-Roman" font-size="49.0" fill="#000000" transform="matrix(1.00, 0.00, -0.00, -1.00, 369.5, 321.0)">l</text><text xml:space="preserve" font-family="Palatino-Roman" font-size="49.0" fill="#000000" transform="matrix(1.00, 0.00, -0.00, -1.00, 383.8, 321.0)">o</text><text xml:space="preserve" font-family="Palatino-Roman" font-size="49.0" fill="#000000" transform="matrix(1.00, 0.00, -0.00, -1.00, 410.5, 321.0)">p</text><text xml:space="preserve" font-family="Palatino-Roman" font-size="49.0" fill="#000000" transform="matrix(1.00, 0.00, -0.00, -1.00, 440.0, 321.0)">m</text><text xml:space="preserve" font-family="Palatino-Roman" font-size="49.0" fill="#000000" transform="matrix(1.00, 0.00, -0.00, -1.00, 483.3, 321.0)">e</text><text xml:space="preserve" font-family="Palatino-Roman" font-size="49.0" fill="#000000" transform="matrix(1.00, 0.00, -0.00, -1.00, 506.7, 321.0)">n</text><text xml:space="preserve" font-family="Palatino-Roman" font-size="49.0" fill="#000000" transform="matrix(1.00, 0.00, -0.00, -1.00, 535.2, 321.0)">t</text><text xml:space="preserve" font-family="Palatino-Roman" font-size="49.0" fill="#000000" transform="matrix(1.00, 0.00, -0.00, -1.00, 551.2, 321.0)"> </text><text xml:space="preserve" font-family="Palatino-Roman" font-size="49.0" fill="#000000" transform="matrix(1.00, 0.00, -0.00, -1.00, 563.5, 321.0)">p</text><text xml:space="preserve" font-family="Palatino-Roman" font-size="49.0" fill="#000000" transform="matrix(1.00, 0.00, -0.00, -1.00, 592.9, 321.0)">l</text><text xml:space="preserve" font-family="Palatino-Roman" font-size="49.0" fill="#000000" transform="matrix(1.00, 0.00, -0.00, -1.00, 607.2, 321.0)">a</text><text xml:space="preserve" font-family="Palatino-Roman" font-size="49.0" fill="#000000" transform="matrix(1.00, 0.00, -0.00, -1.00, 631.7, 321.0)">n</text><text xml:space="preserve" font-family="Palatino-Roman" font-size="49.0" fill="#000000" transform="matrix(1.00, 0.00, -0.00, -1.00, 660.2, 321.0)">n</text><text xml:space="preserve" font-family="Palatino-Roman" font-size="49.0" fill="#000000" transform="matrix(1.00, 0.00, -0.00, -1.00, 688.7, 321.0)">i</text><text xml:space="preserve" font-family="Palatino-Roman" font-size="49.0" fill="#000000" transform="matrix(1.00, 0.00, -0.00, -1.00, 703.0, 321.0)">n</text><text xml:space="preserve" font-family="Palatino-Roman" font-size="49.0" fill="#000000" transform="matrix(1.00, 0.00, -0.00, -1.00, 731.5, 321.0)">g</text></g></svg>